<svg height="480pt" viewBox="0 0 480 480" width="480pt" xmlns="http://www.w3.org/2000/svg"><g fill="#78b9eb"><path d="m448 335.996094c0 35.347656-28.652344 64-64 64s-64-28.652344-64-64 28.652344-64 64-64 64 28.652344 64 64zm0 0"/><path d="m384 423.996094h-376v32c.027344 8.824218 7.175781 15.972656 16 16h432c8.824219-.027344 15.972656-7.175782 16-16v-32zm0 0"/><path d="m200 359.996094h80v32h-80zm0 0"/><path d="m40 359.996094h80v32h-80zm0 0"/><path d="m360 183.996094h80v32h-80zm0 0"/><path d="m200 183.996094h80v32h-80zm0 0"/><path d="m40 183.996094h80v32h-80zm0 0"/><path d="m240 7.996094-232 104v40h464v-40zm0 112c-17.671875 0-32-14.328125-32-32s14.328125-32 32-32 32 14.328125 32 32-14.328125 32-32 32zm0 0"/></g><path d="m440 223.996094c4.417969 0 8-3.582032 8-8v-24h8c4.417969 0 8-3.582032 8-8v-24h8c4.417969 0 8-3.582032 8-8v-40c0-3.152344-1.851562-6.007813-4.726562-7.296875l-232-104c-2.082032-.933594-4.464844-.933594-6.546876 0l-232 104c-2.875 1.289062-4.726562 4.144531-4.726562 7.296875v40c0 4.417968 3.582031 8 8 8h8v24c0 4.417968 3.582031 8 8 8h8v24c0 4.417968 3.582031 8 8 8h8v128h-8c-4.417969 0-8 3.582031-8 8v24h-8c-4.417969 0-8 3.582031-8 8v24h-8c-4.417969 0-8 3.582031-8 8v32c0 13.253906 10.746094 24 24 24h432c13.253906 0 24-10.746094 24-24v-32c0-4.417969-3.582031-8-8-8h-8v-24c-.039062-.785156-.195312-1.558594-.464844-2.296875 14.917969-22.039063 19.996094-49.292969 14.011719-75.230469-5.980469-25.933594-22.480469-48.210938-45.546875-61.488281v-28.984375zm-8-16h-64v-16h64zm-144 128c.003906 16.867187 4.484375 33.429687 12.984375 48h-12.984375v-24c0-4.417969-3.582031-8-8-8h-8v-128h8c4.417969 0 8-3.582032 8-8v-24h64v24c0 4.417968 3.582031 8 8 8h8v17.449218c-46.136719 7.828126-79.917969 47.757813-80 94.550782zm-160 48v-24c0-4.417969-3.582031-8-8-8h-8v-128h8c4.417969 0 8-3.582032 8-8v-24h64v24c0 4.417968 3.582031 8 8 8h8v128h-8c-4.417969 0-8 3.582031-8 8v24zm128-32h-32v-128h32zm-48-144v-16h64v16zm0 160h64v16h-64zm-192-250.824219 224-100.375 224 100.375v26.824219h-448zm432 42.824219v16h-416v-16zm-336 32v16h-64v-16zm-48 32h32v128h-32zm-16 144h64v16h-64zm-16 32h280.648438c5.429687 6.089844 11.613281 11.46875 18.398437 16h-299.046875zm432 56c0 4.417968-3.582031 8-8 8h-432c-4.417969 0-8-3.582032-8-8v-24h448zm-27.046875-40c3.886719-2.609375 7.578125-5.5 11.046875-8.648438v8.648438zm27.046875-80c0 44.183594-35.816406 80-80 80s-80-35.816406-80-80 35.816406-80 80-80c44.164062.046875 79.953125 35.835937 80 80zm-48-90.398438c-10.269531-3.683594-21.089844-5.578125-32-5.601562v-16h32zm0 0" fill="#006df0"/><path d="m312 335.996094c0 39.765625 32.234375 72 72 72s72-32.234375 72-72-32.234375-72-72-72c-39.746094.042968-71.957031 32.253906-72 72zm128 0c0 30.925781-25.070312 56-56 56s-56-25.074219-56-56c0-30.929688 25.070312-56 56-56 30.910156.039062 55.960938 25.089844 56 56zm0 0" fill="#006df0"/><path d="m376 287.996094v8c-13.253906 0-24 10.746094-24 24s10.746094 24 24 24v16c-4.417969 0-8-3.582032-8-8h-16c0 13.253906 10.746094 24 24 24v8h16v-8c13.253906 0 24-10.746094 24-24s-10.746094-24-24-24v-16c4.417969 0 8 3.582031 8 8h16c0-13.253906-10.746094-24-24-24v-8zm24 64c0 4.417968-3.582031 8-8 8v-16c4.417969 0 8 3.582031 8 8zm-24-24c-4.417969 0-8-3.582032-8-8 0-4.417969 3.582031-8 8-8zm0 0" fill="#006df0"/><path d="m240 127.996094c22.089844 0 40-17.910156 40-40s-17.910156-40-40-40-40 17.910156-40 40c.027344 22.078125 17.917969 39.972656 40 40zm0-64c13.253906 0 24 10.746094 24 24s-10.746094 24-24 24-24-10.746094-24-24 10.746094-24 24-24zm0 0" fill="#006df0"/></svg>