<svg height="473pt" viewBox="0 0 473.29406 473" width="473pt" xmlns="http://www.w3.org/2000/svg"><path d="m281.523438 281.648438c62.484374-62.480469 62.484374-163.789063 0-226.273438-62.484376-62.484375-163.789063-62.484375-226.273438 0s-62.484375 163.792969 0 226.273438c62.484375 62.484374 163.789062 62.484374 226.273438 0zm-192.335938-192.335938c43.738281-43.734375 114.652344-43.730469 158.390625.007812 43.734375 43.738282 43.734375 114.648438 0 158.386719-43.738281 43.738281-114.652344 43.742188-158.390625.007813-21.195312-20.90625-33.125-49.433594-33.125-79.199219 0-29.769531 11.929688-58.296875 33.125-79.203125zm0 0" fill="#9bc9ff"/><path d="m383.347656 451.355469c18.789063 18.484375 48.96875 18.359375 67.605469-.277344s18.757813-48.816406.273437-67.605469l-101.824218-101.824218-67.878906 67.882812zm0 0" fill="#9bc9ff"/><g fill="#1e81ce"><path d="m253.234375 83.664062c-46.859375-46.863281-122.84375-46.867187-169.707031-.003906-46.867188 46.863282-46.867188 122.84375 0 169.707032 46.863281 46.863281 122.847656 46.863281 169.707031-.003907 22.699219-22.398437 35.476563-52.960937 35.476563-84.847656 0-31.890625-12.777344-62.453125-35.476563-84.851563zm-11.3125 158.402344c-40.613281 40.617188-106.464844 40.617188-147.078125.003906-40.617188-40.613281-40.617188-106.464843 0-147.082031 40.613281-40.613281 106.464844-40.613281 147.078125.003907 19.675781 19.410156 30.753906 45.894531 30.753906 73.53125 0 27.636718-11.078125 54.117187-30.753906 73.527343zm0 0"/><path d="m456.882812 377.816406-107.480468-107.476562-11.3125 11.308594-26.175782-26.167969c44.117188-72.738281 26.949219-166.96875-39.984374-219.480469-66.929688-52.511719-162.539063-46.757812-222.691407 13.402344-60.148437 60.160156-65.890625 155.769531-13.371093 222.695312 52.519531 66.921875 146.753906 84.078125 219.488281 39.953125l26.167969 26.167969-11.3125 11.3125 107.480468 107.480469c21.871094 21.867187 57.328125 21.867187 79.199219 0 21.871094-21.871094 21.871094-57.332031 0-79.203125zm-395.976562-101.824218c-59.359375-59.359376-59.359375-155.597657 0-214.957032 59.359375-59.363281 155.601562-59.363281 214.960938 0 59.359374 59.359375 59.359374 155.597656 0 214.957032-59.398438 59.265624-155.558594 59.265624-214.960938 0zm207.945312 26.921874c6.476563-4.761718 12.601563-9.980468 18.328126-15.617187 5.632812-5.722656 10.851562-11.847656 15.609374-18.320313l24 24-33.953124 33.9375zm176.71875 142.777344c-15.621093 15.617188-40.945312 15.617188-56.566406 0l-96.167968-96.160156 56.566406-56.570312 96.167968 96.167968c15.621094 15.621094 15.621094 40.949219 0 56.570313zm0 0"/></g></svg>