<svg height="480pt" viewBox="-24 0 480 480" width="480pt" xmlns="http://www.w3.org/2000/svg"><path d="m136 40h160v64h-160zm0 0" fill="#78b9eb"/><path d="m376 232h-320c0 26.507812-21.492188 48-48 48v144c26.507812 0 48 21.492188 48 48h320.71875c-.484375-2.640625-.722656-5.316406-.71875-8 0-26.507812 21.492188-48 48-48v-136c-26.507812 0-48-21.492188-48-48zm-288 112h-32v-48h32zm128 104c-53.019531 0-96-42.980469-96-96-.023438-10.90625 1.84375-21.730469 5.519531-32 13.550781-38.351562 49.804688-63.996094 90.480469-63.996094s76.929688 25.644532 90.480469 63.996094c3.675781 10.269531 5.542969 21.09375 5.519531 32 0 53.019531-42.980469 96-96 96zm160-104h-32v-48h32zm0 0" fill="#78b9eb"/><g fill="#006df0"><path d="m184 72c0 8.835938-7.164062 16-16 16s-16-7.164062-16-16 7.164062-16 16-16 16 7.164062 16 16zm0 0"/><path d="m408 224h-56v-16c0-4.417969-3.582031-8-8-8h-16v-40c0-13.253906-10.746094-24-24-24h-8v-24c4.417969 0 8-3.582031 8-8v-64c0-4.417969-3.582031-8-8-8h-8v-32h-16v32h-112v-32h-16v32h-8c-4.417969 0-8 3.582031-8 8v64c0 4.417969 3.582031 8 8 8v24h-8c-13.253906 0-24 10.746094-24 24v40h-16c-4.417969 0-8 3.582031-8 8v16h-56c-13.253906 0-24 10.746094-24 24v208c0 13.253906 10.746094 24 24 24h384c13.253906 0 24-10.746094 24-24v-208c0-13.253906-10.746094-24-24-24zm8 24v23.199219c-15.699219-3.234375-27.964844-15.5-31.199219-31.199219h23.199219c4.417969 0 8 3.582031 8 8zm-40 40h-32c-4.417969 0-8 3.582031-8 8v16h-24c-16.148438-38.753906-54.015625-64-96-64s-79.851562 25.246094-96 64h-24v-16c0-4.417969-3.582031-8-8-8h-32c-4.417969 0-8 3.582031-8 8v16h-32v-24.640625c24.527344-3.566406 43.792969-22.832031 47.359375-47.359375h305.28125c3.566406 24.527344 22.832031 43.792969 47.359375 47.359375v24.640625h-32v-16c0-4.417969-3.582031-8-8-8zm-8 16v32h-16v-32zm-152-40c48.601562 0 88 39.398438 88 88s-39.398438 88-88 88-88-39.398438-88-88c.058594-48.578125 39.421875-87.941406 88-88zm-136 40v32h-16v-32zm256-80h-32v-8h32zm-192-176h144v48h-144zm8 64h128v64c0 4.417969-3.582031 8-8 8v-32h-16v32h-16v-32h-16v32h-16v-32h-16v32h-8c-4.417969 0-8-3.582031-8-8v-48h-16v8h-8zm8 48c-4.417969 0-8-3.582031-8-8h8zm-40 0c0-4.417969 3.582031-8 8-8h8c0 13.253906 10.746094 24 24 24 0 13.253906 10.746094 24 24 24h88c13.253906 0 24-10.746094 24-24v-24h8c4.417969 0 8 3.582031 8 8v40h-16c-4.417969 0-8 3.582031-8 8v16h-144v-16c0-4.417969-3.582031-8-8-8h-16zm-24 56h32v8h-32zm-72 24h23.199219c-3.234375 15.699219-15.5 27.964844-31.199219 31.199219v-23.199219c0-4.417969 3.582031-8 8-8zm-8 216v-23.199219c15.699219 3.234375 27.964844 15.5 31.199219 31.199219h-23.199219c-4.417969 0-8-3.582031-8-8zm47.359375 8c-3.566406-24.527344-22.832031-43.792969-47.359375-47.359375v-88.640625h32v16c0 4.417969 3.582031 8 8 8h32c4.417969 0 8-3.582031 8-8v-16h18.902344c-10.109375 41.886719 6.65625 85.667969 42.15625 110.089844s82.382812 24.421875 117.882812 0 52.265625-68.203125 42.15625-110.089844h18.902344v16c0 4.417969 3.582031 8 8 8h32c4.417969 0 8-3.582031 8-8v-16h32v80.640625c-27.527344 3.972656-47.96875 27.546875-48 55.359375zm344.640625 0h-24c.023438-19 13.386719-35.371094 32-39.199219v31.199219c0 4.417969-3.582031 8-8 8zm0 0"/><path d="m200 392c-8.835938 0-16-7.164062-16-16h-16c0 17.671875 14.328125 32 32 32h8v16h16v-16h8c17.671875 0 32-14.328125 32-32s-14.328125-32-32-32h-8v-32h8c8.835938 0 16 7.164062 16 16h16c0-17.671875-14.328125-32-32-32h-8v-16h-16v16h-8c-17.671875 0-32 14.328125-32 32s14.328125 32 32 32h8v32zm0-48c-8.835938 0-16-7.164062-16-16s7.164062-16 16-16h8v32zm24 16h8c8.835938 0 16 7.164062 16 16s-7.164062 16-16 16h-8zm0 0"/></g></svg>