<svg height="480pt" viewBox="0 0 480 480.00357" width="480pt" xmlns="http://www.w3.org/2000/svg"><g fill="#9bc9ff"><path d="m376 27.203125v313.601563l48 19.199218v-352zm0 0"/><path d="m56 104.003906c-26.507812 0-48 21.488282-48 48v64c0 26.507813 21.492188 48 48 48h128v-160zm0 0"/><path d="m72 328.050781 26.402344 118.894531c3.257812 14.652344 16.257812 25.070313 31.261718 25.058594h30.441407c9.699219-.011718 18.871093-4.421875 24.9375-11.992187 6.0625-7.570313 8.367187-17.484375 6.261719-26.953125l-23.304688-105.007813v-64.046875h-96zm0 0"/></g><path d="m432 112.644531v-104.640625c.003906-2.65625-1.3125-5.136718-3.511719-6.625-2.195312-1.492187-4.988281-1.792968-7.453125-.808594l-238.578125 95.433594h-126.457031c-30.910156.035156-55.9648438 25.085938-56 56v64c.0351562 30.914063 25.089844 55.964844 56 56h8v56.046875c.003906.585938.066406 1.167969.195312 1.734375l26.398438 118.898438c3.984375 18.363281 20.28125 31.425781 39.070312 31.320312h30.441407c12.132812 0 23.613281-5.507812 31.203125-14.972656 7.59375-9.464844 10.476562-21.863281 7.84375-33.707031l-23.152344-104.121094v-55.199219h6.457031l238.578125 95.429688c2.460938.988281 5.257813.6875 7.453125-.796875 2.199219-1.492188 3.515625-3.976563 3.511719-6.632813v-104.640625c27.519531-3.992187 47.949219-27.554687 48-55.359375v-32c-.050781-27.804687-20.480469-51.367187-48-55.359375zm-248.460938 322.152344c1.578126 7.105469-.152343 14.546875-4.710937 20.222656-4.554687 5.679688-11.441406 8.984375-18.722656 8.984375h-30.441407c-11.265624.050782-21.03125-7.785156-23.421874-18.792968l-26.242188-118.007813v-55.199219h80v56.046875c0 .585938.066406 1.167969.195312 1.734375zm-7.539062-178.792969h-120c-19-.023437-35.371094-13.390625-39.199219-32h23.199219c4.421875 0 8-3.582031 8-8 0-4.417968-3.578125-8-8-8h-24v-16h24c4.421875 0 8-3.582031 8-8 0-4.417968-3.578125-8-8-8h-24v-16h24c4.421875 0 8-3.582031 8-8 0-4.417968-3.578125-8-8-8h-23.199219c3.828125-18.613281 20.199219-31.976562 39.199219-32h120zm16-146.585937 176-70.398438v289.96875l-176-70.402343zm224 238.769531-32-12.800781v-302.769531l32-12.796876zm48-148.183594c-.019531 19-13.386719 35.375-32 39.199219v-110.398437c18.613281 3.824218 31.980469 20.195312 32 39.199218zm0 0" fill="#1e81ce"/></svg>