<svg height="480pt" viewBox="-96 0 480 480.19484" width="480pt" xmlns="http://www.w3.org/2000/svg"><g fill="#9bc9ff"><path d="m144.097656 8.199219c-75.109375 0-136 60.886719-136 136 0 75.109375 60.890625 136 136 136s136-60.890625 136-136c0-75.113281-60.890625-136-136-136zm0 240c-57.4375 0-104-46.5625-104-104s46.5625-104 104-104 104 46.5625 104 104c-.0625 57.410156-46.589844 103.9375-104 104zm0 0"/><path d="m144.097656 280.199219c-25.472656.019531-50.433594-7.160157-72-20.714844v193.03125l72-44.316406 72 44.316406v-193.03125c-21.566406 13.554687-46.527344 20.734375-72 20.714844zm0 0"/><path d="m160.097656 80.199219h-32v48h-48v32h48v48h32v-48h48v-32h-48zm0 0"/></g><path d="m288.097656 144.199219c.085938-63.320313-41.199218-119.265625-101.726562-137.855469-60.527344-18.585938-126.097656 4.542969-161.5625 56.996094-35.46875 52.457031-32.507813 121.921875 7.289062 171.167968v237.691407c0 2.894531 1.566406 5.5625 4.09375 6.976562 2.527344 1.414063 5.621094 1.351563 8.089844-.164062l99.816406-61.421875 99.816406 61.421875c2.46875 1.515625 5.5625 1.578125 8.089844.164062 2.527344-1.414062 4.09375-4.082031 4.09375-6.976562v-237.691407c20.714844-25.539062 32.015625-57.425781 32-90.308593zm-144-128c70.691406 0 128 57.304687 128 128 0 70.691406-57.308594 128-128 128s-128-57.308594-128-128c.082032-70.660157 57.34375-127.917969 128-128zm-96 235.023437c5.027344 4.582032 10.375 8.800782 16 12.621094v184.195312l-16 9.847657zm91.808594 150.160156-59.808594 36.808594v-165.195312c40.261719 20.257812 87.738282 20.257812 128 0v165.195312l-59.808594-36.800781c-2.570312-1.585937-5.8125-1.589844-8.382812-.007813zm84.191406 46.65625v-184.195312c5.625-3.820312 10.972656-8.039062 16-12.621094v206.664063zm0 0" fill="#1e81ce"/><path d="m144.097656 256.199219c61.855469 0 112-50.144531 112-112 0-61.859375-50.144531-112-112-112-61.855468 0-112 50.140625-112 112 .066406 61.828125 50.171875 111.933593 112 112zm0-208c53.019532 0 96 42.980469 96 96s-42.980468 96-96 96c-53.019531 0-96-42.980469-96-96 .058594-52.996094 43.003906-95.945313 96-96zm0 0" fill="#1e81ce"/><path d="m120.097656 168.199219v40c0 4.417969 3.582032 8 8 8h32c4.417969 0 8-3.582031 8-8v-40h40c4.417969 0 8-3.582031 8-8v-32c0-4.421875-3.582031-8-8-8h-40v-40c0-4.421875-3.582031-8-8-8h-32c-4.417968 0-8 3.578125-8 8v40h-40c-4.417968 0-8 3.578125-8 8v32c0 4.417969 3.582032 8 8 8zm-32-32h40c4.417969 0 8-3.582031 8-8v-40h16v40c0 4.417969 3.582032 8 8 8h40v16h-40c-4.417968 0-8 3.578125-8 8v40h-16v-40c0-4.421875-3.582031-8-8-8h-40zm0 0" fill="#1e81ce"/></svg>