<svg height="480pt" viewBox="-24 0 480 480.00508" width="480pt" xmlns="http://www.w3.org/2000/svg"><path d="m360.003906 176.003906s-62.082031-69.359375-139.601562-71.839844c37.816406 2.527344 67.203125 33.9375 67.203125 71.839844s-29.386719 69.316406-67.203125 71.839844c-1.441406.082031-2.878906.160156-4.398438.160156-1.519531 0-2.960937-.078125-4.402344-.160156-37.816406-2.523438-67.203124-33.9375-67.203124-71.839844s29.386718-69.3125 67.203124-71.839844c-77.519531 2.480469-139.597656 71.839844-139.597656 71.839844s48.238282 53.921875 112.796875 68.402344l-.796875 3.597656v112h-40v56c0 4.417969 3.582032 8 8 8h16v16c0 17.675782 14.324219 32 32 32h32c17.671875 0 32-14.324218 32-32v-16h16c4.417969 0 8-3.582031 8-8v-56h-40v-112l-.800781-3.597656c64.558594-14.480469 112.800781-68.402344 112.800781-68.402344zm0 0" fill="#78b9eb"/><g fill="#006df0"><path d="m392.003906 176.003906c0-48.390625-19.925781-94.648437-55.089844-127.894531-35.164062-33.246094-82.46875-50.546875-130.785156-47.832031-79.371094 4.414062-145.914062 61.515625-162.328125 139.296875-16.414062 77.78125 21.382813 156.90625 92.203125 193.015625v19.414062h-16v16h16v48c0 8.835938 7.160156 16 16 16h8v8c.023438 22.082032 17.917969 39.976563 40 40h32c22.078125-.023437 39.972656-17.917968 40-40v-8h8c8.835938 0 16-7.164062 16-16v-48h16v-16h-16v-19.414062c58.714844-30.1875 95.734375-90.5625 96-156.585938zm-136 264c0 13.257813-10.746094 24-24 24h-32c-13.257812 0-24-10.742187-24-24v-8h16v8h16v-8h48zm24-24h-128v-48h128zm0-240c0 35.347656-28.65625 64-64 64-35.347656 0-64-28.652344-64-64 0-35.34375 28.652344-64 64-64 35.328125.039063 63.957032 28.671875 64 64zm-.800781-48.902344c25.738281 12.367188 49.265625 28.890626 69.640625 48.902344-20.375 20.015625-43.902344 36.535156-69.640625 48.90625 22.441406-28.742187 22.441406-69.070312 0-97.808594zm-143.199219 48.902344c-.007812 17.71875 5.90625 34.933594 16.796875 48.90625-25.722656-12.375-49.238281-28.894531-69.597656-48.90625 20.359375-20.007812 43.875-36.53125 69.597656-48.902344-10.890625 13.972657-16.804687 31.183594-16.796875 48.902344zm71.636719 79.5625c5.558594.585938 11.164063.585938 16.722656 0 5.238281-.304687 10.460938-.878906 15.640625-1.730468v98.167968h-48v-98.167968c5.179688.851562 10.398438 1.425781 15.636719 1.730468zm48.363281 96.4375v-101.597656c62.398438-16.800781 107.6875-66.527344 109.957032-69.066406 2.722656-3.035156 2.722656-7.632813 0-10.671875-2.636719-2.941407-63.445313-69.597657-141.597657-74.222657-5.558593-.585937-11.164062-.585937-16.722656 0-78.148437 4.601563-138.957031 71.28125-141.597656 74.222657-2.71875 3.039062-2.71875 7.636719 0 10.671875 2.273437 2.539062 47.558593 52.265625 109.960937 69.066406v101.597656h-24v-24.382812c-.011718-3.078125-1.78125-5.875-4.5625-7.199219-66.105468-31.300781-102.550781-103.464844-88.496094-175.246094 14.058594-71.777343 75.027344-124.871093 148.058594-128.921875 3.039063-.167968 6.0625-.25 9.085938-.25 88.332031.050782 159.914062 71.671875 159.914062 160-.261718 61.6875-35.789062 117.785156-91.441406 144.394532-2.777344 1.320312-4.550781 4.121093-4.558594 7.199218v24.40625zm0 0"/><path d="m224.003906 200.003906h-16c-4.417968 0-8-3.582031-8-8h-16c0 13.257813 10.742188 24 24 24v8h16v-8c13.253906 0 24-10.742187 24-24 0-13.253906-10.746094-24-24-24h-16c-4.417968 0-8-3.582031-8-8 0-4.417968 3.582032-8 8-8h16c4.417969 0 8 3.582032 8 8h16c0-13.253906-10.746094-24-24-24v-8h-16v8c-13.257812 0-24 10.746094-24 24 0 13.257813 10.742188 24 24 24h16c4.417969 0 8 3.582032 8 8 0 4.417969-3.582031 8-8 8zm0 0"/><path d="m400.003906 320.003906h16v16h-16zm0 0"/><path d="m416.003906 336.003906h16v16h-16zm0 0"/><path d="m400.003906 352.003906h16v16h-16zm0 0"/><path d="m384.003906 336.003906h16v16h-16zm0 0"/><path d="m16.003906 320.003906h16v16h-16zm0 0"/><path d="m32.003906 336.003906h16v16h-16zm0 0"/><path d="m16.003906 352.003906h16v16h-16zm0 0"/><path d="m.00390625 336.003906h15.99999975v16h-15.99999975zm0 0"/><path d="m400.003906 16.003906h16v16h-16zm0 0"/><path d="m416.003906 32.003906h16v16h-16zm0 0"/><path d="m400.003906 48.003906h16v16h-16zm0 0"/><path d="m384.003906 32.003906h16v16h-16zm0 0"/><path d="m16.003906 16.003906h16v16h-16zm0 0"/><path d="m32.003906 32.003906h16v16h-16zm0 0"/><path d="m16.003906 48.003906h16v16h-16zm0 0"/><path d="m.00390625 32.003906h15.99999975v16h-15.99999975zm0 0"/></g></svg>