<svg height="480pt" viewBox="0 0 480 480" width="480pt" xmlns="http://www.w3.org/2000/svg"><path d="m240 40c-110.457031 0-200 89.542969-200 200s89.542969 200 200 200 200-89.542969 200-200c-.125-110.40625-89.59375-199.875-200-200zm0 184c21.1875-.238281 42.039062 5.292969 60.320312 16 21.757813 13.121094 35.679688 33.359375 35.679688 56 0 35.679688-34.558594 65.28125-80 71.039062v40.960938h-32v-40.960938c-45.441406-5.757812-80-35.359374-80-71.039062h32c0 18.878906 26.320312 40 64 40s64-21.121094 64-40-26.320312-40-64-40c-21.1875.238281-42.039062-5.292969-60.320312-16-21.757813-13.121094-35.679688-33.359375-35.679688-56 0-35.679688 34.558594-65.28125 80-71.039062v-40.960938h32v40.960938c45.441406 5.757812 80 35.359374 80 71.039062h-32c0-18.878906-26.320312-40-64-40s-64 21.121094-64 40 26.320312 40 64 40zm0 0" fill="#9bc9ff"/><g fill="#1e81ce"><path d="m240 480c-132.546875 0-240-107.453125-240-240s107.453125-240 240-240 240 107.453125 240 240c-.148438 132.484375-107.515625 239.851562-240 240zm0-464c-123.710938 0-224 100.289062-224 224s100.289062 224 224 224 224-100.289062 224-224c-.140625-123.652344-100.347656-223.859375-224-224zm0 0"/><path d="m240 448c-114.875 0-208-93.125-208-208s93.125-208 208-208 208 93.125 208 208c-.128906 114.820312-93.179688 207.871094-208 208zm0-400c-106.039062 0-192 85.960938-192 192s85.960938 192 192 192 192-85.960938 192-192c-.125-105.988281-86.011719-191.875-192-192zm0 0"/><path d="m256 416h-32c-4.417969 0-8-3.582031-8-8v-34.097656c-46.769531-8.4375-80-40.375-80-77.902344 0-4.417969 3.582031-8 8-8h32c4.417969 0 8 3.582031 8 8 0 13.046875 21.816406 32 56 32s56-18.953125 56-32-21.816406-32-56-32c-22.65625.277344-44.953125-5.65625-64.472656-17.160156-25.128906-15.144532-39.527344-38.039063-39.527344-62.839844 0-37.527344 33.230469-69.464844 80-77.902344v-34.097656c0-4.417969 3.582031-8 8-8h32c4.417969 0 8 3.582031 8 8v34.097656c46.769531 8.4375 80 40.375 80 77.902344 0 4.417969-3.582031 8-8 8h-32c-4.417969 0-8-3.582031-8-8 0-13.046875-21.816406-32-56-32s-56 18.953125-56 32 21.816406 32 56 32c22.65625-.277344 44.953125 5.65625 64.472656 17.160156 25.128906 15.144532 39.527344 38.039063 39.527344 62.839844 0 37.527344-33.230469 69.464844-80 77.902344v34.097656c0 4.417969-3.582031 8-8 8zm-24-16h16v-32.960938c0-4.027343 2.996094-7.425781 6.992188-7.933593 42.304687-5.363281 73.007812-31.90625 73.007812-63.105469 0-19.039062-11.59375-36.960938-31.816406-49.152344-17.050782-9.914062-36.460938-15.042968-56.183594-14.847656-43.070312 0-72-24.800781-72-48s28.929688-48 72-48c38.136719 0 65.175781 19.457031 70.878906 40h16.441406c-4.726562-27.648438-33.6875-50.207031-72.328124-55.105469-3.996094-.507812-6.992188-3.90625-6.992188-7.933593v-32.960938h-16v32.960938c0 4.027343-2.996094 7.425781-6.992188 7.933593-42.304687 5.363281-73.007812 31.90625-73.007812 63.105469 0 19.039062 11.59375 36.960938 31.816406 49.152344 17.050782 9.914062 36.460938 15.042968 56.183594 14.847656 43.070312 0 72 24.800781 72 48s-28.929688 48-72 48c-38.136719 0-65.175781-19.457031-70.878906-40h-16.441406c4.726562 27.648438 33.6875 50.207031 72.328124 55.105469 3.996094.507812 6.992188 3.90625 6.992188 7.933593zm0 0"/></g></svg>