<svg height="480pt" viewBox="-16 0 480 480" width="480pt" xmlns="http://www.w3.org/2000/svg"><path d="m240 8v96h104zm0 0" fill="#78b9eb"/><path d="m432 208h-176c-4.417969 0-8 3.582031-8 8v248c0 4.417969 3.582031 8 8 8h176c4.417969 0 8-3.582031 8-8v-248c0-4.417969-3.582031-8-8-8zm-128 240h-32v-32h32zm0-56h-32v-32h32zm0-56h-32v-32h32zm56 112h-32v-32h32zm0-56h-32v-32h32zm0-56h-32v-32h32zm56 112h-32v-32h32zm0-56h-32v-32h32zm0-56h-32v-32h32zm0-56h-144v-48h144zm0 0" fill="#78b9eb"/><path d="m184 408v32h8v32h-128v-32h-8v-32h24v-32h-16v-32h63.601562c-35.417968-.109375-64.058593-28.882812-64-64.300781.054688-35.417969 28.78125-64.097657 64.199219-64.097657s64.144531 28.679688 64.199219 64.097657-28.582031 64.191406-64 64.300781h64v32h16v32zm0 0" fill="#78b9eb"/><path d="m200 128c0 26.507812-21.492188 48-48 48h-24c0-26.507812 21.492188-48 48-48zm0 0" fill="#78b9eb"/><path d="m128 184h-24c-26.507812 0-48-21.492188-48-48h24c26.507812 0 48 21.492188 48 48zm0 0" fill="#78b9eb"/><g fill="#006df0"><path d="m432 200h-80v-96c0-2.234375-.929688-4.363281-2.566406-5.878906l-104-96c-1.484375-1.359375-3.421875-2.11718775-5.433594-2.121094h-232c-4.417969 0-8 3.582031-8 8v464c0 4.417969 3.582031 8 8 8h424c8.835938 0 16-7.164062 16-16v-248c0-8.835938-7.164062-16-16-16zm-184-173.726562 75.535156 69.726562h-75.535156zm-104 437.726562v-8h-16v8h-32v-8h-16v8h-8v-16h32v8h16v-8h32v8h16v-8h16v16zm-72-184c0-30.929688 25.070312-56 56-56s56 25.070312 56 56-25.070312 56-56 56c-30.914062-.035156-55.964844-25.085938-56-56zm40 80v-8h40v8h16v-8h16v16h-40v-8h-16v8h-56v-16h24v8zm-24 24h32v8h16v-8h32v8h16v-8h16v16h-40v-8h-16v8h-32v-8h-16v8h-8zm8 32v8h16v-8h32v8h16v-8h16v16h-40v-8h-16v8h-32v-8h-16v8h-8v-16zm104 48v-24c0-4.417969-3.582031-8-8-8v-16h16c4.417969 0 8-3.582031 8-8v-32c0-4.417969-3.582031-8-8-8h-8v-24c0-4.417969-3.582031-8-8-8h-18.847656c22.644531-18.210938 32.105468-48.261719 23.976562-76.160156-8.125-27.902344-32.246094-48.167969-61.128906-51.367188v-24.472656h16c30.914062-.035156 55.964844-25.085938 56-56 0-4.417969-3.582031-8-8-8h-24c-21.484375.015625-41.0625 12.316406-50.398438 31.664062-10.46875-14.8125-27.464843-23.632812-45.601562-23.664062h-24c-4.417969 0-8 3.582031-8 8 .035156 30.914062 25.085938 55.964844 56 56h16v16.472656c-28.882812 3.199219-53.003906 23.464844-61.128906 51.367188-8.128906 27.898437 1.332031 57.949218 23.976562 76.160156h-18.847656c-4.417969 0-8 3.582031-8 8v32c0 4.417969 3.582031 8 8 8h8v16h-16c-4.417969 0-8 3.582031-8 8v32c0 4.417969 3.582031 8 8 8v16h-40v-448h216v88c0 4.417969 3.582031 8 8 8h96v88h-80c-8.835938 0-16 7.164062-16 16v248zm-63.199219-296c3.824219-18.613281 20.199219-31.980469 39.199219-32h15.199219c-3.824219 18.613281-20.199219 31.980469-39.199219 32zm-17.601562 8h-15.199219c-19-.019531-35.375-13.386719-39.199219-32h15.199219c19 .019531 35.375 13.386719 39.199219 32zm136.800781 288v-248h176v248zm0 0"/><path d="m416 224h-144c-4.417969 0-8 3.582031-8 8v48c0 4.417969 3.582031 8 8 8h144c4.417969 0 8-3.582031 8-8v-48c0-4.417969-3.582031-8-8-8zm-8 48h-128v-32h128zm0 0"/><path d="m304 352h-32c-4.417969 0-8 3.582031-8 8v32c0 4.417969 3.582031 8 8 8h32c4.417969 0 8-3.582031 8-8v-32c0-4.417969-3.582031-8-8-8zm-8 32h-16v-16h16zm0 0"/><path d="m360 352h-32c-4.417969 0-8 3.582031-8 8v32c0 4.417969 3.582031 8 8 8h32c4.417969 0 8-3.582031 8-8v-32c0-4.417969-3.582031-8-8-8zm-8 32h-16v-16h16zm0 0"/><path d="m416 352h-32c-4.417969 0-8 3.582031-8 8v32c0 4.417969 3.582031 8 8 8h32c4.417969 0 8-3.582031 8-8v-32c0-4.417969-3.582031-8-8-8zm-8 32h-16v-16h16zm0 0"/><path d="m304 296h-32c-4.417969 0-8 3.582031-8 8v32c0 4.417969 3.582031 8 8 8h32c4.417969 0 8-3.582031 8-8v-32c0-4.417969-3.582031-8-8-8zm-8 32h-16v-16h16zm0 0"/><path d="m360 296h-32c-4.417969 0-8 3.582031-8 8v32c0 4.417969 3.582031 8 8 8h32c4.417969 0 8-3.582031 8-8v-32c0-4.417969-3.582031-8-8-8zm-8 32h-16v-16h16zm0 0"/><path d="m416 296h-32c-4.417969 0-8 3.582031-8 8v32c0 4.417969 3.582031 8 8 8h32c4.417969 0 8-3.582031 8-8v-32c0-4.417969-3.582031-8-8-8zm-8 32h-16v-16h16zm0 0"/><path d="m304 408h-32c-4.417969 0-8 3.582031-8 8v32c0 4.417969 3.582031 8 8 8h32c4.417969 0 8-3.582031 8-8v-32c0-4.417969-3.582031-8-8-8zm-8 32h-16v-16h16zm0 0"/><path d="m360 408h-32c-4.417969 0-8 3.582031-8 8v32c0 4.417969 3.582031 8 8 8h32c4.417969 0 8-3.582031 8-8v-32c0-4.417969-3.582031-8-8-8zm-8 32h-16v-16h16zm0 0"/><path d="m416 408h-32c-4.417969 0-8 3.582031-8 8v32c0 4.417969 3.582031 8 8 8h32c4.417969 0 8-3.582031 8-8v-32c0-4.417969-3.582031-8-8-8zm-8 32h-16v-16h16zm0 0"/><path d="m144 264h16c0-13.253906-10.746094-24-24-24v-8h-16v8c-13.253906 0-24 10.746094-24 24s10.746094 24 24 24v16c-4.417969 0-8-3.582031-8-8h-16c0 13.253906 10.746094 24 24 24v8h16v-8c13.253906 0 24-10.746094 24-24s-10.746094-24-24-24v-16c4.417969 0 8 3.582031 8 8zm0 32c0 4.417969-3.582031 8-8 8v-16c4.417969 0 8 3.582031 8 8zm-24-24c-4.417969 0-8-3.582031-8-8s3.582031-8 8-8zm0 0"/><path d="m32 32h48v16h-48zm0 0"/><path d="m32 64h88v16h-88zm0 0"/></g></svg>