<svg height="480pt" viewBox="-8 0 480 480" width="480pt" xmlns="http://www.w3.org/2000/svg"><path d="m344 376h104v96h-104zm0 0" fill="#78b9eb"/><path d="m352 144c-.015625-4.609375-2.03125-8.988281-5.519531-12 5.046875-4.375 6.84375-11.425781 4.511719-17.683594-2.335938-6.257812-8.3125-10.40625-14.992188-10.40625s-12.65625 4.148438-14.992188 10.40625c-2.332031 6.257813-.535156 13.308594 4.511719 17.683594-5.585937 4.84375-7.128906 12.882812-3.726562 19.449219 3.402343 6.566406 10.859375 9.945312 18.039062 8.175781 7.179688-1.769531 12.210938-8.230469 12.167969-15.625zm0 0" fill="#78b9eb"/><path d="m8 8v336h40v-32h160v32h40v-336zm120 48c39.765625 0 72 32.234375 72 72s-32.234375 72-72 72-72-32.234375-72-72 32.234375-72 72-72zm96 224h-192v-32h192zm0 0" fill="#78b9eb"/><g fill="#006df0"><path d="m462.855469 284.121094c.75-1.246094 1.144531-2.667969 1.144531-4.121094v-80c0-2.429688-1.101562-4.730469-3-6.246094l-37.800781-30.242187-15.390625-69.246094c-.8125-3.660156-4.058594-6.265625-7.808594-6.265625h-16v-16c0-4.417969-3.582031-8-8-8h-120v-56c0-4.417969-3.582031-8-8-8h-240c-4.417969 0-8 3.582031-8 8v336c0 4.417969 3.582031 8 8 8h32v120c0 3.234375 1.949219 6.152344 4.9375 7.390625s6.429688.550781 8.71875-1.734375l18.34375-18.34375 18.34375 18.34375c3.125 3.121094 8.1875 3.121094 11.3125 0l18.34375-18.34375 18.34375 18.34375c3.125 3.121094 8.1875 3.121094 11.3125 0l18.34375-18.34375 18.34375 18.34375c3.125 3.121094 8.1875 3.121094 11.3125 0l16-16c1.5-1.5 2.34375-3.535156 2.34375-5.65625v-104h32c4.417969 0 8-3.582031 8-8v-72h89.222656l-1.109375 6.679688c-.078125.4375-.117187.878906-.113281 1.320312v24c0 2.121094.84375 4.15625 2.34375 5.65625l13.65625 13.65625v4.6875h-24c-4.417969 0-8 3.582031-8 8v40c0 4.417969 3.582031 8 8 8v88c0 4.417969 3.582031 8 8 8h104c4.417969 0 8-3.582031 8-8v-88c4.417969 0 8-3.582031 8-8v-40c0-4.417969-3.582031-8-8-8h-16v-5.785156zm-270.855469 176.566406-18.34375-18.34375c-3.125-3.121094-8.1875-3.121094-11.3125 0l-18.34375 18.34375-18.34375-18.34375c-3.125-3.121094-8.1875-3.121094-11.3125 0l-18.34375 18.34375-18.34375-18.34375c-3.125-3.121094-8.1875-3.121094-11.3125 0l-10.34375 10.34375v-132.6875h144v132.6875zm48-124.6875h-24v-16h8v-16h-192v16h8v16h-24v-320h224zm16-80v-176h112v92.257812l-2.878906-2.402343c-3.179688-2.648438-7.851563-2.433594-10.777344.488281l-24 24c-2.816406 2.816406-3.132812 7.269531-.742188 10.457031l21.941407 29.261719-3.65625 21.9375zm184 208h-88v-80h88zm8-96h-104v-24h104zm-72-40v-8c0-2.121094-.84375-4.15625-2.34375-5.65625l-13.65625-13.65625v-20l7.886719-47.34375c.371093-2.164062-.167969-4.386719-1.488281-6.144531l-19.839844-26.445313 13.9375-13.929687 39.503906 32.917969v20.257812h16v-24c0-2.375-1.054688-4.625-2.878906-6.144531l-29.121094-24.253907v-81.601562h9.601562l14.605469 65.734375c.394531 1.78125 1.386719 3.375 2.808594 4.511719l36.984375 29.59375v73.945312l-22.855469 38.09375c-.75 1.246094-1.144531 2.667969-1.144531 4.121094v8zm0 0"/><path d="m264 96h16v144h-16zm0 0"/><path d="m72 336h32v16h-32zm0 0"/><path d="m120 336h64v16h-64zm0 0"/><path d="m72 368h64v16h-64zm0 0"/><path d="m152 368h32v16h-32zm0 0"/><path d="m224 24h-192c-4.417969 0-8 3.582031-8 8v192c0 4.417969 3.582031 8 8 8h192c4.417969 0 8-3.582031 8-8v-192c0-4.417969-3.582031-8-8-8zm-8 192h-176v-176h176zm0 0"/><path d="m128 208c44.183594 0 80-35.816406 80-80s-35.816406-80-80-80-80 35.816406-80 80c.046875 44.164062 35.835938 79.953125 80 80zm0-144c35.347656 0 64 28.652344 64 64s-28.652344 64-64 64-64-28.652344-64-64c.039062-35.328125 28.671875-63.960938 64-64zm0 0"/><path d="m136 152h-16c-4.417969 0-8-3.582031-8-8h-16c0 13.253906 10.746094 24 24 24v8h16v-8c13.253906 0 24-10.746094 24-24s-10.746094-24-24-24h-16c-4.417969 0-8-3.582031-8-8s3.582031-8 8-8h16c4.417969 0 8 3.582031 8 8h16c0-13.253906-10.746094-24-24-24v-8h-16v8c-13.253906 0-24 10.746094-24 24s10.746094 24 24 24h16c4.417969 0 8 3.582031 8 8s-3.582031 8-8 8zm0 0"/><path d="m224 240h-192c-4.417969 0-8 3.582031-8 8v32c0 4.417969 3.582031 8 8 8h192c4.417969 0 8-3.582031 8-8v-32c0-4.417969-3.582031-8-8-8zm-120 16h16v16h-16zm-16 16h-16v-16h16zm48-16h16v16h-16zm32 0h16v16h-16zm-128 0h16v16h-16zm176 16h-16v-16h16zm0 0"/><path d="m360 144c-.003906-4.21875-1.136719-8.363281-3.273438-12 2.136719-3.636719 3.269532-7.78125 3.273438-12 0-13.253906-10.746094-24-24-24s-24 10.746094-24 24c.003906 4.21875 1.136719 8.363281 3.273438 12-2.136719 3.636719-3.269532 7.78125-3.273438 12 0 13.253906 10.746094 24 24 24s24-10.746094 24-24zm-32 0c.015625-2.300781 1.03125-4.484375 2.785156-5.976562 1.738282-1.519532 2.734375-3.714844 2.734375-6.023438s-.996093-4.503906-2.734375-6.023438c-1.753906-1.492187-2.769531-3.675781-2.785156-5.976562 0-4.417969 3.582031-8 8-8s8 3.582031 8 8c-.015625 2.300781-1.03125 4.484375-2.785156 5.976562-1.738282 1.519532-2.734375 3.714844-2.734375 6.023438s.996093 4.503906 2.734375 6.023438c1.753906 1.492187 2.769531 3.675781 2.785156 5.976562 0 4.417969-3.582031 8-8 8s-8-3.582031-8-8zm0 0"/></g></svg>