<svg height="480pt" viewBox="0 -16 480.09311 480" width="480pt" xmlns="http://www.w3.org/2000/svg"><g fill="#78b9eb"><path d="m456.335938 249.648438c-9.144532 8.53125-23.332032 8.53125-32.480469 0l-15.757813 102.398437h64zm0 0"/><path d="m240.097656 8.046875-224 136 224 104 224-104zm23.679688 123.761719c-2.09375 12.640625-13.792969 21.371094-26.507813 19.78125-12.714843-1.589844-21.902343-12.9375-20.816406-25.703125s12.0625-22.394531 24.859375-21.816407c12.800781.582032 22.855469 11.164063 22.785156 23.976563.015625 1.261719-.09375 2.523437-.320312 3.761719zm0 0"/><path d="m104.097656 248.046875c-2.722656 0-5.363281.082031-8 .320313-52.15625 4.265624-91.324218 49.453124-88.144531 101.683593s47.539063 92.332031 99.828125 90.242188c52.285156-2.09375 93.300781-45.609375 92.296875-97.925781-1.003906-52.320313-43.65625-94.230469-95.980469-94.320313zm0 0"/></g><path d="m464.816406 252.121094c6.945313-8.382813 9.097656-19.742188 5.703125-30.085938-3.394531-10.339844-11.863281-18.214844-22.421875-20.851562v-40.886719l19.367188-8.992187c2.679687-1.242188 4.460937-3.859376 4.628906-6.808594.167969-2.949219-1.304688-5.753906-3.828125-7.289063l-224-136c-2.554687-1.546875-5.753906-1.546875-8.304687 0l-224 136c-2.523438 1.535157-3.996094 4.339844-3.832032 7.289063.167969 2.949218 1.949219 5.566406 4.632813 6.808594l75.335937 34.992187v55.113281c-46.367187 7.144532-82.199218 44.46875-87.445312 91.089844s21.390625 90.976562 65.011718 108.25c43.617188 17.273438 93.402344 3.183594 121.496094-34.390625 46.628906 17.523437 98.890625 11.019531 139.804688-17.390625 40.914062-28.410156 65.261718-75.109375 65.132812-124.921875v-77.75l40-18.570313v33.457032c-10.5625 2.636718-19.03125 10.511718-22.425781 20.851562-3.394531 10.34375-1.238281 21.703125 5.703125 30.085938l-15.199219 98.710937c-.355469 2.308594.316407 4.660157 1.839844 6.429688 1.523437 1.773437 3.746094 2.789062 6.082031 2.785156h64c2.332032 0 4.550782-1.019531 6.066406-2.789063 1.519532-1.773437 2.191407-4.117187 1.835938-6.425781zm-224.71875-234.710938 207.03125 125.695313-15.960937 7.414062-159.382813-25.527343c-1.664062-15.871094-14.863281-28.035157-30.820312-28.402344-15.953125-.367188-29.695313 11.175781-32.089844 26.957031-2.390625 15.777344 7.308594 30.875 22.65625 35.257813 15.347656 4.378906 31.554688-3.324219 37.851562-17.988282l135.832032 21.742188-165.117188 76.691406-207.035156-96.144531zm16 110.636719c0 8.839844-7.164062 16-16 16-8.839844 0-16-7.160156-16-16 0-8.835937 7.160156-16 16-16 8.835938 0 16 7.164063 16 16zm-152 304c-48.601562 0-88-39.398437-88-88 0-48.597656 39.398438-88 88-88 48.597656 0 88 39.402344 88 88-.058594 48.578125-39.425781 87.945313-88 88zm272-168c.050782 43.941406-21.152344 85.191406-56.914062 110.71875-35.761719 25.53125-81.660156 32.1875-123.199219 17.867187 17.089844-32.21875 16.035156-71.042968-2.777344-102.289062-18.816406-31.242188-52.636719-50.332031-89.109375-50.296875v-46.320313l132.628906 61.601563c2.136719.992187 4.601563.992187 6.738282 0l132.632812-61.601563zm64-48c8.835938 0 16 7.164063 16 16 0 8.839844-7.164062 16-16 16-8.839844 0-16-7.160156-16-16 0-8.835937 7.160156-16 16-16zm8 128v-56h-16v56h-14.671875l12.574219-81.78125c6.519531 2.378906 13.671875 2.378906 20.191406 0l12.578125 81.78125zm0 0" fill="#006df0"/><path d="m120.097656 304.046875c8.835938 0 16 7.164063 16 16h16c0-17.671875-14.328125-32-32-32h-8v-16h-16v16h-8c-17.675781 0-32 14.328125-32 32 0 17.675781 14.324219 32 32 32h8v32h-8c-8.839844 0-16-7.160156-16-16h-16c0 17.675781 14.324219 32 32 32h8v16h16v-16h8c17.671875 0 32-14.324219 32-32 0-17.671875-14.328125-32-32-32h-8v-32zm0 48c8.835938 0 16 7.164063 16 16 0 8.839844-7.164062 16-16 16h-8v-32zm-24-16h-8c-8.839844 0-16-7.160156-16-16 0-8.835937 7.160156-16 16-16h8zm0 0" fill="#006df0"/></svg>