<svg height="481pt" viewBox="0 0 481 481.12006" width="481pt" xmlns="http://www.w3.org/2000/svg"><path d="m240.058594 368c-57.4375.140625-107.972656-37.914062-123.707032-93.160156-15.734374-55.242188 7.167969-114.210938 56.0625-144.359375 48.894532-30.144531 111.867188-24.121094 154.15625 14.75 42.292969 38.871093 53.597657 101.109375 27.671876 152.371093l41.019531 41.046876c12.960937-20.285157 21.773437-42.9375 25.917969-66.648438h50.878906v-64h-50.878906c-4.574219-26.429688-14.957032-51.511719-30.398438-73.441406l35.917969-36-45.199219-45.199219-36 35.921875c-21.929688-15.445312-47.011719-25.828125-73.441406-30.402344v-50.878906h-64v50.878906c-26.425782 4.574219-51.511719 14.957032-73.4375 30.402344l-36-35.921875-45.199219 45.199219 35.917969 36c-15.445313 21.929687-25.828125 47.011718-30.398438 73.441406h-50.882812v64h50.882812c4.570313 26.429688 14.953125 51.511719 30.398438 73.441406l-35.917969 36 45.199219 45.199219 36-35.921875c21.925781 15.445312 47.011718 25.828125 73.4375 30.402344v50.878906h64v-50.878906c6.496094-1.136719 12.929687-2.625 19.265625-4.449219 16.71875-4.867187 32.640625-12.128906 47.28125-21.558594l-40.945313-40.929687c-17.84375 9.074218-37.582031 13.808594-57.601562 13.816406zm0 0" fill="#9bc9ff"/><g fill="#1e81ce"><path d="m272.058594 480h-64c-4.417969 0-8-3.582031-8-8v-44.265625c-22.941406-4.859375-44.792969-13.910156-64.453125-26.695313l-31.335938 31.265626c-3.125 3.117187-8.183593 3.117187-11.304687 0l-45.199219-45.199219c-3.121094-3.125-3.121094-8.183594 0-11.304688l31.261719-31.335937c-12.785156-19.664063-21.839844-41.519532-26.703125-64.464844h-44.265625c-4.417969 0-8.0000002-3.582031-8.0000002-8v-64c0-4.417969 3.5820312-8 8.0000002-8h44.265625c4.863281-22.941406 13.914062-44.792969 26.695312-64.457031l-31.261719-31.335938c-3.121093-3.121093-3.121093-8.179687 0-11.304687l45.199219-45.199219c3.121094-3.117187 8.179688-3.117187 11.304688 0l31.335937 31.265625c19.664063-12.789062 41.515625-21.839844 64.460938-26.703125v-44.265625c0-4.417969 3.582031-8 8-8h64c4.417968 0 8 3.582031 8 8v44.265625c22.945312 4.859375 44.792968 13.910156 64.457031 26.695313l31.335937-31.265626c3.125-3.117187 8.179688-3.117187 11.304688 0l45.199219 45.199219c3.117187 3.125 3.117187 8.183594 0 11.304688l-31.253907 31.34375c12.78125 19.664062 21.832032 41.515625 26.695313 64.457031h44.261719c4.417968 0 8 3.582031 8 8v64c0 4.417969-3.582032 8-8 8h-44.261719c-2.59375 12.371094-6.425781 24.445312-11.441406 36.046875-1.773438 4.019531-6.457031 5.855469-10.488281 4.113281-4.035157-1.742187-5.910157-6.410156-4.199219-10.457031 5.40625-12.511719 9.3125-25.621094 11.632812-39.054687.65625-3.839844 3.984375-6.644532 7.878907-6.648438h42.878906v-48h-42.878906c-3.894532-.003906-7.222657-2.808594-7.878907-6.648438-4.417969-25.234374-14.34375-49.1875-29.074219-70.152343-2.234374-3.179688-1.859374-7.507813.890626-10.253907l30.277343-30.335937-33.902343-33.90625-30.335938 30.28125c-2.75 2.746094-7.074219 3.121094-10.257812.886719-20.972657-14.734375-44.941407-24.660156-70.191407-29.070313-3.851562-.660156-6.664062-4.011719-6.648437-7.921875v-42.878906h-48v42.878906c0 3.894532-2.808594 7.222656-6.648438 7.882813-25.234375 4.414062-49.1875 14.34375-70.148437 29.070312-3.183594 2.234375-7.507813 1.859375-10.257813-.886719l-30.335937-30.28125-33.902344 33.902344 30.277344 30.335938c2.75 2.75 3.125 7.078125.890625 10.257812-14.734375 20.976563-24.660156 44.941406-29.074219 70.191406-.660156 3.855469-4.007813 6.664063-7.917969 6.648438h-42.882812v48h42.882812c3.894532.003906 7.21875 2.808594 7.878906 6.648438 4.410157 25.25 14.339844 49.214843 29.070313 70.191406 2.238281 3.179687 1.863281 7.507812-.886719 10.257812l-30.28125 30.335938 33.90625 33.902344 30.335938-30.28125c2.75-2.746094 7.074218-3.121094 10.253906-.886719 20.976562 14.734375 44.941406 24.660156 70.191406 29.070312 3.839844.660157 6.648438 3.988281 6.648438 7.882813v42.878906h48v-42.878906c.003906-3.894532 2.804687-7.21875 6.640625-7.882813 13.097656-2.25 25.894531-6.007812 38.128906-11.199219 4.066406-1.726562 8.765625.167969 10.492187 4.238282 1.726563 4.066406-.167968 8.761718-4.234374 10.492187-11.292969 4.78125-23.023438 8.457031-35.027344 10.964844v44.265625c0 4.417969-3.582032 8-8 8zm0 0"/><path d="m240.058594 376c-58.03125-.050781-109.625-36.953125-128.429688-91.855469-18.800781-54.902343-.660156-115.6875 45.15625-151.304687 45.820313-35.617188 109.199219-38.203125 157.769532-6.4375 48.566406 31.761718 71.601562 90.863281 57.335937 147.117187-.625 2.851563-2.75 5.136719-5.550781 5.960938-2.800782.824219-5.828125.058593-7.898438-1.996094-2.070312-2.058594-2.859375-5.078125-2.054687-7.882813 13.203125-52.136718-9.9375-106.679687-56.597657-133.417968-46.65625-26.742188-105.414062-19.132813-143.722656 18.613281-38.308594 37.742187-46.789062 96.382813-20.746094 143.433594 26.046876 47.050781 80.238282 70.996093 132.5625 58.570312 4.300782-1.015625 8.613282 1.644531 9.628907 5.945313 1.015625 4.304687-1.648438 8.613281-5.949219 9.628906-10.324219 2.425781-20.894531 3.640625-31.503906 3.625zm0 0"/><path d="m433.195312 481.121094c-12.726562.019531-24.941406-5.035156-33.933593-14.042969l-147.808594-147.804687-38.234375 3.046874c-2.335938.179688-4.632812-.667968-6.292969-2.320312l-59.90625-59.902344c-1.871093-1.871094-2.699219-4.546875-2.207031-7.144531l9-47.578125c.550781-2.910156 2.667969-5.277344 5.5-6.152344 2.832031-.871094 5.914062-.109375 8.011719 1.984375l50.625 50.625 31.480469-2.464843 2.460937-31.480469-50.621094-50.621094c-2.09375-2.097656-2.859375-5.179687-1.984375-8.011719.871094-2.832031 3.238282-4.949218 6.152344-5.5l47.574219-9c2.601562-.492187 5.273437.335938 7.144531 2.207032l59.902344 59.902343c1.660156 1.65625 2.507812 3.960938 2.320312 6.296875l-3.046875 38.230469 147.808594 147.808594c13.710937 13.730469 17.808594 34.367187 10.382813 52.296875-7.429688 17.925781-24.921876 29.617187-44.328126 29.625zm-178.695312-178.121094c2.121094 0 4.15625.84375 5.65625 2.34375l150.398438 150.398438c12.671874 12.082031 32.59375 12.082031 45.265624 0 12.503907-12.496094 12.503907-32.765626 0-45.261719l-150.398437-150.402344c-1.660156-1.65625-2.507813-3.957031-2.320313-6.292969l3.046876-38.234375-54.304688-54.3125-28.542969 5.402344 42.527344 42.527344c1.652344 1.652343 2.5 3.949219 2.320313 6.28125l-3.289063 41.992187c-.304687 3.925782-3.425781 7.042969-7.351563 7.351563l-41.976562 3.277343c-2.332031.183594-4.625-.664062-6.277344-2.316406l-42.539062-42.554687-5.398438 28.542969 54.3125 54.304687 38.230469-3.046875c.214844.007812.425781 0 .640625 0zm0 0"/><path d="m432.058594 456c-13.253906 0-24-10.746094-24-24s10.746094-24 24-24c13.257812 0 24 10.746094 24 24s-10.742188 24-24 24zm0-32c-4.417969 0-8 3.582031-8 8s3.582031 8 8 8c4.417968 0 8-3.582031 8-8s-3.582032-8-8-8zm0 0"/></g></svg>