<svg height="480pt" viewBox="0 0 480 480" width="480pt" xmlns="http://www.w3.org/2000/svg"><path d="m8 104h464v-96h-464zm400-64h32v32h-32zm-64 0h32v32h-32zm-64 0h32v32h-32zm0 0" fill="#9bc9ff"/><g fill="#1e81ce"><path d="m472 0h-464c-4.417969 0-8 3.582031-8 8v464c0 4.417969 3.582031 8 8 8h464c4.417969 0 8-3.582031 8-8v-464c0-4.417969-3.582031-8-8-8zm-456 16h448v80h-448zm448 448h-448v-352h448zm0 0"/><path d="m440 80h-32c-4.417969 0-8-3.582031-8-8v-32c0-4.417969 3.582031-8 8-8h32c4.417969 0 8 3.582031 8 8v32c0 4.417969-3.582031 8-8 8zm-24-16h16v-16h-16zm0 0"/><path d="m376 80h-32c-4.417969 0-8-3.582031-8-8v-32c0-4.417969 3.582031-8 8-8h32c4.417969 0 8 3.582031 8 8v32c0 4.417969-3.582031 8-8 8zm-24-16h16v-16h-16zm0 0"/><path d="m312 80h-32c-4.417969 0-8-3.582031-8-8v-32c0-4.417969 3.582031-8 8-8h32c4.417969 0 8 3.582031 8 8v32c0 4.417969-3.582031 8-8 8zm-24-16h16v-16h-16zm0 0"/><path d="m160 368c-1.730469 0-3.414062-.5625-4.800781-1.601562l-96-72c-2.011719-1.507813-3.199219-3.878907-3.199219-6.398438s1.1875-4.890625 3.199219-6.398438l96-72c3.535156-2.652343 8.550781-1.9375 11.199219 1.597657 2.652343 3.535156 1.9375 8.550781-1.597657 11.199219l-87.464843 65.601562 87.464843 65.601562c2.753907 2.066407 3.878907 5.660157 2.789063 8.929688-1.089844 3.265625-4.144532 5.46875-7.589844 5.46875zm0 0"/><path d="m320 368c-3.445312 0-6.5-2.203125-7.589844-5.46875-1.089844-3.269531.035156-6.863281 2.789063-8.929688l87.464843-65.601562-87.464843-65.601562c-3.535157-2.648438-4.25-7.664063-1.597657-11.199219 2.648438-3.535157 7.664063-4.25 11.199219-1.597657l96 72c2.011719 1.507813 3.199219 3.878907 3.199219 6.398438s-1.1875 4.890625-3.199219 6.398438l-96 72c-1.382812 1.042968-3.070312 1.605468-4.800781 1.601562zm0 0"/><path d="m192 432c-2.597656 0-5.03125-1.261719-6.53125-3.378906-1.5-2.121094-1.878906-4.835938-1.011719-7.285156l96-272c1.46875-4.167969 6.039063-6.351563 10.207031-4.878907 4.167969 1.46875 6.351563 6.039063 4.878907 10.207031l-96 272c-1.128907 3.199219-4.152344 5.335938-7.542969 5.335938zm0 0"/></g></svg>