<svg height="480pt" viewBox="-28 0 480 480" width="480pt" xmlns="http://www.w3.org/2000/svg"><path d="m336 280v16h-48v160h48v16h80v-192zm40 64c-8.835938 0-16-7.164062-16-16s7.164062-16 16-16 16 7.164062 16 16c-.027344 8.824219-7.175781 15.972656-16 16zm0 0" fill="#78b9eb"/><path d="m88 168h-56c0 44.160156 27.839844 80 72 80h64c0-44.183594-35.816406-80-80-80zm0 0" fill="#78b9eb"/><path d="m104 8-48 48 112 88 112-88-48-48zm0 0" fill="#78b9eb"/><g fill="#006df0"><path d="m416 272h-80c-4.417969 0-8 3.582031-8 8v8h-40c-4.417969 0-8 3.582031-8 8v8h-13.191406l-37.808594-30.246094c-1.417969-1.136718-3.183594-1.753906-5-1.753906h-48v-124.113281l108.945312-85.597657c1.796876-1.414062 2.902344-3.53125 3.039063-5.8125.136719-2.285156-.710937-4.515624-2.328125-6.132812l-48-48c-1.5-1.5-3.535156-2.34375-5.65625-2.34375h-128c-2.121094 0-4.15625.84375-5.65625 2.34375l-48 48c-1.617188 1.617188-2.464844 3.847656-2.328125 6.132812.136719 2.28125 1.242187 4.398438 3.039063 5.8125l108.945312 85.597657v49.714843c-16.425781-23.535156-43.300781-37.570312-72-37.601562h-56c-4.417969 0-8 3.582031-8 8 0 50.992188 33.648438 88 80 88h56v16h-48c-13.253906 0-24 10.746094-24 24v128c0 13.253906 10.746094 24 24 24h168v8c0 4.417969 3.582031 8 8 8h40v8c0 4.417969 3.582031 8 8 8h80c4.417969 0 8-3.582031 8-8v-192c0-4.417969-3.582031-8-8-8zm-159.128906-208-71.886719 56.480469 20.367187-56.480469zm-42.117188-16 18.460938-27.472656 27.472656 27.472656zm-19.28125 0h-55.617187l-21.023438-32h98.152344zm-7.128906 16-20.433594 56.65625-20.894531-56.65625zm-67.632812-16h-45.398438l27.390625-27.390625zm9.25 16 20.742187 56.238281-71.574219-56.238281zm-89.640626 112h47.679688c33.488281.054688 62.523438 23.164062 70.097656 55.785156l-33.65625-22.402344-8.882812 13.3125 26.042968 17.304688h-37.601562c-35.265625 0-60.566406-25.929688-63.679688-64zm151.679688 156v-44h24v44c0 6.628906-5.371094 12-12 12s-12-5.371094-12-12zm-32 100h-48c-4.417969 0-8-3.582031-8-8v-128c0-4.417969 3.582031-8 8-8h64v24h-16v16h16v4c.003906 7.535156 3.054688 14.75 8.464844 20h-24.464844v16h28c6.628906 0 12 5.371094 12 12s-5.371094 12-12 12h-28v16h28c6.628906 0 12 5.371094 12 12s-5.371094 12-12 12zm53.191406 0c5.269532-10.761719 2.984375-23.695312-5.65625-32 5.476563-5.300781 8.539063-12.621094 8.464844-20.246094-.074219-7.621094-3.277344-14.878906-8.855469-20.074218 14.113281-1.570313 24.808594-13.476563 24.855469-27.679688v-35.351562l27 21.597656c1.417969 1.136718 3.183594 1.753906 5 1.753906h16v112zm82.808594 16v-144h32v144zm112 16h-64v-176h64zm0 0"/><path d="m376 352c13.253906 0 24-10.746094 24-24s-10.746094-24-24-24-24 10.746094-24 24 10.746094 24 24 24zm0-32c4.417969 0 8 3.582031 8 8s-3.582031 8-8 8-8-3.582031-8-8 3.582031-8 8-8zm0 0"/><path d="m16 80h16v16h-16zm0 0"/><path d="m32 96h16v16h-16zm0 0"/><path d="m0 96h16v16h-16zm0 0"/><path d="m16 112h16v16h-16zm0 0"/><path d="m304 80h16v16h-16zm0 0"/><path d="m320 96h16v16h-16zm0 0"/><path d="m288 96h16v16h-16zm0 0"/><path d="m304 112h16v16h-16zm0 0"/></g></svg>