<svg height="480pt" viewBox="0 0 480 480.00316" width="480pt" xmlns="http://www.w3.org/2000/svg"><path d="m423.917969 134.71875c-.699219-43.683594-36.3125-78.726562-80-78.71875-6.554688-.023438-13.085938.785156-19.4375 2.398438-16.796875-31.050782-49.257813-50.398438-84.5625-50.398438-35.300781 0-67.765625 19.347656-84.558594 50.398438-6.351563-1.613282-12.886719-2.421876-19.441406-2.398438-43.6875-.007812-79.300781 35.035156-80 78.71875-34.664063 15.183594-53.949219 52.582031-46.214844 89.628906s40.371094 63.605469 78.214844 63.652344h96v-152h112v152h96c37.847656-.046875 70.484375-26.605469 78.21875-63.652344s-11.550781-74.445312-46.21875-89.628906zm0 0" fill="#9bc9ff"/><path d="m431.695312 129.535156c-1.851562-24.839844-14.132812-47.730468-33.804687-63.011718-19.667969-15.28125-44.886719-21.519532-69.410156-17.171876-18.980469-30.679687-52.484375-49.351562-88.5625-49.351562-36.074219 0-69.578125 18.671875-88.558594 49.351562-24.523437-4.34375-49.738281 1.894532-69.40625 17.175782-19.664063 15.28125-31.941406 38.171875-33.792969 63.007812-36.285156 18.425782-55.203125 59.324219-45.75 98.90625 9.453125 39.582032 44.8125 67.519532 85.507813 67.558594h88v32h-56c-3.144531-.003906-6 1.839844-7.292969 4.707031-1.296875 2.867188-.789062 6.230469 1.292969 8.585938l120 136c1.519531 1.722656 3.707031 2.710937 6 2.710937 2.296875 0 4.484375-.988281 6-2.710937l120-136c2.085937-2.355469 2.589843-5.71875 1.296875-8.585938-1.292969-2.867187-4.148438-4.710937-7.296875-4.707031h-56v-32h88c40.699219-.03125 76.066406-27.964844 85.527343-67.550781 9.457032-39.582031-9.460937-80.488281-45.75-98.914063zm-89.503906 214.464844-102.273437 115.910156-102.269531-115.910156h46.269531c4.417969 0 8-3.582031 8-8v-192h96v192c0 4.417969 3.582031 8 8 8zm49.726563-64h-88v-144c0-4.417969-3.582031-8-8-8h-112c-4.417969 0-8 3.582031-8 8v144h-88c-34.058594-.042969-63.433594-23.945312-70.394531-57.289062-6.960938-33.339844 10.394531-67 41.597656-80.664063 2.871094-1.253906 4.746094-4.066406 4.796875-7.199219.816406-39.234375 32.757812-70.667968 72-70.847656 5.886719-.019531 11.753906.703125 17.457031 2.152344 3.558594.910156 7.277344-.714844 9.023438-3.945313 15.398437-28.46875 45.160156-46.207031 77.523437-46.207031 32.367187 0 62.128906 17.738281 77.527344 46.207031 1.742187 3.226563 5.460937 4.851563 9.015625 3.945313 5.703125-1.449219 11.570312-2.171875 17.453125-2.152344 39.242187.179688 71.1875 31.613281 72 70.847656.054687 3.132813 1.929687 5.945313 4.800781 7.199219 31.199219 13.664063 48.558594 47.324219 41.597656 80.664063-6.960937 33.34375-36.335937 57.246093-70.398437 57.289062zm0 0" fill="#1e81ce"/></svg>