<svg height="480pt" viewBox="-28 0 480 480.00699" width="480pt" xmlns="http://www.w3.org/2000/svg"><path d="m240.003906 80.007812c0 39.765626-32.234375 72-72 72s-72-32.234374-72-72c0-39.765624 32.234375-72 72-72s72 32.234376 72 72zm0 0" fill="#78b9eb"/><path d="m88.003906 168.007812h-56c0 44.160157 27.839844 80 72 80h64c0-44.183593-35.816406-80-80-80zm0 0" fill="#78b9eb"/><path d="m336.003906 280.007812v16h-48v160h48v16h80v-192zm40 64c-8.835937 0-16-7.164062-16-16 0-8.835937 7.164063-16 16-16 8.835938 0 16 7.164063 16 16-.027344 8.824219-7.175781 15.972657-16 16zm0 0" fill="#78b9eb"/><g fill="#006df0"><path d="m176.003906 128.007812v-8c13.253906 0 24-10.746093 24-24 0-13.253906-10.746094-24-24-24h-16c-4.417968 0-8-3.582031-8-8 0-4.417968 3.582032-8 8-8h16c4.417969 0 8 3.582032 8 8h16c0-13.253906-10.746094-24-24-24v-8h-16v8c-13.253906 0-24 10.746094-24 24 0 13.253907 10.746094 24 24 24h16c4.417969 0 8 3.582032 8 8 0 4.417969-3.582031 8-8 8h-16c-4.417968 0-8-3.582031-8-8h-16c0 13.253907 10.746094 24 24 24v8zm0 0"/><path d="m416.003906 272.007812h-80c-4.417968 0-8 3.582032-8 8v8h-40c-4.417968 0-8 3.582032-8 8v8h-13.191406l-37.808594-30.25c-1.417968-1.132812-3.183594-1.75-5-1.75h-48v-112.410156c42.410156-4.261718 74.035156-41.03125 71.898438-83.601562-2.132813-42.574219-37.273438-75.996094-79.898438-75.996094s-77.765625 33.421875-79.898437 75.996094c-2.136719 42.570312 29.484375 79.339844 71.898437 83.601562v38.007813c-16.425781-23.53125-43.300781-37.566407-72-37.597657h-56c-4.417968 0-8 3.582032-8 8 0 50.992188 33.648438 88 80 88h56v16h-48c-13.253906 0-24 10.746094-24 24v128c0 13.253907 10.746094 24 24 24h168v8c0 4.417969 3.582032 8 8 8h40v8c0 4.417969 3.582032 8 8 8h80c4.417969 0 8-3.582031 8-8v-192c0-4.417968-3.582031-8-8-8zm-312-192c0-35.347656 28.652344-64 64-64s64 28.652344 64 64c0 35.34375-28.652344 64-64 64-35.332031-.039062-63.960937-28.671874-64-64zm-63.679687 96h47.679687c33.484375.054688 62.523438 23.164063 70.09375 55.78125l-33.652344-22.398437-8.882812 13.3125 26.039062 17.304687h-37.597656c-35.265625 0-60.570312-25.929687-63.679687-64zm151.679687 156v-44h24v44c0 6.625-5.371094 12-12 12s-12-5.375-12-12zm-80 100c-4.417968 0-8-3.582031-8-8v-128c0-4.417968 3.582032-8 8-8h64v24h-16v16h16v4c0 7.535157 3.054688 14.75 8.464844 20h-24.464844v16h28c6.628906 0 12 5.371094 12 12 0 6.625-5.371094 12-12 12h-28v16h28c6.628906 0 12 5.371094 12 12 0 6.625-5.371094 12-12 12zm101.191406 0c5.269532-10.761718 2.984376-23.695312-5.65625-32 5.476563-5.304687 8.539063-12.621093 8.464844-20.246093-.074218-7.621094-3.277344-14.878907-8.855468-20.074219 14.113281-1.570312 24.808593-13.476562 24.855468-27.679688v-35.351562l27 21.597656c1.417969 1.136719 3.183594 1.753906 5 1.753906h16v112zm82.808594 16v-144h32v144zm112 16h-64v-176h64zm0 0"/><path d="m376.003906 352.007812c13.253906 0 24-10.746093 24-24 0-13.253906-10.746094-24-24-24s-24 10.746094-24 24c0 13.253907 10.746094 24 24 24zm0-32c4.417969 0 8 3.582032 8 8 0 4.417969-3.582031 8-8 8-4.417968 0-8-3.582031-8-8 0-4.417968 3.582032-8 8-8zm0 0"/><path d="m16.003906 56.007812h16v16h-16zm0 0"/><path d="m32.003906 72.007812h16v16h-16zm0 0"/><path d="m.00390625 72.007812h15.99999975v16h-15.99999975zm0 0"/><path d="m16.003906 88.007812h16v16h-16zm0 0"/><path d="m304.003906 56.007812h16v16h-16zm0 0"/><path d="m320.003906 72.007812h16v16h-16zm0 0"/><path d="m288.003906 72.007812h16v16h-16zm0 0"/><path d="m304.003906 88.007812h16v16h-16zm0 0"/></g></svg>