<svg height="481pt" viewBox="0 -1 481.448 481" width="481pt" xmlns="http://www.w3.org/2000/svg"><path d="m424.960938 136.015625h-336.960938l32 192h320l32-192zm0 0" fill="#9bc9ff"/><path d="m200 472.015625c26.507812 0 48-21.488281 48-48 0-26.507813-21.492188-48-48-48s-48 21.492187-48 48c0 26.511719 21.492188 48 48 48zm0-64c8.835938 0 16 7.164063 16 16s-7.164062 16-16 16-16-7.164063-16-16 7.164062-16 16-16zm0 0" fill="#9bc9ff"/><path d="m360 472.015625c26.507812 0 48-21.488281 48-48 0-26.507813-21.492188-48-48-48s-48 21.492187-48 48c0 26.511719 21.492188 48 48 48zm0-64c8.835938 0 16 7.164063 16 16s-7.164062 16-16 16-16-7.164063-16-16 7.164062-16 16-16zm0 0" fill="#9bc9ff"/><g fill="#1e81ce"><path d="m124.945312 336.015625h321.832032l34.671875-208h-53.175781l-127.792969-127.792969-127.792969 127.792969h-77.910156l-12.65625-75.945313c-1.902344-11.585937-11.929688-20.082031-23.671875-20.054687h-58.449219v16h58.449219c3.910156.003906 7.246093 2.832031 7.886719 6.6875l12.214843 73.3125 33.128907 198.746094-35.253907 70.519531c-3.722656 7.4375-3.328125 16.273438 1.046875 23.351562 4.371094 7.074219 12.097656 11.382813 20.414063 11.382813h46.753906c3.953125 27.535156 27.542969 47.976563 55.359375 47.976563s51.40625-20.441407 55.359375-47.976563h49.28125c4.195313 29.070313 30.140625 49.960937 59.433594 47.855469 29.296875-2.101563 51.992187-26.484375 51.992187-55.855469s-22.695312-53.753906-51.992187-55.855469c-29.292969-2.105468-55.238281 18.785156-59.433594 47.855469h-49.28125c-3.953125-27.535156-27.542969-47.976563-55.359375-47.976563s-51.40625 20.441407-55.359375 47.976563h-46.753906c-2.769531 0-5.34375-1.4375-6.800781-3.792969-1.457032-2.359375-1.589844-5.304687-.351563-7.78125zm175.535157-313.167969 105.167969 105.167969h-210.335938zm162.070312 121.167969-29.328125 176h-306.445312l-29.328125-176zm-102.550781 240c22.089844 0 40 17.910156 40 40s-17.910156 40-40 40-40-17.910156-40-40c.027344-22.078125 17.917969-39.972656 40-40zm-160 0c22.089844 0 40 17.910156 40 40s-17.910156 40-40 40-40-17.910156-40-40c.027344-22.078125 17.917969-39.972656 40-40zm0 0"/><path d="m144 176.015625h272v16h-272zm0 0"/><path d="m160 224.015625h240v16h-240zm0 0"/><path d="m176 272.015625h208v16h-208zm0 0"/><path d="m200 448.015625c13.253906 0 24-10.746094 24-24s-10.746094-24-24-24-24 10.746094-24 24 10.746094 24 24 24zm0-32c4.417969 0 8 3.582031 8 8s-3.582031 8-8 8-8-3.582031-8-8 3.582031-8 8-8zm0 0"/><path d="m360 448.015625c13.253906 0 24-10.746094 24-24s-10.746094-24-24-24-24 10.746094-24 24 10.746094 24 24 24zm0-32c4.417969 0 8 3.582031 8 8s-3.582031 8-8 8-8-3.582031-8-8 3.582031-8 8-8zm0 0"/></g></svg>