<svg height="480pt" viewBox="0 0 480 480" width="480pt" xmlns="http://www.w3.org/2000/svg"><path d="m360 424c0 8.835938-7.164062 16-16 16s-16-7.164062-16-16 7.164062-16 16-16 16 7.164062 16 16zm0 0" fill="#78b9eb"/><path d="m152 424c0 8.835938-7.164062 16-16 16s-16-7.164062-16-16 7.164062-16 16-16 16 7.164062 16 16zm0 0" fill="#78b9eb"/><path d="m24 256 32 168h32c0-26.507812 21.492188-48 48-48s48 21.492188 48 48h112c0-26.507812 21.492188-48 48-48s48 21.492188 48 48h32l32-168zm0 0" fill="#78b9eb"/><path d="m144 152h56l-16 72h112l-16-72h56l-16 72h112l-16-72h-48l-16-72h-56l-16-72h-80l-16 72h-56l-16 72h-48l-16 72h112zm128-72-16 72h-32l-16-72zm0 0" fill="#78b9eb"/><g fill="#006df0"><path d="m472 216h-33.601562l-14.597657-65.734375c-.8125-3.660156-4.054687-6.261719-7.800781-6.265625h-41.601562l-14.597657-65.734375c-.8125-3.660156-4.054687-6.261719-7.800781-6.265625h-49.601562l-14.582032-65.734375c-.816406-3.664063-4.066406-6.26953125-7.816406-6.265625h-80c-3.75-.00390625-7 2.601562-7.816406 6.265625l-14.582032 65.734375h-49.601562c-3.75-.003906-7 2.601562-7.816406 6.265625l-14.582032 65.734375h-41.601562c-3.75-.003906-7 2.601562-7.816406 6.265625l-14.582032 65.734375h-33.601562c-4.417969 0-8 3.582031-8 8v32c0 4.417969 3.582031 8 8 8h9.375l30.769531 161.496094c.71875 3.773437 4.015625 6.503906 7.855469 6.503906h24.640625c3.953125 27.535156 27.542969 47.976562 55.359375 47.976562s51.40625-20.441406 55.359375-47.976562h97.28125c3.953125 27.535156 27.542969 47.976562 55.359375 47.976562s51.40625-20.441406 55.359375-47.976562h24.640625c3.839844 0 7.136719-2.730469 7.855469-6.503906l30.769531-161.496094h9.375c4.417969 0 8-3.582031 8-8v-32c0-4.417969-3.582031-8-8-8zm-49.976562 0h-92.046876l12.421876-56h67.203124zm-119.625 0-12.4375-56h36.046874l-12.40625 56zm-136 0-12.4375-56h36.046874l-12.40625 56zm40-56h67.203124l12.4375 56h-92.0625zm24-16-12.4375-56h44.046874l-12.40625 56zm127.609374 0h-92.03125l12.421876-56h67.203124zm-151.609374-128h67.203124l12.4375 56h-92.0625zm-72 72h67.203124l12.4375 56h-92.0625zm-64 72h67.203124l12.4375 56h-92.0625zm65.601562 304c-22.089844 0-40-17.910156-40-40s17.910156-40 40-40 40 17.910156 40 40c-.027344 22.082031-17.917969 39.972656-40 40zm208 0c-22.089844 0-40-17.910156-40-40s17.910156-40 40-40 40 17.910156 40 40c-.027344 22.082031-17.917969 39.972656-40 40zm73.382812-48h-18.023437c-3.953125-27.535156-27.542969-47.976562-55.359375-47.976562s-51.40625 20.441406-55.359375 47.976562h-97.28125c-3.953125-27.535156-27.542969-47.976562-55.359375-47.976562s-51.40625 20.441406-55.359375 47.976562h-18.023437l-28.953126-152h412.671876zm46.617188-168h-448v-16h448zm0 0"/><path d="m344 400c-13.253906 0-24 10.746094-24 24s10.746094 24 24 24 24-10.746094 24-24-10.746094-24-24-24zm0 32c-4.417969 0-8-3.582031-8-8s3.582031-8 8-8 8 3.582031 8 8-3.582031 8-8 8zm0 0"/><path d="m136 400c-13.253906 0-24 10.746094-24 24s10.746094 24 24 24 24-10.746094 24-24-10.746094-24-24-24zm0 32c-4.417969 0-8-3.582031-8-8s3.582031-8 8-8 8 3.582031 8 8-3.582031 8-8 8zm0 0"/><path d="m80 168h16v16h-16zm0 0"/><path d="m144 96h16v16h-16zm0 0"/><path d="m216 24h16v16h-16zm0 0"/><path d="m216 168h16v16h-16zm0 0"/><path d="m288 96h16v16h-16zm0 0"/><path d="m352 168h16v16h-16zm0 0"/></g></svg>