<svg height="482pt" viewBox="-1 0 482 482.04" width="482pt" xmlns="http://www.w3.org/2000/svg"><g fill="#9bc9ff"><path d="m56.019531 149.640625-48 36.398437 48 36.402344zm0 0"/><path d="m240.019531 10.039062-52.71875 40h105.4375zm0 0"/><path d="m282.1875 330.046875 189.832031 143.992187v-288l-48 36.402344zm0 0"/><path d="m472.019531 186.039062-48-36.398437v72.800781zm0 0"/><path d="m56.019531 222.441406-48-36.402344v288l189.832031-143.992187zm0 0"/><path d="m282.1875 330.046875-42.167969 31.992187-42.167969-31.992187-189.832031 143.992187h464zm0 0"/><path d="m104.019531 98.039062h272v64h-272zm0 0"/></g><path d="m432.019531 145.671875v-103.632813h-136.582031l-55.417969-42.039062-55.414062 42.039062h-136.585938v103.632813l-47.9999998 36.367187v300h479.9999998v-300zm-247.40625 184.367187-168.59375 127.890626v-255.777344zm13.238281 10.039063 42.167969 32 42.167969-32 166.046875 125.960937h-416.429687zm97.578126-10.039063 168.589843-127.886718v255.777344zm163.351562-144-26.761719 20.304688v-40.601562zm-218.761719-165.960937 28.9375 21.960937h-57.871093zm176 37.960937v160.441407l-176 133.519531-176-133.519531v-160.441407zm-368 148.304688-26.757812-20.304688 26.757812-20.296874zm0 0" fill="#1e81ce"/><path d="m384.019531 90.039062h-288v80h288zm-16 64h-256v-48h256zm0 0" fill="#1e81ce"/><path d="m112.019531 202.039062h32v16h-32zm0 0" fill="#1e81ce"/><path d="m160.019531 202.039062h208v16h-208zm0 0" fill="#1e81ce"/><path d="m112.019531 234.039062h32v16h-32zm0 0" fill="#1e81ce"/><path d="m160.019531 234.039062h208v16h-208zm0 0" fill="#1e81ce"/><path d="m160.019531 266.039062h160v16h-160zm0 0" fill="#1e81ce"/></svg>