<svg height="480pt" viewBox="0 -4 480 480" width="480pt" xmlns="http://www.w3.org/2000/svg"><path d="m296 376c-.042969-20.4375 7.058594-40.246094 20.078125-56h-28.078125v-32h32v27.601562c6.898438-7.34375 15.019531-13.4375 24-18v-89.601562h-192v64h-136v192h48v-56h48v56h112v-56h48v56h112c-23.34375.011719-45.734375-9.253906-62.238281-25.761719-16.507813-16.503906-25.773438-38.894531-25.761719-62.238281zm-8-144h32v32h-32zm-216 144h-24v-24h24zm0-48h-24v-24h24zm56 48h-24v-24h24zm0-48h-24v-24h24zm80 48h-32v-32h32zm0-56h-32v-32h32zm0-56h-32v-32h32zm56 112h-32v-32h32zm0-56h-32v-32h32zm0-56h-32v-32h32zm0 0" fill="#78b9eb"/><path d="m448 376c0 35.347656-28.652344 64-64 64s-64-28.652344-64-64 28.652344-64 64-64 64 28.652344 64 64zm0 0" fill="#78b9eb"/><path d="m56 176c8.824219-.027344 15.972656-7.175781 16-16-.066406-8.808594-7.191406-15.933594-16-16-8.835938 0-16 7.164062-16 16s7.164062 16 16 16zm0 0" fill="#78b9eb"/><path d="m128 104c5.484375 0 10.585938-2.808594 13.519531-7.441406 1.632813-2.554688 2.496094-5.527344 2.480469-8.558594 0-8.835938-7.164062-16-16-16s-16 7.164062-16 16c.066406 8.808594 7.191406 15.933594 16 16zm0 0" fill="#78b9eb"/><path d="m216 160c6.058594 0 11.601562-3.425781 14.3125-8.84375 2.707031-5.421875 2.125-11.90625-1.511719-16.757812-3.042969-4-7.773437-6.363282-12.800781-6.398438-5.484375 0-10.585938 2.808594-13.519531 7.441406-1.632813 2.554688-2.496094 5.527344-2.480469 8.558594.027344 8.824219 7.175781 15.972656 16 16zm0 0" fill="#78b9eb"/><g fill="#006df0"><path d="m384 448c39.765625 0 72-32.234375 72-72s-32.234375-72-72-72-72 32.234375-72 72c.042969 39.746094 32.253906 71.957031 72 72zm0-128c30.929688 0 56 25.070312 56 56s-25.070312 56-56 56-56-25.070312-56-56c.039062-30.910156 25.089844-55.960938 56-56zm0 0"/><path d="m368 392h-16c0 13.253906 10.746094 24 24 24v8h16v-8c13.253906 0 24-10.746094 24-24s-10.746094-24-24-24v-16c4.417969 0 8 3.582031 8 8h16c0-13.253906-10.746094-24-24-24v-8h-16v8c-13.253906 0-24 10.746094-24 24s10.746094 24 24 24v16c-4.417969 0-8-3.582031-8-8zm0-32c0-4.417969 3.582031-8 8-8v16c-4.417969 0-8-3.582031-8-8zm24 24c4.417969 0 8 3.582031 8 8s-3.582031 8-8 8zm0 0"/><path d="m48 336h24c4.417969 0 8-3.582031 8-8v-24c0-4.417969-3.582031-8-8-8h-24c-4.417969 0-8 3.582031-8 8v24c0 4.417969 3.582031 8 8 8zm8-24h8v8h-8zm0 0"/><path d="m104 336h24c4.417969 0 8-3.582031 8-8v-24c0-4.417969-3.582031-8-8-8h-24c-4.417969 0-8 3.582031-8 8v24c0 4.417969 3.582031 8 8 8zm8-24h8v8h-8zm0 0"/><path d="m72 384c4.417969 0 8-3.582031 8-8v-24c0-4.417969-3.582031-8-8-8h-24c-4.417969 0-8 3.582031-8 8v24c0 4.417969 3.582031 8 8 8zm-16-24h8v8h-8zm0 0"/><path d="m104 384h24c4.417969 0 8-3.582031 8-8v-24c0-4.417969-3.582031-8-8-8h-24c-4.417969 0-8 3.582031-8 8v24c0 4.417969 3.582031 8 8 8zm8-24h8v8h-8zm0 0"/><path d="m208 224h-32c-4.417969 0-8 3.582031-8 8v32c0 4.417969 3.582031 8 8 8h32c4.417969 0 8-3.582031 8-8v-32c0-4.417969-3.582031-8-8-8zm-8 32h-16v-16h16zm0 0"/><path d="m208 280h-32c-4.417969 0-8 3.582031-8 8v32c0 4.417969 3.582031 8 8 8h32c4.417969 0 8-3.582031 8-8v-32c0-4.417969-3.582031-8-8-8zm-8 32h-16v-16h16zm0 0"/><path d="m208 336h-32c-4.417969 0-8 3.582031-8 8v32c0 4.417969 3.582031 8 8 8h32c4.417969 0 8-3.582031 8-8v-32c0-4.417969-3.582031-8-8-8zm-8 32h-16v-16h16zm0 0"/><path d="m264 224h-32c-4.417969 0-8 3.582031-8 8v32c0 4.417969 3.582031 8 8 8h32c4.417969 0 8-3.582031 8-8v-32c0-4.417969-3.582031-8-8-8zm-8 32h-16v-16h16zm0 0"/><path d="m264 280h-32c-4.417969 0-8 3.582031-8 8v32c0 4.417969 3.582031 8 8 8h32c4.417969 0 8-3.582031 8-8v-32c0-4.417969-3.582031-8-8-8zm-8 32h-16v-16h16zm0 0"/><path d="m264 336h-32c-4.417969 0-8 3.582031-8 8v32c0 4.417969 3.582031 8 8 8h32c4.417969 0 8-3.582031 8-8v-32c0-4.417969-3.582031-8-8-8zm-8 32h-16v-16h16zm0 0"/><path d="m288 272h32c4.417969 0 8-3.582031 8-8v-32c0-4.417969-3.582031-8-8-8h-32c-4.417969 0-8 3.582031-8 8v32c0 4.417969 3.582031 8 8 8zm8-32h16v16h-16zm0 0"/><path d="m296 160h16v16h-16zm0 0"/><path d="m328 160h16v16h-16zm0 0"/><path d="m360 160h16v16h-16zm0 0"/><path d="m392 160h16v16h-16zm0 0"/><path d="m424 160h16v16h-16zm0 0"/><path d="m392 192h16v16h-16zm0 0"/><path d="m424 192h16v16h-16zm0 0"/><path d="m360 224h16v16h-16zm0 0"/><path d="m392 224h16v16h-16zm0 0"/><path d="m424 224h16v16h-16zm0 0"/><path d="m360 256h16v16h-16zm0 0"/><path d="m392 256h16v16h-16zm0 0"/><path d="m424 256h16v16h-16zm0 0"/><path d="m56 184c13.253906 0 24-10.746094 24-24-.015625-3.5625-.835938-7.078125-2.398438-10.28125l40.117188-40.117188c8.164062 4.023438 17.921875 2.941407 25-2.777343l49.929688 31.839843c-2.136719 9.015626 1.105468 18.460938 8.335937 24.257813s17.152344 6.917969 25.488281 2.871094c8.339844-4.042969 13.605469-12.527344 13.527344-21.792969-.03125-2.417969-.4375-4.816406-1.199219-7.113281l107.695313-80.742188 23.902344 31.855469 37.601562-88-95.03125 11.449219 23.925781 31.902343-107.605469 80.6875c-8.582031-5.777343-19.921874-5.316406-28 1.144532l-49.929687-31.839844c2.125-9.011719-1.125-18.441406-8.351563-24.230469-7.222656-5.789062-17.132812-6.910156-25.46875-2.875-8.332031 4.035157-13.601562 12.503907-13.539062 21.761719.015625 3.5625.835938 7.078125 2.398438 10.28125l-40.117188 40.117188c-3.203125-1.5625-6.71875-2.382813-10.28125-2.398438-13.253906 0-24 10.746094-24 24s10.746094 24 24 24zm160-48c4.417969 0 8 3.582031 8 8s-3.582031 8-8 8-8-3.582031-8-8 3.582031-8 8-8zm-88-56c4.417969 0 8 3.582031 8 8s-3.582031 8-8 8-8-3.582031-8-8 3.582031-8 8-8zm-72 72c4.417969 0 8 3.582031 8 8s-3.582031 8-8 8-8-3.582031-8-8 3.582031-8 8-8zm0 0"/><path d="m472 414.257812c10.667969-24.390624 10.667969-52.125 0-76.515624v-201.742188c0-4.417969-3.582031-8-8-8h-192c-4.417969 0-8 3.582031-8 8v64h-128v16h8v16h-112c-4.417969 0-8 3.582031-8 8v24h-8c-4.417969 0-8 3.582031-8 8v184h-8v16h480v-16h-8zm-160-102.257812h-16v-16h16zm72-16c44.183594 0 80 35.816406 80 80s-35.816406 80-80 80-80-35.816406-80-80c.046875-44.164062 35.835938-79.953125 80-80zm-104-152h176v168.710938c-25.761719-29.613282-67.058594-40.378907-104-27.109376v-69.601562h8v-8h16v-16h-16v8h-16v-8h-16v8h-16v-8h-16v8h-16zm-240 104h104v16h-104zm-16 32h120v176h-24v-48c0-4.417969-3.582031-8-8-8h-48c-4.417969 0-8 3.582031-8 8v48h-32zm48 176v-40h32v40zm160 0v-40h32v40zm48 0v-48c0-4.417969-3.582031-8-8-8h-48c-4.417969 0-8 3.582031-8 8v48h-56v-240h176v76.984375c-2.757812 1.601563-5.425781 3.332031-8 5.199219v-10.183594c0-4.417969-3.582031-8-8-8h-32c-4.417969 0-8 3.582031-8 8v32c0 4.417969 3.582031 8 8 8h12.984375c-25.542969 43.882812-12.34375 100.078125 30.0625 128zm176-16.710938v16.710938h-19.046875c7.054687-4.710938 13.457031-10.332031 19.046875-16.710938zm0 0"/></g></svg>