<svg height="480pt" viewBox="0 0 480.0044 480" width="480pt" xmlns="http://www.w3.org/2000/svg"><path d="m160.003906 72.003906-48 48 112 88 112-88-48-48zm0 0" fill="#78b9eb"/><path d="m472.003906 280.003906v192h-80v-16h-48v-160h48v-16zm0 0" fill="#78b9eb"/><g fill="#006df0"><path d="m472.003906 272.003906h-80c-4.417968 0-8 3.578125-8 8v8h-40c-4.417968 0-8 3.578125-8 8v16h-21.703125l-62.054687-38.785156c-.890625-.558594-1.882813-.933594-2.921875-1.105469l-48-8c-3.46875-.582031-6.90625 1.167969-8.480469 4.3125l-16 32c-1.535156 3.082031-.929688 6.800781 1.503906 9.230469l37.65625 37.65625v4.691406h-54.847656l-134.894531-39.671875c-3.71875-1.097656-7.683594.628907-9.417969 4.09375l-16 32c-1.839844 3.679688-.589844 8.152344 2.886719 10.34375l152 96c1.28125.804688 2.761719 1.230469 4.273437 1.234375h176c0 4.417969 3.582032 8 8 8h40v8c0 4.417969 3.582032 8 8 8h80c4.417969 0 8-3.582031 8-8v-192c0-4.421875-3.582031-8-8-8zm-309.679687 168-143.917969-90.898437 9.765625-19.503907 129.601563 38.113282c.726562.199218 1.476562.296875 2.230468.289062h64c4.417969 0 8-3.582031 8-8v-16c0-2.125-.84375-4.15625-2.34375-5.65625l-35.917968-35.921875 10.773437-21.558593 40.601563 6.765624 62.648437 39.152344c1.269531.796875 2.738281 1.21875 4.238281 1.21875h24v112zm189.679687 8v-144h32v144zm112 16h-64v-176h64zm0 0"/><path d="m448.003906 328.003906c0 8.835938-7.164062 16-16 16-8.835937 0-16-7.164062-16-16 0-8.839844 7.164063-16 16-16 8.835938 0 16 7.160156 16 16zm0 0"/><path d="m304.730469 219.347656c1.308593 2.835938 4.148437 4.65625 7.273437 4.65625h24v16h16v-24c0-4.421875-3.582031-8-8-8h-14.609375l30.609375-35.707031 30.609375 35.707031h-14.609375c-4.417968 0-8 3.578125-8 8v56h16v-48h24c3.125 0 5.964844-1.820312 7.269532-4.660156 1.304687-2.839844.835937-6.179688-1.195313-8.550781l-48-56c-1.566406-1.691407-3.765625-2.65625-6.074219-2.65625-2.304687 0-4.507812.964843-6.070312 2.65625l-48 56c-2.039063 2.371093-2.507813 5.714843-1.203125 8.554687zm0 0"/><path d="m8.003906 72.003906h24v16h16v-24c0-4.421875-3.582031-8-8-8h-14.609375l30.609375-35.707031 30.609375 35.707031h-14.609375c-4.417968 0-8 3.578125-8 8v64h16v-56h24c3.125 0 5.964844-1.820312 7.269532-4.660156 1.304687-2.839844.835937-6.179688-1.195313-8.550781l-48-56c-1.566406-1.691407-3.765625-2.65625-6.074219-2.65625-2.304687 0-4.507812.964843-6.070312 2.65625l-48 56c-2.035156 2.371093-2.503906 5.710937-1.195313 8.550781 1.304688 2.839844 4.140625 4.660156 7.265625 4.660156zm0 0"/><path d="m56.003906 176.003906h16v16h-16zm0 0"/><path d="m72.003906 192.003906h16v16h-16zm0 0"/><path d="m56.003906 208.003906h16v16h-16zm0 0"/><path d="m40.003906 192.003906h16v16h-16zm0 0"/><path d="m216.003906.00390625h16v15.99999975h-16zm0 0"/><path d="m232.003906 16.003906h16v16h-16zm0 0"/><path d="m216.003906 32.003906h16v16h-16zm0 0"/><path d="m200.003906 16.003906h16v16h-16zm0 0"/><path d="m376.003906 64.003906h16v16h-16zm0 0"/><path d="m392.003906 80.003906h16v16h-16zm0 0"/><path d="m376.003906 96.003906h16v16h-16zm0 0"/><path d="m360.003906 80.003906h16v16h-16zm0 0"/><path d="m32.003906 96.003906h16v16h-16zm0 0"/><path d="m336.003906 248.003906h16v16h-16zm0 0"/><path d="m104.003906 120.480469c.136719 2.28125 1.242188 4.398437 3.039063 5.808593l112 88c2.902343 2.28125 6.988281 2.28125 9.890625 0l112-88c1.796875-1.414062 2.902344-3.527343 3.039062-5.8125.136719-2.28125-.710937-4.511718-2.328125-6.128906l-48-48c-1.496093-1.496094-3.523437-2.339844-5.640625-2.34375h-128c-2.121094 0-4.15625.84375-5.65625 2.34375l-48 48c-1.621094 1.613282-2.476562 3.847656-2.34375 6.132813zm31.113282 7.523437h50.832031l20.75 56.238282zm88.800781 56.644532-20.898438-56.644532h41.328125zm17.070312-.167969 20.367188-56.476563h51.519531zm48.230469-99.949219 27.472656 27.472656h-45.933594zm-16.230469-4.527344-21.511719 32h-55.617187l-21.023437-32zm-114.28125 4.605469 18.007813 27.394531h-45.398438zm0 0"/></g></svg>