<svg height="478pt" viewBox="0 0 478.78796 478" width="478pt" xmlns="http://www.w3.org/2000/svg"><g fill="#9bc9ff"><path d="m239.378906 383.742188c42.554688.050781 82.9375-18.792969 110.238282-51.4375-12.898438-8.207032-26.910157-14.527344-41.597657-18.769532-14.007812 42-39.464843 70.207032-68.640625 70.207032zm0 0"/><path d="m170.769531 313.535156c-14.691406 4.242188-28.699219 10.5625-41.597656 18.769532 27.292969 32.636718 67.660156 51.480468 110.207031 51.4375-29.175781 0-54.632812-28.207032-68.609375-70.207032zm0 0"/><path d="m307.984375 313.535156c14.691406 4.242188 28.699219 10.5625 41.601563 18.769532 21.847656-25.890626 33.820312-58.683594 33.792968-92.5625h-64c.148438 25.046874-3.695312 49.957031-11.394531 73.792968zm0 0"/><path d="m159.378906 239.742188h-64c-.039062 33.875 11.921875 66.667968 33.757813 92.5625 12.902343-8.207032 26.910156-14.527344 41.601562-18.769532-7.6875-23.835937-11.519531-48.746094-11.359375-73.792968zm0 0"/><path d="m170.769531 165.953125c-14.691406-4.242187-28.699219-10.5625-41.597656-18.769531-21.847656 25.890625-33.820313 58.683594-33.792969 92.558594h64c-.152344-25.042969 3.695313-49.953126 11.390625-73.789063zm0 0"/><path d="m319.378906 239.742188h64c.035156-33.871094-11.925781-66.664063-33.761718-92.558594-12.898438 8.207031-26.910157 14.527344-41.597657 18.769531 7.683594 23.835937 11.519531 48.746094 11.359375 73.789063zm0 0"/><path d="m239.378906 175.742188c-23.226562.097656-46.339844-3.199219-68.609375-9.789063-7.695312 23.835937-11.542969 48.746094-11.390625 73.789063h80zm0 0"/><path d="m159.378906 239.742188c-.152344 25.046874 3.695313 49.957031 11.390625 73.792968 22.269531-6.589844 45.382813-9.886718 68.609375-9.792968v-64zm0 0"/><path d="m239.378906 239.742188h80c.148438-25.042969-3.695312-49.953126-11.394531-73.789063-22.269531 6.589844-45.382813 9.886719-68.605469 9.789063zm0 0"/><path d="m239.378906 303.742188c23.222656-.09375 46.335938 3.203124 68.605469 9.792968 7.699219-23.835937 11.542969-48.746094 11.394531-73.792968h-80zm0 0"/><path d="m170.769531 313.535156c13.976563 42 39.433594 70.207032 68.609375 70.207032v-80c-23.226562-.09375-46.339844 3.203124-68.609375 9.792968zm0 0"/><path d="m307.984375 313.535156c-22.269531-6.589844-45.382813-9.886718-68.605469-9.792968v80c29.175782 0 54.632813-28.207032 68.605469-70.207032zm0 0"/><path d="m239.378906 95.742188c-42.558594-.046876-82.941406 18.796874-110.242187 51.441406 12.902343 8.207031 26.910156 14.527344 41.601562 18.769531 14.007813-42 39.464844-70.210937 68.640625-70.210937zm0 0"/><path d="m307.984375 165.953125c14.691406-4.242187 28.699219-10.5625 41.601563-18.769531-27.292969-32.636719-67.664063-51.480469-110.207032-51.441406 29.175782 0 54.632813 28.210937 68.605469 70.210937zm0 0"/><path d="m307.984375 165.953125c-13.972656-42-39.429687-70.210937-68.605469-70.210937v80c23.222656.097656 46.335938-3.199219 68.605469-9.789063zm0 0"/><path d="m170.769531 165.953125c22.269531 6.589844 45.382813 9.886719 68.609375 9.789063v-80c-29.175781 0-54.632812 28.210937-68.609375 70.210937zm0 0"/></g><path d="m40.097656 231.742188h-32.078125c-2.21875.007812-4.339843-.910157-5.855469-2.527344-1.519531-1.617188-2.292968-3.792969-2.1445308-6.007813 5.7460938-81.515625 52.4765628-154.539062 124.0859378-193.910156l-6.398438-17.441406c-.960937-2.621094-.484375-5.558594 1.257813-7.742188 1.742187-2.183593 4.496094-3.300781 7.269531-2.945312l96.800781 12.480469c3.066406.390624 5.632813 2.515624 6.59375 5.457031.957032 2.941406.132813 6.171875-2.113281 8.292969l-68.488281 64.800781c-1.957032 1.851562-4.714844 2.597656-7.335938 1.980469-2.621094-.617188-4.757812-2.511719-5.679687-5.042969l-5.152344-14.105469c-53.417969 31.6875-88.046875 87.410156-92.800781 149.335938-.324219 4.160156-3.789063 7.367187-7.960938 7.375zm-23.351562-16h16.085937c7.664063-67.777344 48.273438-127.410157 108.53125-159.375 2.042969-1.09375 4.457031-1.246094 6.625-.421876 2.164063.828126 3.867188 2.550782 4.660157 4.726563l4.226562 11.542969 47.390625-44.855469-67-8.632813 4.265625 11.625c1.390625 3.800782-.273438 8.042969-3.882812 9.878907-67.265626 34.433593-112.699219 100.394531-120.902344 175.511719zm0 0" fill="#1e81ce"/><path d="m223.378906 479.105469c-.175781 0-.359375 0-.535156 0-81.515625-5.746094-154.542969-52.472657-193.914062-124.082031l-17.433594 6.402343c-2.625.964844-5.5625.488281-7.75-1.257812-2.1875-1.746094-3.304688-4.503907-2.945313-7.28125l12.472657-96.796875c.390624-3.070313 2.515624-5.636719 5.457031-6.59375 2.941406-.960938 6.171875-.136719 8.296875 2.113281l64.796875 68.480469c1.855469 1.953125 2.597656 4.710937 1.980469 7.332031-.617188 2.621094-2.511719 4.757813-5.042969 5.683594l-14.113281 5.160156c31.695312 53.410156 87.421874 88.035156 149.34375 92.796875 4.175781.328125 7.390624 3.816406 7.378906 8v32.082031c0 4.417969-3.582032 8-8 8zm-190.640625-142c3.011719-.003907 5.769531 1.683593 7.136719 4.367187 34.429688 67.265625 100.382812 112.703125 175.503906 120.910156v-16.085937c-67.78125-7.667969-127.414062-48.28125-159.375-108.542969-1.09375-2.042968-1.246094-4.457031-.417968-6.621094.824218-2.164062 2.546874-3.863281 4.71875-4.660156l11.546874-4.222656-44.859374-47.402344-8.636719 67.007813 11.621093-4.261719c.886719-.328125 1.820313-.492188 2.761719-.488281zm0 0" fill="#1e81ce"/><path d="m353.539062 478.382812c-.34375 0-.683593-.023437-1.023437-.0625l-96.800781-12.480468c-3.070313-.390625-5.636719-2.515625-6.59375-5.457032-.960938-2.941406-.136719-6.171874 2.113281-8.292968l68.480469-64.800782c1.953125-1.851562 4.710937-2.597656 7.332031-1.980468 2.625.617187 4.757813 2.511718 5.683594 5.042968l5.160156 14.105469c53.410156-31.691406 88.039063-87.414062 92.800781-149.335937.324219-4.175782 3.8125-7.390625 8-7.378906h32.078125c2.21875-.003907 4.339844.914062 5.855469 2.53125 1.515625 1.617187 2.292969 3.792968 2.144531 6.007812-5.753906 81.519531-52.496093 154.546875-124.121093 193.910156l6.402343 17.441406c.898438 2.453126.542969 5.1875-.953125 7.328126-1.492187 2.144531-3.941406 3.421874-6.550781 3.421874zm-79.058593-26.253906 67.007812 8.632813-4.261719-11.625c-1.394531-3.800781.273438-8.042969 3.878907-9.878907 67.265625-34.433593 112.703125-100.394531 120.90625-175.515624h-16.089844c-7.664063 67.78125-48.273437 127.414062-108.527344 159.378906-2.042969 1.09375-4.460937 1.246094-6.625.421875-2.167969-.828125-3.867187-2.550781-4.664062-4.726563l-4.230469-11.542968zm0 0" fill="#1e81ce"/><path d="m457.546875 230.382812c-2.199219.003907-4.304687-.898437-5.816406-2.496093l-64.800781-68.480469c-1.851563-1.953125-2.597657-4.710938-1.980469-7.332031.617187-2.621094 2.515625-4.757813 5.042969-5.683594l14.113281-5.160156c-31.695313-53.410157-87.417969-88.035157-149.34375-92.796875-4.171875-.328125-7.386719-3.816406-7.375-8v-32.050782c0-2.210937.917969-4.328124 2.535156-5.839843 1.628906-1.496094 3.792969-2.265625 6-2.136719 81.507813 5.742188 154.53125 52.460938 193.902344 124.058594l17.433593-6.402344c2.625-.964844 5.566407-.488281 7.753907 1.257812 2.1875 1.746094 3.300781 4.503907 2.941406 7.28125l-12.472656 96.796876c-.511719 3.992187-3.910157 6.980468-7.933594 6.976562zm-50.640625-73.144531 44.855469 47.402344 8.640625-67.007813-11.625 4.261719c-3.804688 1.402344-8.058594-.265625-9.894532-3.878906-34.433593-67.265625-100.386718-112.703125-175.503906-120.910156v16.085937c67.78125 7.667969 127.414063 48.28125 159.375 108.542969 1.089844 2.042969 1.242188 4.457031.417969 6.621094-.824219 2.164062-2.546875 3.863281-4.722656 4.660156zm0 0" fill="#1e81ce"/><path d="m355.753906 142.046875c-47.398437-56.347656-128.410156-70.546875-192.144531-33.671875-63.738281 36.875-91.808594 114.179688-66.582031 183.359375 25.222656 69.179687 96.46875 110.269531 168.980468 97.460937 72.511719-12.804687 125.371094-75.816406 125.371094-149.453124.035156-35.75-12.585937-70.355469-35.625-97.695313zm-8.160156 15.625c16.273438 21.433594 25.824219 47.210937 27.449219 74.070313h-47.9375c-.488281-20.492188-3.519531-40.84375-9.023438-60.589844 10.253907-3.523438 20.136719-8.035156 29.511719-13.480469zm-10.464844-12.382813c-7.703125 4.246094-15.761718 7.820313-24.078125 10.6875-5.539062-15.574218-13.769531-30.054687-24.3125-42.785156 18.253907 7.085938 34.761719 18.035156 48.390625 32.097656zm-89.75-40.625c20.328125 4.488282 38.398438 25.769532 50.070313 56.046876-16.398438 4.0625-33.183594 6.339843-50.070313 6.792968zm0 78.832032c18.640625-.46875 37.175782-3.027344 55.246094-7.625 5.121094 18.203125 7.96875 36.96875 8.472656 55.871094h-63.71875zm63.773438 64.246094c-.550782 18.902343-3.449219 37.65625-8.621094 55.84375-18.042969-4.585938-36.542969-7.132813-55.152344-7.59375v-48.25zm-143.550782 0h63.777344v48.25c-18.609375.460937-37.109375 3.007812-55.152344 7.59375-5.175781-18.1875-8.070312-36.941407-8.625-55.84375zm.054688-16c.507812-18.902344 3.351562-37.667969 8.472656-55.871094 18.074219 4.597656 36.605469 7.15625 55.25 7.625v48.246094zm63.722656-127.078126v62.839844c-16.886718-.453125-33.675781-2.730468-50.074218-6.792968 11.714843-30.277344 29.746093-51.558594 50.074218-56.046876zm-41.359375 8.527344c-10.546875 12.730469-18.777343 27.210938-24.3125 42.785156-8.320312-2.867187-16.375-6.441406-24.082031-10.6875 13.628906-14.0625 30.136719-25.011718 48.394531-32.097656zm-58.859375 44.480469c9.375 5.445313 19.261719 9.957031 29.515625 13.480469-5.503906 19.746094-8.535156 40.097656-9.027343 60.589844h-47.933594c1.625-26.859376 11.179687-52.636719 27.445312-74.070313zm20.503906 90.070313c.527344 20.484374 3.59375 40.820312 9.128907 60.546874-10.304688 3.535157-20.234375 8.070313-29.65625 13.542969-16.253907-21.445312-25.789063-47.226562-27.40625-74.089843zm-10.039062 86.457031c7.730469-4.257813 15.8125-7.84375 24.160156-10.710938 5.5 15.582031 13.703125 30.074219 24.234375 42.808594-18.257812-7.085937-34.765625-18.035156-48.394531-32.097656zm39.753906-15.4375c16.371094-4.058594 33.136719-6.328125 50-6.777344v62.800781c-20.320312-4.480468-38.3125-25.777344-50-56.023437zm66 56v-62.777344c16.863282.449219 33.625 2.71875 50 6.777344-11.6875 30.246093-29.679687 51.542969-50 56.023437zm65.597656-51.296875c8.347657 2.867187 16.429688 6.453125 24.160157 10.710937-13.628907 14.0625-30.136719 25.011719-48.390625 32.097657 10.527344-12.730469 18.730468-27.210938 24.230468-42.785157zm34.648438-1.664063c-9.421875-5.46875-19.351562-10-29.65625-13.535156 5.53125-19.71875 8.597656-40.046875 9.121094-60.523437h47.9375c-1.617188 26.859374-11.15625 52.640624-27.410156 74.082031zm0 0" fill="#1e81ce"/></svg>