<svg height="480pt" viewBox="0 0 480 480" width="480pt" xmlns="http://www.w3.org/2000/svg"><path d="m408 407.867188v-32h24v-32h-128v32h-24v32h-32v-32h-128v32h-80v32h-32v32h128v-32h24v32h128v-32h24v32h128v-32h32v-32zm-216 32h-24v-32h24zm152 0h-24v-32h24zm0 0" fill="#78b9eb"/><path d="m416 247.867188c0 35.34375-28.652344 64-64 64h-.398438c-35.292968-.222657-63.746093-28.972657-63.601562-64.265626.148438-35.292968 28.839844-63.808593 64.132812-63.734374 35.292969.074218 63.867188 28.703124 63.867188 64zm0 0" fill="#78b9eb"/><g fill="#006df0"><path d="m368 231.867188h16c0-13.257813-10.746094-24-24-24v-8h-16v8c-13.253906 0-24 10.742187-24 24 0 13.253906 10.746094 24 24 24v16c-4.417969 0-8-3.582032-8-8h-16c0 13.253906 10.746094 24 24 24v8h16v-8c13.253906 0 24-10.746094 24-24 0-13.257813-10.746094-24-24-24v-16c4.417969 0 8 3.582031 8 8zm0 32c0 4.417968-3.582031 8-8 8v-16c4.417969 0 8 3.582031 8 8zm-24-24c-4.417969 0-8-3.582032-8-8 0-4.417969 3.582031-8 8-8zm0 0"/><path d="m168 191.867188h24v16h16v-24c0-4.417969-3.582031-8-8-8h-14.609375l30.609375-35.714844 30.609375 35.714844h-14.609375c-4.417969 0-8 3.582031-8 8v64h16v-56h24c3.121094-.003907 5.957031-1.824219 7.261719-4.65625 1.304687-2.835938.839843-6.171876-1.191407-8.546876l-48-56c-1.558593-1.695312-3.761718-2.664062-6.070312-2.664062s-4.511719.96875-6.070312 2.664062l-48 56c-2.03125 2.375-2.496094 5.710938-1.191407 8.546876 1.304688 2.832031 4.140625 4.652343 7.261719 4.65625zm0 0"/><path d="m344 71.867188h24v16h16v-24c0-4.417969-3.582031-8-8-8h-14.609375l30.609375-35.714844 30.609375 35.714844h-14.609375c-4.417969 0-8 3.582031-8 8v64h16v-56h24c3.121094-.003907 5.957031-1.824219 7.261719-4.65625 1.304687-2.835938.839843-6.171876-1.191407-8.546876l-48-56c-1.558593-1.695312-3.761718-2.664062-6.070312-2.664062s-4.511719.96875-6.070312 2.664062l-48 56c-2.03125 2.375-2.496094 5.710938-1.191407 8.546876 1.304688 2.832031 4.140625 4.652343 7.261719 4.65625zm0 0"/><path d="m32 295.867188h24v16h16v-24c0-4.417969-3.582031-8-8-8h-14.609375l30.609375-35.714844 30.609375 35.714844h-14.609375c-4.417969 0-8 3.582031-8 8v64h16v-56h24c3.121094-.003907 5.957031-1.824219 7.261719-4.65625 1.304687-2.835938.839843-6.171876-1.191407-8.546876l-48-56c-1.558593-1.695312-3.761718-2.664062-6.070312-2.664062s-4.511719.96875-6.070312 2.664062l-48 56c-2.03125 2.375-2.496094 5.710938-1.191407 8.546876 1.304688 2.832031 4.140625 4.652343 7.261719 4.65625zm0 0"/><path d="m472 399.867188h-56v-16h16c4.417969 0 8-3.582032 8-8v-32c0-4.417969-3.582031-8-8-8h-8v-24c0-4.417969-3.582031-8-8-8h-18.847656c23.785156-19.152344 32.90625-51.222657 22.75-80.023438-10.152344-28.796875-37.367188-48.0625-67.902344-48.0625s-57.75 19.265625-67.902344 48.0625c-10.15625 28.800781-1.035156 60.871094 22.75 80.023438h-18.847656c-4.417969 0-8 3.582031-8 8v32c0 4.417968 3.582031 8 8 8h8v16h-16c-4.417969 0-8 3.582031-8 8v24h-16v-24c0-4.417969-3.582031-8-8-8h-128c-4.417969 0-8 3.582031-8 8v24h-72c-4.417969 0-8 3.582031-8 8v24h-24c-4.417969 0-8 3.582031-8 8v32c0 4.417968 3.582031 8 8 8h128c4.417969 0 8-3.582032 8-8v-24h8v24c0 4.417968 3.582031 8 8 8h128c4.417969 0 8-3.582032 8-8v-24h8v24c0 4.417968 3.582031 8 8 8h128c4.417969 0 8-3.582032 8-8v-24h24c4.417969 0 8-3.582032 8-8v-32c0-4.417969-3.582031-8-8-8zm-176-152c0-30.929688 25.070312-56 56-56s56 25.070312 56 56c0 30.925781-25.070312 56-56 56-30.914062-.035157-55.964844-25.089844-56-56zm0 72h32v8h16v-8h32v8h16v-8h16v16h-40v-8h-16v8h-32v-8h-16v8h-8zm16 32h32v8h16v-8h32v8h16v-8h16v16h-40v-8h-16v8h-32v-8h-16v8h-8zm-24 32h32v8h16v-8h32v8h16v-8h16v16h-40v-8h-16v8h-32v-8h-16v8h-8zm40 48v-16h8v16zm-56 0v-8h-16v8h-32v-8h-16v8h-8v-16h32v8h16v-8h32v8h16v-8h16v16zm-96 0v-16h8v16zm-48-48h32v8h16v-8h32v8h16v-8h16v16h-40v-8h-16v8h-32v-8h-16v8h-8zm-80 32h32v8h16v-8h32v8h16v-8h16v16h-40v-8h-16v8h-32v-8h-16v8h-8zm80 48h-40v-8h-16v8h-32v-8h-16v8h-8v-16h32v8h16v-8h32v8h16v-8h16zm152 0h-40v-8h-16v8h-32v-8h-16v8h-8v-16h32v8h16v-8h32v8h16v-8h16zm152 0h-40v-8h-16v8h-32v-8h-16v8h-8v-16h32v8h16v-8h32v8h16v-8h16zm32-32h-40v-8h-16v8h-32v-8h-16v8h-8v-16h32v8h16v-8h32v8h16v-8h16zm0 0"/><path d="m192 215.867188h16v16h-16zm0 0"/><path d="m56 319.867188h16v16h-16zm0 0"/><path d="m368 95.867188h16v16h-16zm0 0"/></g></svg>