<svg height="480pt" viewBox="-40 0 480 480" width="480pt" xmlns="http://www.w3.org/2000/svg"><path d="m256 400c0-8.835938-7.164062-16-16-16h-80c-8.835938 0-16 7.164062-16 16s7.164062 16 16 16h80c8.835938 0 16-7.164062 16-16zm0 0" fill="#9bc9ff"/><path d="m192 472h16c17.671875 0 32-14.328125 32-32h-80c0 17.671875 14.328125 32 32 32zm0 0" fill="#9bc9ff"/><path d="m184 232h32v128h-32zm0 0" fill="#9bc9ff"/><path d="m224 176c0 13.253906-10.746094 24-24 24s-24-10.746094-24-24 10.746094-24 24-24 24 10.746094 24 24zm0 0" fill="#9bc9ff"/><g fill="#1e81ce"><path d="m192 0h16v48h-16zm0 0"/><path d="m301.824219 86.867188 33.941406-33.941407 11.3125 11.3125-33.941406 33.941407zm0 0"/><path d="m352 192h48v16h-48zm0 0"/><path d="m301.824219 313.132812 11.3125-11.3125 33.941406 33.941407-11.3125 11.3125zm0 0"/><path d="m52.925781 335.765625 33.941407-33.941406 11.3125 11.316406-33.941407 33.941406zm0 0"/><path d="m0 192h48v16h-48zm0 0"/><path d="m52.921875 64.234375 11.316406-11.3125 33.941407 33.941406-11.316407 11.3125zm0 0"/><path d="m208 480h-16c-22.082031-.027344-39.972656-17.917969-40-40v-8h96v8c-.027344 22.082031-17.917969 39.972656-40 40zm-38.632812-32c3.402343 9.582031 12.464843 15.988281 22.632812 16h16c10.167969-.011719 19.230469-6.417969 22.632812-16zm0 0"/><path d="m335.6875 190.71875c-5.304688-68.554688-60.472656-122.632812-129.121094-126.566406-37.164062-1.796875-73.445312 11.710937-100.382812 37.382812-26.941406 25.667969-42.183594 61.253906-42.183594 98.464844.078125 48.796875 26.222656 93.835938 68.558594 118.105469 12.144531 7.121093 19.558594 20.1875 19.441406 34.261719v15.632812h96v-15.640625c.003906-14.21875 7.574219-27.363281 19.871094-34.503906 45.148437-25.835938 71.507812-75.25 67.816406-127.136719zm-143.6875 161.28125v-112h16v112zm67.878906-48c-17.136718 9.933594-27.742187 28.191406-27.878906 48h-8v-128h-48v128h-8c-.019531-19.683594-10.488281-37.875-27.496094-47.785156-37.359375-21.410156-60.433594-61.152344-60.503906-104.214844 0-32.835938 13.453125-64.242188 37.230469-86.890625 23.777343-22.648437 55.792969-34.566406 88.59375-32.972656 60.554687 3.46875 109.222656 51.171875 113.902343 111.648437 3.257813 45.792969-20 89.40625-59.847656 112.214844zm0 0"/><path d="m240 376h-80c-13.253906 0-24 10.746094-24 24s10.746094 24 24 24h80c13.253906 0 24-10.746094 24-24s-10.746094-24-24-24zm0 32h-80c-4.417969 0-8-3.582031-8-8s3.582031-8 8-8h80c4.417969 0 8 3.582031 8 8s-3.582031 8-8 8zm0 0"/><path d="m200 208c-17.671875 0-32-14.328125-32-32s14.328125-32 32-32 32 14.328125 32 32-14.328125 32-32 32zm0-48c-8.835938 0-16 7.164062-16 16s7.164062 16 16 16 16-7.164062 16-16-7.164062-16-16-16zm0 0"/></g></svg>