<svg height="480pt" viewBox="0 0 480 480" width="480pt" xmlns="http://www.w3.org/2000/svg"><path d="m264 64c0 13.253906-10.746094 24-24 24s-24-10.746094-24-24 10.746094-24 24-24 24 10.746094 24 24zm0 0" fill="#9bc9ff"/><path d="m168 440h144v32h-144zm0 0" fill="#9bc9ff"/><path d="m8 440h128v32h-128zm0 0" fill="#9bc9ff"/><path d="m344 440h128v32h-128zm0 0" fill="#9bc9ff"/><path d="m304 376h128v32h-128zm0 0" fill="#9bc9ff"/><path d="m344 312h128v32h-128zm0 0" fill="#9bc9ff"/><path d="m304 248h128v32h-128zm0 0" fill="#9bc9ff"/><path d="m48 376h128v32h-128zm0 0" fill="#9bc9ff"/><path d="m8 312h128v32h-128zm0 0" fill="#9bc9ff"/><path d="m48 248h128v32h-128zm0 0" fill="#9bc9ff"/><g fill="#1e81ce"><path d="m240 419.3125-40-40v-179.3125c-45.761719-19.066406-71.703125-67.785156-61.980469-116.394531 9.722657-48.613281 52.40625-83.605469 101.980469-83.605469s92.257812 34.992188 101.980469 83.605469c9.722656 48.609375-16.21875 97.328125-61.980469 116.394531v27.488281l-20.671875 20.511719 24 24-24 24 24 24-24 24 20.671875 20.6875v14.625zm-24-46.625 24 24 24-24v-1.375l-27.3125-27.3125 24-24-24-24 24-24-24-24 27.3125-27.199219v-32l5.34375-1.878906c40.40625-14.292969 64.636719-55.613281 57.386719-97.851563-7.25-42.238281-43.875-73.113281-86.730469-73.113281s-79.480469 30.875-86.730469 73.113281c-7.25 42.238282 16.980469 83.558594 57.386719 97.851563l5.34375 1.878906zm0 0"/><path d="m240 96c-17.671875 0-32-14.328125-32-32s14.328125-32 32-32 32 14.328125 32 32-14.328125 32-32 32zm0-48c-8.835938 0-16 7.164062-16 16s7.164062 16 16 16 16-7.164062 16-16-7.164062-16-16-16zm0 0"/><path d="m312 480h-144c-4.417969 0-8-3.582031-8-8v-32c0-4.417969 3.582031-8 8-8h144c4.417969 0 8 3.582031 8 8v32c0 4.417969-3.582031 8-8 8zm-136-16h128v-16h-128zm0 0"/><path d="m136 480h-128c-4.417969 0-8-3.582031-8-8v-32c0-4.417969 3.582031-8 8-8h128c4.417969 0 8 3.582031 8 8v32c0 4.417969-3.582031 8-8 8zm-120-16h112v-16h-112zm0 0"/><path d="m472 480h-128c-4.417969 0-8-3.582031-8-8v-32c0-4.417969 3.582031-8 8-8h128c4.417969 0 8 3.582031 8 8v32c0 4.417969-3.582031 8-8 8zm-120-16h112v-16h-112zm0 0"/><path d="m432 416h-128c-4.417969 0-8-3.582031-8-8v-32c0-4.417969 3.582031-8 8-8h128c4.417969 0 8 3.582031 8 8v32c0 4.417969-3.582031 8-8 8zm-120-16h112v-16h-112zm0 0"/><path d="m472 352h-128c-4.417969 0-8-3.582031-8-8v-32c0-4.417969 3.582031-8 8-8h128c4.417969 0 8 3.582031 8 8v32c0 4.417969-3.582031 8-8 8zm-120-16h112v-16h-112zm0 0"/><path d="m432 288h-128c-4.417969 0-8-3.582031-8-8v-32c0-4.417969 3.582031-8 8-8h128c4.417969 0 8 3.582031 8 8v32c0 4.417969-3.582031 8-8 8zm-120-16h112v-16h-112zm0 0"/><path d="m176 416h-128c-4.417969 0-8-3.582031-8-8v-32c0-4.417969 3.582031-8 8-8h128c4.417969 0 8 3.582031 8 8v32c0 4.417969-3.582031 8-8 8zm-120-16h112v-16h-112zm0 0"/><path d="m136 352h-128c-4.417969 0-8-3.582031-8-8v-32c0-4.417969 3.582031-8 8-8h128c4.417969 0 8 3.582031 8 8v32c0 4.417969-3.582031 8-8 8zm-120-16h112v-16h-112zm0 0"/><path d="m176 288h-128c-4.417969 0-8-3.582031-8-8v-32c0-4.417969 3.582031-8 8-8h128c4.417969 0 8 3.582031 8 8v32c0 4.417969-3.582031 8-8 8zm-120-16h112v-16h-112zm0 0"/></g></svg>