<svg height="480pt" viewBox="0 0 480.0044 480" width="480pt" xmlns="http://www.w3.org/2000/svg"><path d="m304.003906 135.867188c0 53.019531-42.980468 96-96 96-53.019531 0-96-42.980469-96-96 0-53.019532 42.980469-96 96-96 53.019532 0 96 42.980468 96 96zm0 0" fill="#78b9eb"/><path d="m472.003906 279.867188v192h-80v-16h-48v-160h48v-16zm0 0" fill="#78b9eb"/><g fill="#006df0"><path d="m472.003906 271.867188h-80c-4.417968 0-8 3.582031-8 8v8h-40c-4.417968 0-8 3.582031-8 8v16h-21.703125l-62.054687-38.78125c-.890625-.558594-1.882813-.933594-2.921875-1.105469l-48-8c-3.46875-.582031-6.90625 1.167969-8.480469 4.3125l-16 32c-1.535156 3.078125-.929688 6.796875 1.503906 9.230469l37.65625 37.65625v4.6875h-54.847656l-134.894531-39.671876c-3.71875-1.09375-7.683594.632813-9.417969 4.097657l-16 32c-1.839844 3.675781-.589844 8.148437 2.886719 10.34375l152 96c1.28125.800781 2.761719 1.230469 4.273437 1.230469h176c0 4.417968 3.582032 8 8 8h40v8c0 4.417968 3.582032 8 8 8h80c4.417969 0 8-3.582032 8-8v-192c0-4.417969-3.582031-8-8-8zm-309.679687 168-143.917969-90.894532 9.765625-19.503906 129.601563 38.113281c.726562.199219 1.476562.296875 2.230468.285157h64c4.417969 0 8-3.582032 8-8v-16c0-2.121094-.84375-4.15625-2.34375-5.65625l-35.917968-35.917969 10.773437-21.558594 40.601563 6.765625 62.648437 39.152344c1.269531.792968 2.738281 1.214844 4.238281 1.214844h24v112zm189.679687 8v-144h32v144zm112 16h-64v-176h64zm0 0"/><path d="m448.003906 327.867188c0 8.835937-7.164062 16-16 16-8.835937 0-16-7.164063-16-16 0-8.835938 7.164063-16 16-16 8.835938 0 16 7.164062 16 16zm0 0"/><path d="m208.003906 239.867188c57.4375 0 104-46.5625 104-104s-46.5625-104-104-104-104 46.5625-104 104c.066406 57.410156 46.589844 103.933593 104 104zm0-192c48.601563 0 88 39.398437 88 88 0 48.601562-39.398437 88-88 88-48.601562 0-88-39.398438-88-88 .058594-48.574219 39.421875-87.941407 88-88zm0 0"/><path d="m192.003906 175.867188c-8.835937 0-16-7.164063-16-16h-16c0 17.675781 14.328125 32 32 32h8v16h16v-16h8c17.671875 0 32-14.324219 32-32 0-17.671876-14.328125-32-32-32h-8v-32h8c8.835938 0 16 7.164062 16 16h16c0-17.671876-14.328125-32-32-32h-8v-16h-16v16h-8c-17.671875 0-32 14.328124-32 32 0 17.675781 14.328125 32 32 32h8v32zm0-48c-8.835937 0-16-7.164063-16-16 0-8.835938 7.164063-16 16-16h8v32zm24 16h8c8.835938 0 16 7.164062 16 16 0 8.835937-7.164062 16-16 16h-8zm0 0"/><path d="m320.730469 195.210938c1.308593 2.839843 4.148437 4.660156 7.273437 4.65625h24v16h16v-24c0-4.417969-3.582031-8-8-8h-14.609375l30.609375-35.703126 30.609375 35.703126h-14.609375c-4.417968 0-8 3.582031-8 8v64h16v-56h24c3.125 0 5.964844-1.816407 7.269532-4.65625 1.304687-2.839844.835937-6.179688-1.195313-8.550782l-48-56c-1.566406-1.695312-3.765625-2.65625-6.074219-2.65625-2.304687 0-4.507812.960938-6.070312 2.65625l-48 56c-2.039063 2.371094-2.507813 5.710938-1.203125 8.550782zm0 0"/><path d="m8.003906 71.867188h24v16h16v-24c0-4.417969-3.582031-8-8-8h-14.609375l30.609375-35.703126 30.609375 35.703126h-14.609375c-4.417968 0-8 3.582031-8 8v64h16v-56h24c3.125 0 5.964844-1.816407 7.269532-4.65625 1.304687-2.839844.835937-6.179688-1.195313-8.550782l-48-56c-1.566406-1.695312-3.765625-2.65624975-6.074219-2.65624975-2.304687 0-4.507812.96093775-6.070312 2.65624975l-48 56c-2.035156 2.371094-2.503906 5.710938-1.195313 8.550782 1.304688 2.839843 4.140625 4.65625 7.265625 4.65625zm0 0"/><path d="m264.003906 127.867188h16v16h-16zm0 0"/><path d="m136.003906 127.867188h16v16h-16zm0 0"/><path d="m32.003906 95.867188h16v16h-16zm0 0"/><path d="m352.003906 223.867188h16v16h-16zm0 0"/><path d="m328.003906 23.867188h16v16h-16zm0 0"/><path d="m344.003906 39.867188h16v16h-16zm0 0"/><path d="m328.003906 55.867188h16v16h-16zm0 0"/><path d="m312.003906 39.867188h16v16h-16zm0 0"/><path d="m72.003906 199.867188h16v16h-16zm0 0"/><path d="m88.003906 215.867188h16v16h-16zm0 0"/><path d="m72.003906 231.867188h16v16h-16zm0 0"/><path d="m56.003906 215.867188h16v16h-16zm0 0"/></g></svg>