<svg height="479pt" viewBox="0 0 479.99938 479" width="479pt" xmlns="http://www.w3.org/2000/svg"><path d="m440 14.914062v128h32v-128zm0 0" fill="#78b9eb"/><path d="m352.71875 135.632812c-9.171875-9.261718-9.171875-24.179687 0-33.441406l3.039062-2.957031v-.082031c-7.542968-7.457032-11.78125-17.628906-11.757812-28.238282h-209.121094c.316406 21.785157-17.09375 39.695313-38.878906 40v96c21.785156.300782 39.195312 18.214844 38.878906 40h209.121094c0-22.09375 17.90625-40 40-40v-69.441406c-9.375 7.4375-22.839844 6.644532-31.28125-1.839844zm-112.71875 87.28125c-35.347656 0-64-28.65625-64-64 0-35.347656 28.652344-64 64-64 35.34375 0 64 28.652344 64 64 0 35.34375-28.65625 64-64 64zm0 0" fill="#78b9eb"/><g fill="#006df0"><path d="m111.269531 322.257812c1.308594-2.839843.839844-6.179687-1.199219-8.554687l-48-56c-1.5625-1.691406-3.765624-2.65625-6.070312-2.65625-2.308594 0-4.507812.964844-6.074219 2.65625l-48 56c-2.03125 2.375-2.5 5.710937-1.195312 8.550781 1.304687 2.839844 4.144531 4.660156 7.269531 4.660156h24v16h16v-24c0-4.417968-3.582031-8-8-8h-14.609375l30.609375-35.707031 30.605469 35.707031h-14.605469c-4.417969 0-8 3.582032-8 8v64h16v-56h24c3.125 0 5.964844-1.816406 7.269531-4.65625zm0 0"/><path d="m150.070312 345.703125c-1.5625-1.691406-3.765624-2.65625-6.070312-2.65625-2.308594 0-4.507812.964844-6.074219 2.65625l-48 56c-2.03125 2.375-2.5 5.710937-1.195312 8.550781 1.304687 2.839844 4.144531 4.660156 7.269531 4.660156h24v16h16v-24c0-4.417968-3.582031-8-8-8h-14.609375l30.609375-35.707031 30.605469 35.707031h-14.605469c-4.417969 0-8 3.582032-8 8v64h16v-56h24c3.125 0 5.960938-1.820312 7.265625-4.660156 1.308594-2.839844.839844-6.175781-1.195313-8.550781zm0 0"/><path d="m295.269531 338.257812c1.308594-2.839843.839844-6.179687-1.199219-8.554687l-48-56c-1.5625-1.691406-3.765624-2.65625-6.070312-2.65625-2.308594 0-4.507812.964844-6.074219 2.65625l-48 56c-2.03125 2.375-2.5 5.710937-1.195312 8.550781 1.304687 2.839844 4.144531 4.660156 7.269531 4.660156h24v16h16v-24c0-4.417968-3.582031-8-8-8h-14.609375l30.609375-35.707031 30.605469 35.707031h-14.605469c-4.417969 0-8 3.582032-8 8v64h16v-56h24c3.125 0 5.964844-1.816406 7.269531-4.65625zm0 0"/><path d="m326.070312 377.703125c-1.5625-1.691406-3.765624-2.65625-6.070312-2.65625-2.308594 0-4.507812.964844-6.074219 2.65625l-48 56c-2.03125 2.375-2.5 5.710937-1.195312 8.550781 1.304687 2.839844 4.144531 4.660156 7.269531 4.660156h24v16h16v-24c0-4.417968-3.582031-8-8-8h-14.609375l30.609375-35.707031 30.605469 35.707031h-14.605469c-4.417969 0-8 3.582032-8 8v40h16v-32h24c3.125 0 5.960938-1.820312 7.265625-4.660156 1.308594-2.839844.839844-6.175781-1.195313-8.550781zm0 0"/><path d="m430.070312 313.703125c-1.5625-1.691406-3.765624-2.65625-6.070312-2.65625-2.308594 0-4.507812.964844-6.074219 2.65625l-48 56c-2.03125 2.375-2.5 5.710937-1.195312 8.550781 1.304687 2.839844 4.144531 4.660156 7.269531 4.660156h24v16h16v-24c0-4.417968-3.582031-8-8-8h-14.609375l30.609375-35.707031 30.605469 35.707031h-14.605469c-4.417969 0-8 3.582032-8 8v64h16v-56h24c3.125 0 5.960938-1.820312 7.265625-4.660156 1.308594-2.839844.839844-6.175781-1.195313-8.550781zm0 0"/><path d="m32 350.914062h16v16h-16zm0 0"/><path d="m120 438.914062h16v16h-16zm0 0"/><path d="m216 366.914062h16v16h-16zm0 0"/><path d="m400 406.914062h16v16h-16zm0 0"/><path d="m240 230.914062c39.765625 0 72-32.238281 72-72 0-39.765624-32.234375-72-72-72s-72 32.234376-72 72c.046875 39.742188 32.253906 71.949219 72 72zm0-128c30.925781 0 56 25.070313 56 56 0 30.925782-25.074219 56-56 56-30.929688 0-56-25.074218-56-56 .035156-30.914062 25.085938-55.964843 56-56zm0 0"/><path d="m224 174.914062h-16c0 13.253907 10.746094 24 24 24v8h16v-8c13.253906 0 24-10.746093 24-24 0-13.257812-10.746094-24-24-24v-16c4.417969 0 8 3.582032 8 8h16c0-13.257812-10.746094-24-24-24v-8h-16v8c-13.253906 0-24 10.742188-24 24 0 13.253907 10.746094 24 24 24v16c-4.417969 0-8-3.582031-8-8zm0-32c0-4.417968 3.582031-8 8-8v16c-4.417969 0-8-3.582031-8-8zm24 24c4.417969 0 8 3.582032 8 8 0 4.417969-3.582031 8-8 8zm0 0"/><path d="m472 6.914062h-32c-4.417969 0-8 3.582032-8 8v15.054688l-53.871094-26.9375c-6.238281-3.1171875-13.523437-3.367188-19.960937-.6875l-79.394531 33.082031c-8.957032 3.707031-14.792969 12.457031-14.773438 22.152344v5.335937h-168c-4.417969 0-8 3.582032-8 8v176c0 4.417969 3.582031 8 8 8h288c4.417969 0 8-3.582031 8-8v-105.601562l22.269531-18.558594c2.125-1.789062 5.027344-2.339844 7.65625-1.449218l10.074219 3.359374v18.25c0 4.417969 3.582031 8 8 8h32c4.417969 0 8-3.582031 8-8v-128c0-4.417968-3.582031-8-8-8zm-115.441406 80.125c-1.535156-2.53125-2.703125-5.265624-3.472656-8.125h11.601562zm-19.824219-8.125c1.199219 7.222657 4.066406 14.070313 8.367187 20-8.746093 10.300782-9.917968 25.046876-2.910156 36.601563 7.011719 11.554687 20.628906 17.324219 33.808594 14.324219v49.792968c-20.101562 3.433594-35.84375 19.179688-39.28125 39.28125h-194.511719c-3.152343-19.847656-18.453125-35.566406-38.207031-39.25v-81.503906c19.753906-3.683594 35.054688-19.398437 38.207031-39.246094zm-210.917969 0c-2.660156 10.953126-10.984375 19.644532-21.816406 22.773438v-22.773438zm-21.816406 137.222657c10.832031 3.128906 19.15625 11.820312 21.816406 22.777343h-21.816406zm272 22.777343h-22.992188c2.933594-11.265624 11.730469-20.058593 22.992188-22.992187zm50.992188-132.800781c-7.886719-2.660156-16.585938-1.019531-22.960938 4.328125l-24.558594 20.472656c-6.441406 5.160157-15.785156 4.433594-21.351562-1.660156-5.566406-6.097656-5.445313-15.464844.277344-21.414062l31.273437-31.269532c2.695313-2.699218 3.117187-6.925781 1-10.097656l-16-24-13.3125 8.878906 7.695313 11.5625h-89.054688v-5.335937c0-3.230469 1.945312-6.144531 4.925781-7.386719l79.394531-33.078125c2.144532-.894531 4.574219-.808593 6.65625.230469l57.445313 28.769531c1.117187.539063 2.339844.8125 3.578125.800781v60.902344zm37.007812 28.800781h-16v-112h16zm0 0"/></g></svg>