<svg height="480pt" viewBox="0 0 480 480.00409" width="480pt" xmlns="http://www.w3.org/2000/svg"><g fill="#9bc9ff"><path d="m8.003906 88.003906v64h464v-64l-232-80zm432 32h-400v-9.183594l200-68.96875 200 68.96875zm0 0"/><path d="m208.003906 216.003906h64v160h-64zm0 0"/><path d="m352.003906 216.003906h64v160h-64zm0 0"/><path d="m64.003906 216.003906h64v160h-64zm0 0"/><path d="m32.003906 440.003906h-24v32h464v-32zm0 0"/></g><path d="m472.003906 160.003906h-464c-4.421875 0-7.99999975-3.582031-7.99999975-8v-64c0-3.410156 2.16406275-6.449218 5.39062475-7.558594l232-80c1.6875-.59375 3.527344-.59375 5.214844 0l232 80c3.226563 1.109376 5.390625 4.148438 5.394531 7.558594v64c0 4.417969-3.582031 8-8 8zm-456-16h448v-50.296875l-224-77.238281-224 77.238281zm0 0" fill="#1e81ce"/><path d="m440.003906 128.003906h-400c-4.421875 0-8-3.582031-8-8v-9.183594c0-3.414062 2.164063-6.449218 5.390625-7.558593l200-68.96875c1.6875-.59375 3.527344-.59375 5.214844 0l200 68.96875c3.226563 1.109375 5.390625 4.144531 5.394531 7.558593v9.183594c0 4.417969-3.582031 8-8 8zm-378.898437-16h357.785156l-178.886719-61.6875zm0 0" fill="#1e81ce"/><path d="m472.003906 432.003906h-16v-24c0-4.417968-3.582031-8-8-8h-8v-24c0-4.417968-3.582031-8-8-8h-8v-145.136718c14.082032-3.636719 23.945313-16.316407 24-30.863282v-8c0-4.417968-3.582031-8-8-8h-112c-4.421875 0-8 3.582032-8 8v8c.050782 14.546875 9.914063 27.226563 24 30.863282v145.136718h-64v-145.136718c14.082032-3.636719 23.945313-16.316407 24-30.863282v-8c0-4.417968-3.582031-8-8-8h-112c-4.421875 0-8 3.582032-8 8v8c.050782 14.546875 9.914063 27.226563 24 30.863282v145.136718h-64v-145.136718c14.082032-3.636719 23.945313-16.316407 24-30.863282v-8c0-4.417968-3.582031-8-8-8h-112c-4.421875 0-8 3.582032-8 8v8c.050782 14.546875 9.914063 27.226563 24 30.863282v145.136718h-8c-4.421875 0-8 3.582032-8 8v24h-8c-4.421875 0-8 3.582032-8 8v24h-16c-4.421875 0-7.99999975 3.582032-7.99999975 8v32c0 4.417969 3.57812475 8 7.99999975 8h464c4.417969 0 8-3.582031 8-8v-32c0-4.417968-3.582031-8-8-8zm-136-240h96c0 8.835938-7.164062 16-16 16h-64c-8.839844 0-16-7.164062-16-16zm24 32h48v144h-48zm-168-32h96c0 8.835938-7.164062 16-16 16h-64c-8.839844 0-16-7.164062-16-16zm24 32h48v144h-48zm-168-32h96c0 8.835938-7.164062 16-16 16h-64c-8.839844 0-16-7.164062-16-16zm24 32h48v144h-48zm-16 160h368v16h-368zm-16 32h400v16h-400zm424 48h-448v-16h448zm0 0" fill="#1e81ce"/></svg>