<svg height="480pt" viewBox="0 0 480 480.00304" width="480pt" xmlns="http://www.w3.org/2000/svg"><g fill="#78b9eb"><path d="m120 472.003906v-24h-80v-40h80v24c22.09375 0 40 17.90625 40 40zm0 0"/><path d="m384 472.003906h40v-40c-22.089844 0-40 17.90625-40 40zm0 0"/><path d="m424 336.003906v-40h-40c0 22.089844 17.910156 40 40 40zm0 0"/><path d="m160 296.003906c0 22.089844-17.90625 40-40 40v-40zm0 0"/><path d="m336 384.003906c0 35.34375-28.652344 64-64 64-35.34375 0-64-28.65625-64-64 0-35.347656 28.65625-64 64-64 35.347656 0 64 28.652344 64 64zm0 0"/><path d="m200 120.003906h80v80h-80zm0 0"/><path d="m472 248.003906v192h-24v-168h-304v-24zm0 0"/><path d="m472 136.003906-24 40-208-120-208 120-24-40 232-128zm0 0"/><path d="m344 8.003906h80v24h-80zm0 0"/></g><path d="m272 456.003906c39.765625 0 72-32.238281 72-72 0-39.765625-32.234375-72-72-72-39.761719 0-72 32.234375-72 72 .046875 39.746094 32.253906 71.953125 72 72zm0-128c30.929688 0 56 25.070313 56 56 0 30.925782-25.070312 56-56 56-30.925781 0-56-25.074218-56-56 .035156-30.914062 25.089844-55.964844 56-56zm0 0" fill="#006df0"/><path d="m256 400.003906h-16c0 13.253906 10.746094 24 24 24v8h16v-8c13.257812 0 24-10.746094 24-24s-10.742188-24-24-24v-16c4.421875 0 8 3.582032 8 8h16c0-13.253906-10.742188-24-24-24v-8h-16v8c-13.253906 0-24 10.746094-24 24s10.746094 24 24 24v16c-4.417969 0-8-3.582031-8-8zm0-32c0-4.417968 3.582031-8 8-8v16c-4.417969 0-8-3.582031-8-8zm24 24c4.421875 0 8 3.582032 8 8 0 4.417969-3.578125 8-8 8zm0 0" fill="#006df0"/><path d="m472 240.003906h-40v-64l12 6.917969c3.78125 2.183594 8.609375.933594 10.859375-2.808594l24-40c1.117187-1.859375 1.433594-4.097656.867187-6.199219-.5625-2.097656-1.957031-3.878906-3.859374-4.925781l-59.867188-32.984375v-56h8c4.421875 0 8-3.582031 8-8v-24c0-4.417968-3.578125-7.99999975-8-7.99999975h-80c-4.417969 0-8 3.58203175-8 7.99999975v24c0 4.417969 3.582031 8 8 8h8v20.65625l-108.132812-59.664062c-2.40625-1.328125-5.324219-1.328125-7.730469 0l-232 128c-1.902344 1.046875-3.296875 2.828125-3.859375 4.925781-.566406 2.101563-.2500002 4.339844.867187 6.199219l24 40c2.25 3.742187 7.078125 4.992187 10.855469 2.808594l20-11.535157v228.609375h-16c-4.417969 0-8 3.582032-8 8v40c0 4.417969 3.582031 8 8 8h72v16c0 4.417969 3.582031 8 8 8h304c4.421875 0 8-3.582031 8-8h16c4.421875 0 8-3.582031 8-8v-16h16c4.421875 0 8-3.582031 8-8v-192c0-4.417968-3.578125-8-8-8zm-120-224h64v8h-64zm16 24h32v47.136719l-32-17.65625zm-333.183594 125.144532-15.6875-26.144532 220.871094-121.855468 220.875 121.855468-15.6875 26.144532-201.1875-116.074219c-2.472656-1.429688-5.523438-1.429688-8 0zm37.183594-2.984376 168-96.929687 176 101.542969v73.226562h-272c-4.417969 0-8 3.582032-8 8v16h-8c-4.417969 0-8 3.582032-8 8v16c-4.417969 0-8 3.582032-8 8v104h-40zm344 164.800782c-11.253906-2.929688-20.046875-11.710938-22.992188-22.960938h22.992188zm-39.277344-22.960938c3.433594 20.097656 19.179688 35.84375 39.277344 39.277344v81.441406c-20.097656 3.4375-35.84375 19.179688-39.277344 39.28125h-209.441406c-3.433594-20.101562-19.179688-35.84375-39.28125-39.28125v-81.441406c20.101562-3.433594 35.847656-19.179688 39.28125-39.277344zm-248.722656 22.863282v-22.863282h22.867188c-2.929688 11.195313-11.671876 19.9375-22.867188 22.863282zm-80 113.136718v-24h64v24zm80 1.136719c11.195312 2.925781 19.9375 11.667969 22.867188 22.863281h-22.867188zm288 22.863281h-22.992188c2.9375-11.261718 11.730469-20.054687 22.992188-22.984375zm24-8h-8v-160c0-4.417968-3.578125-8-8-8h-288v-8h304zm24-24h-8v-160c0-4.417968-3.578125-8-8-8h-296v-8h312zm0 0" fill="#006df0"/><path d="m200 208.003906h80c4.421875 0 8-3.582031 8-8v-80c0-4.417968-3.578125-8-8-8h-80c-4.417969 0-8 3.582032-8 8v80c0 4.417969 3.582031 8 8 8zm8-40h24v24h-24zm40 24v-24h24v24zm24-40h-24v-24h24zm-40-24v24h-24v-24zm0 0" fill="#006df0"/></svg>