<svg height="479pt" viewBox="0 0 479.97 479" width="479pt" xmlns="http://www.w3.org/2000/svg"><path d="m109.761719 134.246094-45.441407-45.441406c-32.875 37.910156-52.457031 85.527343-55.761718 135.601562h64.160156c3.140625-33.0625 16.03125-64.441406 37.042969-90.160156zm0 0" fill="#9bc9ff"/><path d="m255.921875 9.046875v64.15625c86.027344 8.425781 151.621094 80.761719 151.621094 167.203125s-65.59375 158.773438-151.621094 167.199219v64.160156c121.628906-8.347656 216.027344-109.445313 216.027344-231.359375 0-121.917969-94.398438-223.015625-216.027344-231.359375zm0 0" fill="#9bc9ff"/><path d="m127.921875 256.40625h48v64h-48zm0 0" fill="#9bc9ff"/><path d="m215.921875 208.40625h48v112h-48zm0 0" fill="#9bc9ff"/><path d="m303.921875 160.40625h48v160h-48zm0 0" fill="#9bc9ff"/><g fill="#1e81ce"><path d="m133.214844 121.011719-56.628906-56.605469 6.503906-5.601562c39.175781-34.089844 88.472656-54.359376 140.300781-57.679688l8.53125-.632812v80l-7.25.6875c-31.488281 2.964843-61.378906 15.246093-85.855469 35.273437zm-33.046875-55.671875 34.246093 34.242187c23.867188-17.941406 51.925782-29.472656 81.507813-33.503906v-48.320313c-42.371094 4.351563-82.574219 20.878907-115.753906 47.582032zm0 0"/><path d="m80 232.40625h-80l.574219-8.527344c3.332031-51.820312 23.601562-101.105468 57.691406-140.273437l5.597656-6.503907 56.632813 56.632813-4.566406 5.597656c-20 24.476563-32.257813 54.355469-35.210938 85.824219zm-62.726562-16h48.320312c4.035156-29.585938 15.578125-57.644531 33.527344-81.503906l-34.242188-34.25c-26.714844 33.175781-43.25 73.378906-47.605468 115.753906zm0 0"/><path d="m247.921875 480.324219v-80l7.238281-.6875c82.09375-7.816407 144.792969-76.765625 144.792969-159.230469 0-82.46875-62.699219-151.417969-144.792969-159.234375l-7.238281-.6875v-80l8.535156.585937c125.835938 8.613282 223.511719 113.203126 223.511719 239.335938s-97.675781 230.722656-223.511719 239.335938zm16-65.597657v48.320313c113.757813-12.21875 200.011719-108.226563 200.011719-222.640625s-86.253906-210.425781-200.011719-222.640625v48.3125c87.015625 12.078125 151.796875 86.476563 151.796875 174.328125 0 87.847656-64.78125 162.246094-151.796875 174.328125zm0 0"/><path d="m231.921875 480.316406-8.539063-.574218c-119.40625-8.375-214.425781-103.394532-222.796874-222.800782l-.5781255-8.535156h79.9999995l.6875 7.246094c7.234376 76.332031 67.667969 136.765625 144 144l7.226563.671875zm-214.640625-215.910156c11.410156 104.613281 94.023438 187.226562 198.640625 198.640625v-48.304687c-78.160156-10.722657-139.617187-72.179688-150.335937-150.335938zm0 0"/><path d="m183.921875 328.40625h-64v-80h64zm-48-16h32v-48h-32zm0 0"/><path d="m271.921875 328.40625h-64v-128h64zm-48-16h32v-96h-32zm0 0"/><path d="m359.921875 328.40625h-64v-176h64zm-48-16h32v-144h-32zm0 0"/></g></svg>