<svg height="480pt" viewBox="0 0 480 480" width="480pt" xmlns="http://www.w3.org/2000/svg"><path d="m208 288.320312v39.679688h8v8c.027344 8.824219 7.175781 15.972656 16 16h16c8.824219-.027344 15.972656-7.175781 16-16v-8h8v-40h-64zm0 0" fill="#78b9eb"/><path d="m472 80c0 39.765625-32.234375 72-72 72s-72-32.234375-72-72 32.234375-72 72-72 72 32.234375 72 72zm0 0" fill="#78b9eb"/><path d="m129.28125 373.359375 12.957031-12.960937-22.636719-22.636719-12.960937 12.957031c-3.382813-1.839844-6.949219-3.3125-10.640625-4.398438v-18.320312h-32v18.320312c-3.691406 1.085938-7.257812 2.558594-10.640625 4.398438l-12.960937-12.957031-22.636719 22.636719 12.957031 12.960937c-1.839844 3.382813-3.3125 6.949219-4.398438 10.640625h-18.320312v32h18.320312c1.085938 3.691406 2.558594 7.257812 4.398438 10.640625l-12.957031 12.960937 22.636719 22.636719 12.960937-12.957031c3.382813 1.839844 6.949219 3.3125 10.640625 4.398438v18.320312h32v-18.320312c3.691406-1.085938 7.257812-2.558594 10.640625-4.398438l12.960937 12.957031 22.636719-22.636719-12.957031-12.960937c1.839844-3.382813 3.3125-6.949219 4.398438-10.640625h18.320312v-32h-18.320312c-1.085938-3.691406-2.558594-7.257812-4.398438-10.640625zm-49.28125 50.640625c-13.253906 0-24-10.746094-24-24s10.746094-24 24-24 24 10.746094 24 24-10.746094 24-24 24zm0 0" fill="#78b9eb"/><g fill="#006df0"><path d="m48 400c0 17.671875 14.328125 32 32 32s32-14.328125 32-32-14.328125-32-32-32-32 14.328125-32 32zm48 0c0 8.835938-7.164062 16-16 16s-16-7.164062-16-16 7.164062-16 16-16 16 7.164062 16 16zm0 0"/><path d="m263.839844 166.398438c-.578125-2.890626-2.703125-5.226563-5.523438-6.082032-2.824218-.855468-5.886718-.085937-7.972656 1.996094l-10.34375 10.375-10.34375-10.34375c-2.085938-2.082031-5.148438-2.847656-7.972656-1.996094-2.820313.855469-4.945313 3.195313-5.523438 6.085938l-6.71875 33.566406h-9.441406v16h16c3.800781 0 7.078125-2.675781 7.839844-6.398438l5.070312-25.34375 5.433594 5.429688c3.125 3.125 8.1875 3.125 11.3125 0l5.433594-5.429688 5.070312 25.34375c.761719 3.722657 4.039063 6.398438 7.839844 6.398438h16v-16h-9.441406zm0 0"/><path d="m400 0c-42.597656.0351562-77.699219 33.449219-79.832031 75.996094-2.132813 42.542968 29.449219 79.300781 71.832031 83.597656v16.40625c0 13.253906-10.746094 24-24 24h-32.535156c.222656-2.65625.535156-5.304688.535156-8 .128906-50.519531-38.921875-92.496094-89.320312-96.011719-50.398438-3.515625-94.898438 32.632813-101.785157 82.683594-.953125 7.070313-1.128906 14.222656-.527343 21.328125h-32.367188c-22.082031.027344-39.972656 17.917969-40 40v80h-8c-4.417969 0-8 3.582031-8 8v12.671875l-.984375.40625-8.960937-8.957031c-3.121094-3.125-8.1875-3.125-11.3125 0l-22.621094 22.621094c-3.125 3.125-3.125 8.191406 0 11.3125l8.957031 8.960937-.40625.984375h-12.671875c-4.417969 0-8 3.582031-8 8v32c0 4.417969 3.582031 8 8 8h12.671875l.40625.984375-8.957031 8.960937c-3.125 3.121094-3.125 8.1875 0 11.3125l22.621094 22.621094c3.175781 3.003906 8.140624 3.003906 11.3125 0l8.960937-8.957031.984375.40625v12.671875c0 4.417969 3.582031 8 8 8h32c4.417969 0 8-3.582031 8-8v-12.671875l.984375-.40625 8.960937 8.957031c3.121094 3.125 8.1875 3.125 11.3125 0l22.621094-22.621094c3.125-3.125 3.125-8.191406 0-11.3125l-8.957031-8.960937.40625-.984375h12.671875c4.417969 0 8-3.582031 8-8v-32c0-4.417969-3.582031-8-8-8h-12.671875l-.40625-.984375 8.957031-8.960937c3.125-3.121094 3.125-8.1875 0-11.3125l-22.621094-22.621094c-3.175781-3.003906-8.140624-3.003906-11.3125 0l-8.960937 8.957031-.984375-.40625v-12.671875c0-4.417969-3.582031-8-8-8h-8v-80c0-13.253906 10.746094-24 24-24h35.136719c6.398437 24.835938 22.484375 46.066406 44.664062 58.945312 2.160157 1.269532 4.015625 2.996094 5.4375 5.054688h-5.238281v16h8v32c0 4.417969 3.582031 8 8 8 0 13.253906 10.746094 24 24 24h16c13.253906 0 24-10.746094 24-24 4.417969 0 8-3.582031 8-8v-32h8v-16h-5.414062c1.359374-1.96875 3.140624-3.605469 5.214843-4.800781 22.339844-12.902344 38.574219-34.226563 45.054688-59.199219h35.144531c22.082031-.027344 39.972656-17.917969 40-40v-16.40625c42.382812-4.296875 73.964844-41.054688 71.832031-83.597656-2.132812-42.546875-37.234375-75.9609378-79.832031-75.996094zm-306.28125 354.015625c3.160156.933594 6.214844 2.191406 9.113281 3.753906 3.113281 1.683594 6.960938 1.125 9.464844-1.378906l7.304687-7.300781 11.308594 11.308594-7.300781 7.304687c-2.503906 2.503906-3.0625 6.351563-1.378906 9.464844 1.5625 2.898437 2.820312 5.953125 3.753906 9.113281 1.007813 3.390625 4.125 5.71875 7.664063 5.71875h10.351562v16h-10.351562c-3.539063 0-6.65625 2.328125-7.664063 5.71875-.933594 3.160156-2.191406 6.214844-3.753906 9.113281-1.683594 3.113281-1.125 6.960938 1.378906 9.464844l7.300781 7.304687-11.308594 11.308594-7.304687-7.300781c-2.503906-2.503906-6.351563-3.0625-9.464844-1.378906-2.898437 1.5625-5.953125 2.820312-9.113281 3.753906-3.390625 1.007813-5.71875 4.125-5.71875 7.664063v10.351562h-16v-10.351562c0-3.539063-2.328125-6.65625-5.71875-7.664063-3.160156-.933594-6.214844-2.191406-9.113281-3.753906-3.113281-1.683594-6.960938-1.125-9.464844 1.378906l-7.304687 7.300781-11.308594-11.308594 7.300781-7.304687c2.503906-2.503906 3.0625-6.351563 1.378906-9.464844-1.5625-2.898437-2.820312-5.953125-3.753906-9.113281-1.007813-3.390625-4.125-5.71875-7.664063-5.71875h-10.351562v-16h10.351562c3.539063 0 6.65625-2.328125 7.664063-5.71875.933594-3.160156 2.191406-6.214844 3.753906-9.113281 1.683594-3.113281 1.125-6.960938-1.378906-9.464844l-7.300781-7.304687 11.308594-11.308594 7.304687 7.300781c2.503906 2.503906 6.351563 3.0625 9.464844 1.378906 2.898437-1.5625 5.953125-2.820312 9.113281-3.753906 3.390625-1.007813 5.71875-4.125 5.71875-7.664063v-10.351562h16v10.351562c0 3.539063 2.328125 6.65625 5.71875 7.664063zm154.28125-10.015625h-16c-4.417969 0-8-3.582031-8-8h32c0 4.417969-3.582031 8-8 8zm16-24h-48v-24h48zm15.832031-58.695312c-7.214843 4.019531-12.53125 10.746093-14.777343 18.695312h-50.222657c-2.347656-8.007812-7.726562-14.785156-14.992187-18.886719-17.242188-10.003906-30.121094-26.09375-36.097656-45.113281h20.257812v-16h-23.527344c-4.617187-43.453125 26.671875-82.5 70.085938-87.464844 22.707031-2.699218 45.484375 4.449219 62.578125 19.636719 17.089843 15.1875 26.871093 36.960937 26.863281 59.828125-.042969 2.675781-.21875 5.34375-.535156 8h-23.464844v16h20.128906c-6.019531 19.101562-18.96875 35.261719-36.296875 45.304688zm120.167969-117.304688c-35.347656 0-64-28.652344-64-64s28.652344-64 64-64 64 28.652344 64 64c-.039062 35.328125-28.671875 63.960938-64 64zm0 0"/><path d="m392 56h16c4.417969 0 8 3.582031 8 8h16c0-13.253906-10.746094-24-24-24v-8h-16v8c-13.253906 0-24 10.746094-24 24s10.746094 24 24 24h16c4.417969 0 8 3.582031 8 8s-3.582031 8-8 8h-16c-4.417969 0-8-3.582031-8-8h-16c0 13.253906 10.746094 24 24 24v8h16v-8c13.253906 0 24-10.746094 24-24s-10.746094-24-24-24h-16c-4.417969 0-8-3.582031-8-8s3.582031-8 8-8zm0 0"/><path d="m392 376h16v16h-16zm0 0"/><path d="m408 392h16v16h-16zm0 0"/><path d="m392 408h16v16h-16zm0 0"/><path d="m376 392h16v16h-16zm0 0"/><path d="m72 56h16v16h-16zm0 0"/><path d="m88 72h16v16h-16zm0 0"/><path d="m72 88h16v16h-16zm0 0"/><path d="m56 72h16v16h-16zm0 0"/></g></svg>