<svg height="480pt" viewBox="0 0 480 480.00699" width="480pt" xmlns="http://www.w3.org/2000/svg"><path d="m272.003906 288.007812v40h-8v8c-.027344 8.824219-7.175781 15.972657-16 16h-16c-8.824218-.027343-15.972656-7.175781-16-16v-8h-8v-40zm0 0" fill="#78b9eb"/><path d="m152.003906 104.007812v-32h-18.320312c-1.085938-3.695312-2.558594-7.261718-4.398438-10.640624l12.957032-12.960938-22.640626-22.640625-12.957031 12.960937c-3.382812-1.839843-6.949219-3.316406-10.640625-4.398437v-18.320313h-32v18.320313c-3.691406 1.082031-7.261718 2.558594-10.640625 4.398437l-12.960937-12.960937-22.640625 22.640625 12.960937 12.960938c-1.839844 3.378906-3.316406 6.945312-4.398437 10.640624h-18.320313v32h18.320313c1.082031 3.691407 2.558593 7.257813 4.398437 10.640626l-12.960937 12.957031 22.640625 22.640625 12.960937-12.960938c3.378907 1.84375 6.949219 3.316406 10.640625 4.402344v18.320312h32v-18.320312c3.691406-1.085938 7.257813-2.558594 10.640625-4.402344l12.957031 12.960938 22.640626-22.640625-12.957032-12.957031c1.839844-3.382813 3.3125-6.949219 4.398438-10.640626zm-72 8c-13.253906 0-24-10.746093-24-24 0-13.253906 10.746094-24 24-24s24 10.746094 24 24c0 13.253907-10.746094 24-24 24zm0 0" fill="#78b9eb"/><path d="m472.003906 80.007812c0 39.765626-32.234375 72-72 72s-72-32.234374-72-72c0-39.765624 32.234375-72 72-72s72 32.234376 72 72zm0 0" fill="#78b9eb"/><path d="m472.003906 424.007812v16c0 17.671876-14.328125 32-32 32h-400c-17.671875 0-32-14.328124-32-32v-16zm0 0" fill="#78b9eb"/><g fill="#006df0"><path d="m8.003906 112.007812h12.671875l.40625.984376-8.957031 8.957031c-3.125 3.125-3.125 8.191406 0 11.3125l22.621094 22.625c3.125 3.125 8.1875 3.125 11.3125 0l8.960937-8.960938.984375.410157v12.671874c0 4.417969 3.582032 8 8 8h8v8c.027344 22.078126 17.917969 39.972657 40 40h35.136719c6.398437 24.832032 22.484375 46.066407 44.664063 58.941407 2.15625 1.273437 4.015624 2.996093 5.4375 5.058593h-5.238282v16h8v32c0 4.417969 3.582032 8 8 8 0 13.253907 10.746094 24 24 24h16c13.253906 0 24-10.746093 24-24 4.417969 0 8-3.582031 8-8v-32h8v-16h-5.417968c1.363281-1.96875 3.148437-3.609374 5.226562-4.800781 22.335938-12.90625 38.566406-34.230469 45.046875-59.199219h35.144531c22.078125-.027343 39.972656-17.921874 40-40v-16.410156c42.410156-4.261718 74.035156-41.03125 71.898438-83.601562-2.132813-42.574219-37.273438-75.996094-79.898438-75.996094s-77.765625 33.421875-79.898437 75.996094c-2.136719 42.570312 29.484375 79.339844 71.898437 83.601562v16.410156c0 13.253907-10.746094 24-24 24h-32.535156c.222656-2.65625.535156-5.304687.535156-8 .128906-50.523437-38.921875-92.5-89.320312-96.011718-50.398438-3.515625-94.898438 32.632812-101.785156 82.683594-.953126 7.066406-1.128907 14.21875-.519532 21.328124h-32.375c-13.253906 0-24-10.746093-24-24v-8h8c4.417969 0 8-3.582031 8-8v-12.671874l.984375-.410157 8.960938 8.960938c3.171875 3 8.136719 3 11.308593 0l22.625-22.625c3.125-3.121094 3.125-8.1875 0-11.3125l-8.960937-8.957031.410156-.984376h12.671875c4.417969 0 8-3.582031 8-8v-32c0-4.417968-3.582031-8-8-8h-12.671875l-.410156-.984374 8.960937-8.960938c3.125-3.125 3.125-8.1875 0-11.3125l-22.625-22.621094c-3.121093-3.125-8.1875-3.125-11.308593 0l-8.960938 8.957032-.984375-.40625v-12.671876c0-4.417968-3.582031-8-8-8h-32c-4.417968 0-8 3.582032-8 8v12.671876l-.984375.40625-8.960937-8.957032c-3.171875-3.003906-8.136719-3.003906-11.3125 0l-22.621094 22.621094c-3.125 3.125-3.125 8.1875 0 11.3125l8.957031 8.960938-.40625.984374h-12.671875c-4.417968 0-7.99999975 3.582032-7.99999975 8v32c0 4.417969 3.58203175 8 7.99999975 8zm328-32c0-35.347656 28.652344-64 64-64s64 28.652344 64 64c0 35.34375-28.652344 64-64 64-35.332031-.039062-63.960937-28.671874-64-64zm-88 264h-16c-4.417968 0-8-3.582031-8-8h32c0 4.417969-3.582031 8-8 8zm16-24h-48v-24h48zm-103.199218-139.199218c5.207031-35.898438 33.796874-63.867188 69.796874-68.28125 22.773438-2.792969 45.636719 4.414062 62.691407 19.757812 16.996093 15.199219 26.710937 36.921875 26.710937 59.722656-.042968 2.671876-.222656 5.34375-.535156 8h-23.464844v16h20.121094c-6.015625 19.101563-18.960938 35.261719-36.289062 45.304688-7.214844 4.019531-12.53125 10.746094-14.777344 18.695312h-50.222656c-2.34375-8.011718-7.726563-14.789062-15-18.890624-17.238282-10.003907-30.113282-26.09375-36.089844-45.109376h20.257812v-16h-23.527344c-.648437-6.390624-.539062-12.835937.328126-19.199218zm-144.800782-100.800782h10.351563c3.535156 0 6.652343-2.324218 7.664062-5.710937.933594-3.160156 2.191407-6.214844 3.753907-9.113281 1.6875-3.113282 1.128906-6.96875-1.378907-9.472656l-7.304687-7.304688 11.3125-11.3125 7.304687 7.304688c2.503907 2.5 6.351563 3.0625 9.464844 1.375 2.898437-1.558594 5.953125-2.816407 9.113281-3.75 3.390625-1.007813 5.714844-4.125 5.71875-7.664063v-10.351563h16v10.351563c0 3.539063 2.328125 6.65625 5.71875 7.664063 3.160156.933593 6.210938 2.191406 9.113282 3.75 3.113281 1.6875 6.960937 1.125 9.464843-1.375l7.300781-7.304688 11.3125 11.3125-7.300781 7.304688c-2.507812 2.503906-3.066406 6.359374-1.378906 9.472656 1.5625 2.898437 2.820313 5.953125 3.753906 9.113281 1.011719 3.386719 4.125 5.710937 7.664063 5.710937h10.351562v16h-10.351562c-3.539063 0-6.652344 2.324219-7.664063 5.710938-.933593 3.160156-2.191406 6.210938-3.753906 9.113281-1.6875 3.113281-1.128906 6.964844 1.378906 9.472657l7.300781 7.300781-11.3125 11.3125-7.300781-7.304688c-2.503906-2.5-6.351562-3.058593-9.464843-1.375-2.902344 1.5625-5.953126 2.820313-9.113282 3.753907-3.390625 1.007812-5.71875 4.125-5.71875 7.664062v10.351562h-16v-10.351562c-.003906-3.539062-2.328125-6.65625-5.71875-7.664062-3.160156-.933594-6.214844-2.191407-9.113281-3.753907-3.113281-1.683593-6.960937-1.125-9.464844 1.375l-7.304687 7.304688-11.3125-11.3125 7.304687-7.300781c2.507813-2.507813 3.066407-6.359376 1.378907-9.472657-1.5625-2.902343-2.820313-5.953125-3.753907-9.113281-1.011719-3.386719-4.128906-5.710938-7.664062-5.710938h-10.351563zm0 0"/><path d="m80.003906 120.007812c17.671875 0 32-14.328124 32-32 0-17.675781-14.328125-32-32-32s-32 14.324219-32 32c0 17.671876 14.328125 32 32 32zm0-48c8.835938 0 16 7.164063 16 16 0 8.835938-7.164062 16-16 16-8.835937 0-16-7.164062-16-16 0-8.835937 7.164063-16 16-16zm0 0"/><path d="m223.84375 209.605469 5.070312-25.34375 5.433594 5.433593c3.125 3.121094 8.1875 3.121094 11.3125 0l5.429688-5.433593 5.074218 25.34375c.761719 3.726562 4.039063 6.402343 7.839844 6.402343h16v-16h-9.449218l-6.710938-33.601562c-.582031-2.890625-2.703125-5.226562-5.523438-6.082031-2.824218-.855469-5.886718-.089844-7.972656 1.996093l-10.34375 10.375-10.34375-10.34375c-2.085937-2.082031-5.148437-2.851562-7.972656-1.996093-2.820312.855469-4.945312 3.191406-5.523438 6.082031l-6.710937 33.570312h-9.449219v16h16c3.800782 0 7.078125-2.675781 7.839844-6.402343zm0 0"/><path d="m408.003906 128.007812v-8c13.253906 0 24-10.746093 24-24 0-13.253906-10.746094-24-24-24h-16c-4.417968 0-8-3.582031-8-8 0-4.417968 3.582032-8 8-8h16c4.417969 0 8 3.582032 8 8h16c0-13.253906-10.746094-24-24-24v-8h-16v8c-13.253906 0-24 10.746094-24 24 0 13.253907 10.746094 24 24 24h16c4.417969 0 8 3.582032 8 8 0 4.417969-3.582031 8-8 8h-16c-4.417968 0-8-3.582031-8-8h-16c0 13.253907 10.746094 24 24 24v8zm0 0"/><path d="m472.003906 416.007812h-217.761718c4.515624-5.070312 10.972656-7.980468 17.761718-8h192v-16h-192c-7.878906-.003906-15.582031 2.335938-22.128906 6.71875 3.738281-8.914062 12.460938-14.71875 22.128906-14.71875h176v-16h-176c-12.640625.035157-24.511718 6.0625-32 16.246094-7.488281-10.183594-19.359375-16.210937-32-16.246094h-176v16h176c9.667969 0 18.390625 5.804688 22.128906 14.71875-6.546874-4.382812-14.25-6.722656-22.128906-6.71875h-192v16h192c6.789063.019532 13.246094 2.929688 17.757813 8h-217.757813c-4.417968 0-7.99999975 3.582032-7.99999975 8v16c.02734375 22.078126 17.91796875 39.972657 39.99999975 40h400c22.078125-.027343 39.972656-17.921874 40-40v-16c0-4.417968-3.582031-8-8-8zm-8 24c0 13.253907-10.746094 24-24 24h-400c-13.253906 0-24-10.746093-24-24v-8h448zm0 0"/><path d="m392.003906 280.007812h16v16h-16zm0 0"/><path d="m408.003906 296.007812h16v16h-16zm0 0"/><path d="m392.003906 312.007812h16v16h-16zm0 0"/><path d="m376.003906 296.007812h16v16h-16zm0 0"/><path d="m72.003906 280.007812h16v16h-16zm0 0"/><path d="m88.003906 296.007812h16v16h-16zm0 0"/><path d="m72.003906 312.007812h16v16h-16zm0 0"/><path d="m56.003906 296.007812h16v16h-16zm0 0"/></g></svg>