<svg height="480pt" viewBox="0 0 480 480" width="480pt" xmlns="http://www.w3.org/2000/svg"><g fill="#9bc9ff"><path d="m440 8h-400c-17.671875 0-32 14.328125-32 32v288c0 17.671875 14.328125 32 32 32h400c17.671875 0 32-14.328125 32-32v-288c0-17.671875-14.328125-32-32-32zm0 288h-400v-256h400zm0 0"/><path d="m184 360h112v48h-112zm0 0"/><path d="m152 408c-17.671875 0-32 14.328125-32 32v32h240v-32c0-17.671875-14.328125-32-32-32zm0 0"/><path d="m136 216c0 8.835938-7.164062 16-16 16s-16-7.164062-16-16 7.164062-16 16-16 16 7.164062 16 16zm0 0"/><path d="m208 160c0 8.835938-7.164062 16-16 16s-16-7.164062-16-16 7.164062-16 16-16 16 7.164062 16 16zm0 0"/><path d="m280 192c0 8.835938-7.164062 16-16 16s-16-7.164062-16-16 7.164062-16 16-16 16 7.164062 16 16zm0 0"/><path d="m368 128c0 8.835938-7.164062 16-16 16s-16-7.164062-16-16 7.164062-16 16-16 16 7.164062 16 16zm0 0"/></g><path d="m448 304h-416v-272h416zm-400-16h384v-240h-384zm0 0" fill="#1e81ce"/><path d="m400 272h-336v-192h16v176h320zm0 0" fill="#1e81ce"/><path d="m352 104c-13.253906 0-24 10.746094-24 24 .03125 2.300781.402344 4.582031 1.097656 6.777344l-51.496094 37.453125c-9.707031-6.714844-22.867187-5.308594-30.9375 3.304687l-30.808593-13.726562c.046875-.609375.183593-1.191406.183593-1.808594 0-13.253906-10.746093-24-24-24-13.253906 0-24 10.746094-24 24 .03125 2.554688.476563 5.089844 1.320313 7.503906l-36.421875 28.320313c-10.117188-6.695313-23.59375-5.089844-31.851562 3.792969-8.261719 8.886718-8.878907 22.441406-1.46875 32.042968 7.414062 9.601563 20.6875 12.433594 31.371093 6.691406 10.6875-5.746093 15.648438-18.375 11.730469-29.855468l36.425781-28.320313c9.65625 6.265625 22.414063 4.699219 30.269531-3.710937l30.808594 13.726562c-.046875.609375-.183594 1.191406-.183594 1.808594 0 13.253906 10.746094 24 24 24 13.253907 0 24-10.746094 24-24-.03125-2.300781-.398437-4.582031-1.09375-6.777344l51.535157-37.453125c3.972656 2.75 8.6875 4.226563 13.519531 4.230469 13.253906 0 24-10.746094 24-24s-10.746094-24-24-24zm-232 120c-4.417969 0-8-3.582031-8-8s3.582031-8 8-8 8 3.582031 8 8-3.582031 8-8 8zm72-56c-4.417969 0-8-3.582031-8-8s3.582031-8 8-8 8 3.582031 8 8-3.582031 8-8 8zm72 32c-4.417969 0-8-3.582031-8-8s3.582031-8 8-8 8 3.582031 8 8-3.582031 8-8 8zm88-64c-4.417969 0-8-3.582031-8-8s3.582031-8 8-8 8 3.582031 8 8-3.582031 8-8 8zm0 0" fill="#1e81ce"/><path d="m440 0h-400c-22.082031.0273438-39.9726562 17.917969-40 40v288c.0273438 22.082031 17.917969 39.972656 40 40h136v32h-24c-22.082031.027344-39.972656 17.917969-40 40v24h-40v16h336v-16h-40v-24c-.027344-22.082031-17.917969-39.972656-40-40h-24v-32h136c22.082031-.027344 39.972656-17.917969 40-40v-288c-.027344-22.082031-17.917969-39.9726562-40-40zm-112 416c13.253906 0 24 10.746094 24 24v24h-224v-24c0-13.253906 10.746094-24 24-24zm-40-16h-96v-32h96zm176-72c0 13.253906-10.746094 24-24 24h-400c-13.253906 0-24-10.746094-24-24v-288c0-13.253906 10.746094-24 24-24h400c13.253906 0 24 10.746094 24 24zm0 0" fill="#1e81ce"/><path d="m216 320h16v16h-16zm0 0" fill="#1e81ce"/><path d="m248 320h16v16h-16zm0 0" fill="#1e81ce"/></svg>