<svg height="480pt" viewBox="-40 0 480 480" width="480pt" xmlns="http://www.w3.org/2000/svg"><g fill="#9bc9ff"><path d="m48 440c0 17.671875 14.328125 32 32 32h240c17.671875 0 32-14.328125 32-32v-48h-304zm136-24h32v32h-32zm0 0"/><path d="m200 160v32c0 17.671875 14.328125 32 32 32s32-14.328125 32-32v-32zm0 0"/><path d="m264 160v32c0 17.671875 14.328125 32 32 32s32-14.328125 32-32v-32zm0 0"/><path d="m328 192c0 17.671875 14.328125 32 32 32s32-14.328125 32-32v-32h-64zm0 0"/><path d="m136 160v32c0 17.671875 14.328125 32 32 32s32-14.328125 32-32v-32zm0 0"/><path d="m72 160v32c0 17.671875 14.328125 32 32 32s32-14.328125 32-32v-32zm0 0"/><path d="m8 160v32c0 17.671875 14.328125 32 32 32s32-14.328125 32-32v-32zm0 0"/><path d="m152 56-16 104h64v-104zm0 0"/><path d="m104 56-32 104h64l16-104zm0 0"/><path d="m104 56h-56l-40 104h64zm0 0"/><path d="m200 56v104h64l-16-104zm0 0"/><path d="m264 160h64l-32-104h-48zm0 0"/><path d="m296 56 32 104h64l-40-104zm0 0"/><path d="m320 160v200h-240v-200h-32v232h304v-232zm0 0"/></g><path d="m160 40h16c4.417969 0 8-3.582031 8-8s-3.582031-8-8-8h-16c-4.417969 0-8 3.582031-8 8s3.582031 8 8 8zm0 0" fill="#1e81ce"/><path d="m208 40h32c4.417969 0 8-3.582031 8-8s-3.582031-8-8-8h-32c-4.417969 0-8 3.582031-8 8s3.582031 8 8 8zm0 0" fill="#1e81ce"/><path d="m216 408h-32c-4.417969 0-8 3.582031-8 8v32c0 4.417969 3.582031 8 8 8h32c4.417969 0 8-3.582031 8-8v-32c0-4.417969-3.582031-8-8-8zm-8 32h-16v-16h16zm0 0" fill="#1e81ce"/><path d="m399.472656 157.128906-39.472656-102.617187v-14.511719c-.027344-22.082031-17.917969-39.9726562-40-40h-240c-22.082031.0273438-39.972656 17.917969-40 40v14.511719l-39.472656 102.617187c-.269532.9375-.4453128 1.898438-.527344 2.871094v32c.0273438 22.082031 17.917969 39.972656 40 40v208c.027344 22.082031 17.917969 39.972656 40 40h240c22.082031-.027344 39.972656-17.917969 40-40v-208c22.082031-.027344 39.972656-17.917969 40-40v-32c-.082031-.972656-.257812-1.933594-.527344-2.871094zm-79.472656 34.871094c0 13.253906-10.746094 24-24 24s-24-10.746094-24-24v-24h48zm-64 0c0 13.253906-10.746094 24-24 24s-24-10.746094-24-24v-24h48zm-64 0c0 13.253906-10.746094 24-24 24s-24-10.746094-24-24v-24h48zm-64 0c0 13.253906-10.746094 24-24 24s-24-10.746094-24-24v-24h48zm113.136719-128 13.535156 88h-46.671875v-88zm48.953125 0 27.078125 88h-46.304688l-13.535156-88zm-98.089844 88h-46.671875l13.535156-88h33.136719zm-62.863281 0h-46.304688l27.078125-88h32.761719zm204.800781 0-27.105469-88h39.671875l33.847656 88zm-253.9375-136h240c13.253906 0 24 10.746094 24 24v8h-288v-8c0-13.253906 10.746094-24 24-24zm-26.503906 48h39.671875l-27.078125 88h-46.402344zm-37.496094 128v-24h48v24c0 13.253906-10.746094 24-24 24s-24-10.746094-24-24zm304 272h-240c-13.253906 0-24-10.746094-24-24v-40h288v40c0 13.253906-10.746094 24-24 24zm24-80h-288v-155.390625c6.355469-2.828125 11.871094-7.257813 16-12.855469 7.460938 10.210938 19.351562 16.25 32 16.25s24.539062-6.039062 32-16.25c7.460938 10.210938 19.351562 16.25 32 16.25s24.539062-6.039062 32-16.25c7.460938 10.210938 19.351562 16.25 32 16.25s24.539062-6.039062 32-16.25c7.460938 10.210938 19.351562 16.25 32 16.25s24.539062-6.039062 32-16.25c4.128906 5.597656 9.644531 10.027344 16 12.855469zm40-192c0 13.253906-10.746094 24-24 24s-24-10.746094-24-24v-24h48zm0 0" fill="#1e81ce"/><path d="m320 240c-4.417969 0-8 3.582031-8 8v104h-224v-104c0-4.417969-3.582031-8-8-8s-8 3.582031-8 8v112c0 4.417969 3.582031 8 8 8h240c4.417969 0 8-3.582031 8-8v-112c0-4.417969-3.582031-8-8-8zm0 0" fill="#1e81ce"/></svg>