<svg height="480pt" viewBox="0 0 480 480.10182" width="480pt" xmlns="http://www.w3.org/2000/svg"><path d="m400.058594 328.101562c-39.609375 0-71.78125 31.992188-72 71.601563v.398437c0 39.765626 32.234375 72 72 72s72-32.234374 72-72c0-39.765624-32.234375-72-72-72zm0 0" fill="#78b9eb"/><path d="m240.058594 144.101562h24c26.507812 0 48-21.488281 48-48h-24c-26.511719 0-48 21.492188-48 48zm0 0" fill="#78b9eb"/><path d="m192.058594 96.101562h-24c0 26.511719 21.488281 48 48 48h24c0-26.507812-21.492188-48-48-48zm0 0" fill="#78b9eb"/><path d="m280.058594 248.101562v40h-8v16c-.027344 8.824219-7.175782 15.972657-16 16h-32c-8.828125-.027343-15.972656-7.175781-16-16v-16h-8v-40zm0 0" fill="#78b9eb"/><path d="m240.058594 376.101562c-13.253906 0-24 10.746094-24 24 0 13.253907 10.746094 24 24 24s24-10.746093 24-24v-.078124c-.019532-13.234376-10.765625-23.949219-24-23.921876zm0 0" fill="#78b9eb"/><path d="m80.058594 328.101562c-29.847656-.019531-56.609375 18.386719-67.265625 46.265626-10.652344 27.882812-2.988281 59.445312 19.265625 79.335937v-13.601563c0-17.671874 14.328125-32 32-32h32c17.671875 0 32 14.328126 32 32v13.601563c22.253906-19.890625 29.917968-51.453125 19.261718-79.335937-10.652343-27.878907-37.414062-46.285157-67.261718-46.265626zm0 72c-13.253906 0-24-10.746093-24-24 0-13.253906 10.746094-24 24-24s24 10.746094 24 24c0 13.253907-10.746094 24-24 24zm0 0" fill="#78b9eb"/><g fill="#006df0"><path d="m225.65625 49.542969-3.199219-15.679688c-12.757812 2.613281-24.78125 8.023438-35.199219 15.839844l9.601563 12.796875c8.519531-6.394531 18.359375-10.824219 28.796875-12.957031zm0 0"/><path d="m400.058594 320.101562c-40.925782.054688-75.234375 30.945313-79.5625 71.640626l-49.597656.246093c-2.972657-11.132812-11.695313-19.816406-22.839844-22.742187v-41.144532h8c13.253906 0 24-10.746093 24-24v-8c4.417968 0 8-3.582031 8-8v-32h16v-16h-16v-10.121093c52.078125-22.730469 81.078125-78.871094 69.46875-134.496094-11.609375-55.628906-60.644532-95.484375-117.46875-95.484375-56.824219 0-105.859375 39.855469-117.46875 95.484375-11.609375 55.625 17.386718 111.765625 69.46875 134.496094v10.121093h-16v16h16v32c0 4.417969 3.582031 8 8 8v8c0 13.253907 10.746094 24 24 24h8v41.136719c-11.195313 2.925781-19.9375 11.667969-22.863282 22.863281h-49.546874c-4.261719-42.414062-41.03125-74.035156-83.601563-71.898437-42.574219 2.132813-75.9960938 37.273437-75.9960938 79.898437s33.4218748 77.765626 75.9960938 79.898438c42.570313 2.136719 79.339844-29.484375 83.601563-71.898438h49.546874c3.59375 14.136719 16.335938 24.027344 30.921876 24 14.589843-.027343 27.292968-9.960937 30.835937-24.113281l49.488281-.246093c4.125 42.996093 41.632813 74.953124 84.738282 72.195312 43.105468-2.753906 76.238281-39.226562 74.855468-82.398438-1.382812-43.167968-36.785156-77.445312-79.976562-77.4375zm-197.144532-102.953124c-46.847656-17.910157-74.234374-66.707032-65.128906-116.023438 9.109375-49.320312 52.117188-85.117188 102.273438-85.117188 50.152344 0 93.164062 35.796876 102.269531 85.117188 9.109375 49.316406-18.28125 98.113281-65.125 116.023438-3.097656 1.183593-5.140625 4.152343-5.144531 7.464843v15.488281h-24v-88h16c30.914062-.035156 55.964844-25.085937 56-56 0-4.417968-3.582032-8-8-8h-24c-19.6875.03125-37.914063 10.398438-48 27.304688-10.089844-16.90625-28.3125-27.273438-48-27.304688h-24c-4.417969 0-8 3.582032-8 8 .035156 30.914063 25.085937 55.964844 56 56h16v88h-24v-15.488281c-.003906-3.3125-2.050782-6.28125-5.144532-7.464843zm45.945313-81.046876c3.824219-18.613281 20.195313-31.980468 39.199219-32h15.199218c-3.824218 18.613282-20.199218 31.980469-39.199218 32zm-17.601563 0h-15.199218c-19.003906-.019531-35.375-13.386718-39.199219-32h15.199219c19 .019532 35.375 13.386719 39.199218 32zm40.800782 120v24h-64v-24zm-48 56c-4.417969 0-8-3.582031-8-8v-8h48v8c0 4.417969-3.582032 8-8 8zm-184 137.878907v-9.878907c0-13.253906 10.746094-24 24-24h32c13.253906 0 24 10.746094 24 24v9.878907c-23.34375 18.828125-56.65625 18.828125-80 0zm24-73.878907c0-8.835937 7.164062-16 16-16 8.835937 0 16 7.164063 16 16 0 8.835938-7.164063 16-16 16-8.835938 0-16-7.164062-16-16zm71.199218 56.207032c-3.460937-17.03125-17.539062-29.871094-34.816406-31.757813 10.394532-8.601562 14.28125-22.800781 9.707032-35.496093-4.570313-12.695313-16.613282-21.160157-30.105469-21.160157-13.496094 0-25.539063 8.464844-30.109375 21.160157-4.570313 12.695312-.6875 26.894531 9.707031 35.496093-17.265625 1.898438-31.324219 14.738281-34.78125 31.757813-15.777344-26.882813-9.886719-61.222656 13.945313-81.316406 23.832031-20.09375 58.675781-20.09375 82.507812 0s29.71875 54.433593 13.945312 81.316406zm120.800782-32.207032c0 8.835938-7.164063 16-16 16-8.835938 0-16-7.164062-16-16 0-8.835937 7.164062-16 16-16 8.835937 0 16 7.164063 16 16zm144 64c-35.347656 0-64-28.652343-64-64 0-35.347656 28.652344-64 64-64 35.34375 0 64 28.652344 64 64-.039063 35.328126-28.671875 63.960938-64 64zm0 0"/><path d="m392.058594 376.101562h16c4.417968 0 8 3.582032 8 8h16c0-13.253906-10.746094-24-24-24v-8h-16v8c-13.253906 0-24 10.746094-24 24 0 13.253907 10.746094 24 24 24h16c4.417968 0 8 3.582032 8 8 0 4.417969-3.582032 8-8 8h-16c-4.417969 0-8-3.582031-8-8h-16c0 13.253907 10.746094 24 24 24v8h16v-8c13.253906 0 24-10.746093 24-24 0-13.253906-10.746094-24-24-24h-16c-4.417969 0-8-3.582031-8-8 0-4.417968 3.582031-8 8-8zm0 0"/><path d="m88.058594 216.101562h16v16h-16zm0 0"/><path d="m88.058594 248.101562h16v16h-16zm0 0"/><path d="m72.058594 232.101562h16v16h-16zm0 0"/><path d="m104.058594 232.101562h16v16h-16zm0 0"/><path d="m376.058594 216.101562h16v16h-16zm0 0"/><path d="m376.058594 248.101562h16v16h-16zm0 0"/><path d="m360.058594 232.101562h16v16h-16zm0 0"/><path d="m392.058594 232.101562h16v16h-16zm0 0"/></g></svg>