<svg height="480pt" viewBox="0 0 480 480" width="480pt" xmlns="http://www.w3.org/2000/svg"><path d="m72 400h-32c-17.671875 0-32 14.328125-32 32v40h96v-40c0-17.671875-14.328125-32-32-32zm0 0" fill="#78b9eb"/><path d="m440 400h-32c-17.671875 0-32 14.328125-32 32v40h96v-40c0-17.671875-14.328125-32-32-32zm0 0" fill="#78b9eb"/><path d="m280 392h-80c-17.671875 0-32 14.328125-32 32v48h144v-48c0-17.671875-14.328125-32-32-32zm0 0" fill="#78b9eb"/><path d="m240 56h24c26.507812 0 48-21.492188 48-48h-24c-26.507812 0-48 21.492188-48 48zm0 0" fill="#78b9eb"/><path d="m216 72h24c0-26.507812-21.492188-48-48-48h-24c0 26.507812 21.492188 48 48 48zm0 0" fill="#78b9eb"/><g fill="#006df0"><path d="m248 208v-8c13.253906 0 24-10.746094 24-24s-10.746094-24-24-24v-16c4.417969 0 8 3.582031 8 8h16c0-13.253906-10.746094-24-24-24v-8h-16v8c-13.253906 0-24 10.746094-24 24s10.746094 24 24 24v16c-4.417969 0-8-3.582031-8-8h-16c0 13.253906 10.746094 24 24 24v8zm-24-64c0-4.417969 3.582031-8 8-8v16c-4.417969 0-8-3.582031-8-8zm24 24c4.417969 0 8 3.582031 8 8s-3.582031 8-8 8zm0 0"/><path d="m280 384h-13.519531c17.667969-11.6875 25.585937-33.574219 19.484375-53.859375-6.101563-20.289063-24.78125-34.175781-45.964844-34.175781s-39.863281 13.886718-45.964844 34.175781c-6.101562 20.285156 1.816406 42.171875 19.484375 53.859375h-13.519531c-22.082031.027344-39.972656 17.917969-40 40v48c0 4.417969 3.582031 8 8 8h144c4.417969 0 8-3.582031 8-8v-48c-.027344-22.082031-17.917969-39.972656-40-40zm-40-72c17.671875 0 32 14.328125 32 32s-14.328125 32-32 32-32-14.328125-32-32 14.328125-32 32-32zm64 152h-128v-40c0-13.253906 10.746094-24 24-24h80c13.253906 0 24 10.746094 24 24zm0 0"/><path d="m76.40625 392.449219c10.398438-8.601563 14.28125-22.800781 9.710938-35.496094-4.574219-12.695313-16.617188-21.160156-30.109376-21.160156-13.492187 0-25.535156 8.464843-30.109374 21.160156-4.570313 12.695313-.6875 26.894531 9.710937 35.496094-20.210937 2.191406-35.5429688 19.222656-35.609375 39.550781v40c0 4.417969 3.582031 8 8 8h96c4.417969 0 8-3.582031 8-8v-40c-.0625-20.324219-15.386719-37.351562-35.59375-39.550781zm-20.40625-40.449219c8.835938 0 16 7.164062 16 16s-7.164062 16-16 16-16-7.164062-16-16 7.164062-16 16-16zm40 112h-80v-32c0-13.253906 10.746094-24 24-24h32c13.253906 0 24 10.746094 24 24zm0 0"/><path d="m444.40625 392.449219c10.398438-8.601563 14.28125-22.800781 9.710938-35.496094-4.574219-12.695313-16.617188-21.160156-30.109376-21.160156-13.492187 0-25.535156 8.464843-30.109374 21.160156-4.570313 12.695313-.6875 26.894531 9.710937 35.496094-20.210937 2.191406-35.542969 19.222656-35.609375 39.550781v40c0 4.417969 3.582031 8 8 8h96c4.417969 0 8-3.582031 8-8v-40c-.0625-20.324219-15.386719-37.351562-35.59375-39.550781zm-20.40625-40.449219c8.835938 0 16 7.164062 16 16s-7.164062 16-16 16-16-7.164062-16-16 7.164062-16 16-16zm40 112h-80v-32c0-13.253906 10.746094-24 24-24h32c13.253906 0 24 10.746094 24 24zm0 0"/><path d="m64 288c0-13.253906 10.746094-24 24-24h144v24h16v-24h144c13.253906 0 24 10.746094 24 24v32h16v-32c-.027344-22.082031-17.917969-39.972656-40-40h-144v-16.472656c36.339844-4.179688 63.769531-34.949219 63.769531-71.527344s-27.429687-67.347656-63.769531-71.527344v-24.472656h16c30.910156-.039062 55.960938-25.089844 56-56 0-4.417969-3.582031-8-8-8h-24c-23.492188.046875-44.460938 14.738281-52.527344 36.800781-10.601562-13.148437-26.582031-20.792969-43.472656-20.800781h-24c-4.417969 0-8 3.582031-8 8 .039062 30.910156 25.089844 55.960938 56 56h16v8.472656c-36.339844 4.179688-63.769531 34.949219-63.769531 71.527344s27.429687 67.347656 63.769531 71.527344v16.472656h-144c-22.082031.027344-39.972656 17.917969-40 40v24h16zm224-272h15.199219c-3.824219 18.613281-20.199219 31.980469-39.199219 32h-15.199219c3.824219-18.613281 20.199219-31.980469 39.199219-32zm-72 48c-19-.019531-35.375-13.386719-39.199219-32h15.199219c19 .019531 35.375 13.386719 39.199219 32zm-32 96c0-30.929688 25.070312-56 56-56s56 25.070312 56 56-25.070312 56-56 56c-30.910156-.039062-55.960938-25.089844-56-56zm0 0"/><path d="m96 136h16v16h-16zm0 0"/><path d="m112 152h16v16h-16zm0 0"/><path d="m80 152h16v16h-16zm0 0"/><path d="m96 168h16v16h-16zm0 0"/><path d="m368 136h16v16h-16zm0 0"/><path d="m384 152h16v16h-16zm0 0"/><path d="m352 152h16v16h-16zm0 0"/><path d="m368 168h16v16h-16zm0 0"/></g></svg>