<svg height="480pt" viewBox="-31 0 479 480" width="480pt" xmlns="http://www.w3.org/2000/svg"><g fill="#9bc9ff"><path d="m111.933594 10.824219c-8.976563 44.875-48.375 77.175781-94.136719 77.175781h-9.296875v117.0625c0 77.191406 37.125 149.667969 99.769531 194.769531l100.230469 72.167969 100.230469-72.167969c62.644531-45.101562 99.769531-117.578125 99.769531-194.769531v-117.0625h-9.160156c-45.824219 0-85.257813-32.386719-94.167969-77.335938l-.527344-2.664062h-192.144531zm168.742187 29.175781c16.554688 40.625 52.679688 70.007812 95.824219 77.945312v87.117188c-.082031 66.878906-32.238281 129.65625-86.464844 168.800781l-81.535156 58.703125-81.535156-58.703125c-54.222656-39.144531-86.378906-101.921875-86.464844-168.800781v-87.09375c43.191406-7.914062 79.367188-37.308594 95.953125-77.96875zm0 0"/><path d="m327.292969 156.121094-39.601563 5.65625 5.664063-39.601563-45.253907 45.257813-5.65625 39.597656 39.589844-5.65625zm0 0"/><path d="m89.707031 156.121094 45.257813 45.253906 39.589844 5.65625-5.65625-39.597656-45.253907-45.257813 5.664063 39.601563zm0 0"/></g><path d="m208.5 480c-1.675781 0-3.3125-.527344-4.671875-1.503906l-100.238281-72.167969c-64.652344-46.675781-102.992188-121.527344-103.089844-201.265625v-117.0625c0-4.417969 3.582031-8 8-8h9.304688c41.914062-.09375 77.976562-29.660156 86.289062-70.742188l.566406-2.859374c.761719-3.722657 4.039063-6.398438 7.839844-6.398438h192.144531c3.800781 0 7.078125 2.675781 7.839844 6.398438l.527344 2.664062c8.226562 41.175781 44.332031 70.847656 86.320312 70.9375h9.167969c4.417969 0 8 3.582031 8 8v117.0625c-.097656 79.742188-38.441406 154.59375-103.097656 201.265625l-100.230469 72.167969c-1.359375.976562-2.996094 1.503906-4.671875 1.503906zm-192-384v109.0625c.089844 74.59375 35.957031 144.617188 96.441406 188.273438l95.558594 68.808593 95.558594-68.800781c60.484375-43.660156 96.351562-113.683594 96.441406-188.28125v-109.0625h-1.167969c-48.15625-.09375-89.984375-33.164062-101.183593-80h-179.152344c-11.21875 46.828125-53.039063 79.890625-101.191406 80zm292.230469 303.832031" fill="#1e81ce"/><path d="m208.5 440.566406c-1.675781.003906-3.3125-.523437-4.671875-1.503906l-81.535156-58.710938c-56.3125-40.648437-89.707031-105.839843-89.792969-175.289062v-87.09375c0-3.871094 2.769531-7.183594 6.574219-7.871094 40.449219-7.527344 74.324219-35.050781 89.960937-73.105468 1.226563-3.019532 4.160156-4.992188 7.417969-4.992188h144.222656c3.261719 0 6.195313 1.976562 7.417969 5 15.617188 38.019531 49.441406 65.527344 89.847656 73.070312 3.800782.695313 6.558594 4.011719 6.558594 7.875v87.117188c-.082031 69.449219-33.480469 134.644531-89.792969 175.289062l-81.535156 58.710938c-1.359375.980469-2.996094 1.507812-4.671875 1.503906zm-160-316.09375v80.589844c.078125 64.308594 31 124.671875 83.144531 162.304688l76.855469 55.34375 76.863281-55.34375c52.136719-37.636719 83.058594-98 83.136719-162.304688v-80.621094c-41.128906-9.816406-75.460938-38.007812-93.089844-76.441406h-133.695312c-17.65625 38.472656-52.035156 66.675781-93.214844 76.472656zm0 0" fill="#1e81ce"/><path d="m283.171875 209.289062c1.710937-.246093 3.296875-1.042968 4.519531-2.265624l45.265625-45.246094c2.457031-2.433594 3.070313-6.167969 1.527344-9.261719-1.542969-3.089844-4.898437-4.84375-8.320313-4.339844l-29.039062 4.144531 4.152344-29.03125c.5-3.421874-1.25-6.777343-4.34375-8.320312-3.089844-1.546875-6.824219-.929688-9.257813 1.527344l-45.246093 45.257812c-1.226563 1.21875-2.019532 2.804688-2.265626 4.519532l-5.265624 36.992187-26.398438 26.398437-26.398438-26.398437-5.28125-36.960937c-.242187-1.714844-1.035156-3.300782-2.265624-4.519532l-45.253907-45.265625c-2.433593-2.457031-6.167969-3.074219-9.261719-1.527343-3.089843 1.542968-4.84375 4.898437-4.339843 8.320312l4.144531 29.03125-29.039062-4.144531c-3.417969-.496094-6.773438 1.253906-8.3125 4.347656-1.542969 3.089844-.925782 6.820313 1.527343 9.253906l45.28125 45.222657c1.21875 1.226562 2.804688 2.023437 4.519531 2.265624l36.960938 5.277344 26.398438 26.402344-64 64.046875 3.136718-28.246094c.488282-4.394531-2.675781-8.347656-7.070312-8.835937-4.390625-.488282-8.347656 2.675781-8.835938 7.066406l-5.652344 50.910156c-.257812 2.40625.585938 4.792969 2.296876 6.503906 1.707031 1.707032 4.097656 2.554688 6.5 2.296876l50.921874-5.65625c4.390626-.488282 7.554688-4.441407 7.066407-8.835938-.488281-4.390625-4.441407-7.554688-8.835938-7.066406l-28.207031 3.175781 64-64.046875 64.039062 64.046875-28.238281-3.144531c-4.390625-.488282-8.347656 2.675781-8.835937 7.070312-.488282 4.390625 2.675781 8.347656 7.066406 8.835938l50.90625 5.652344c.292969.035156.589844.050781.886719.050781 2.273437 0 4.441406-.96875 5.960937-2.664063 1.515625-1.695312 2.242188-3.957031 1.992188-6.21875l-5.65625-50.910156c-.488282-4.394531-4.445313-7.558594-8.839844-7.070312-4.394531.488281-7.5625 4.445312-7.074219 8.839843l3.144531 28.238281-64-64 26.402344-26.398437zm-27.527344-38.089843 26.398438-26.398438-2.261719 15.832031c-.359375 2.492188.480469 5.011719 2.261719 6.792969 1.78125 1.785157 4.300781 2.621094 6.792969 2.253907l15.839843-2.253907-26.398437 26.398438-26.402344 3.769531zm-116.914062 22.632812-26.398438-26.398437 15.839844 2.253906c2.492187.355469 5.003906-.484375 6.785156-2.261719 1.78125-1.78125 2.617188-4.292969 2.261719-6.785156l-2.253906-15.839844 26.398437 26.398438 3.777344 26.402343zm0 0" fill="#1e81ce"/></svg>