<svg height="480pt" viewBox="-40 0 480 480" width="480pt" xmlns="http://www.w3.org/2000/svg"><path d="m56 128h64v64h-64zm0 0" fill="#78b9eb"/><path d="m168 360c0 35.347656-28.652344 64-64 64h-.398438c-35.292968-.21875-63.746093-28.972656-63.601562-64.265625.148438-35.292969 28.839844-63.804687 64.132812-63.734375 35.292969.074219 63.867188 28.707031 63.867188 64zm0 0" fill="#78b9eb"/><path d="m360 328v32h-16v32h-16v32h-128v-32h16v-32h16v-32h-16v-32h128v32zm0 0" fill="#78b9eb"/><path d="m288 56v16c-.027344 8.824219-7.175781 15.972656-16 16h-144c-8.824219-.027344-15.972656-7.175781-16-16v-16c.027344-8.824219 7.175781-15.972656 16-16h8v-16c.027344-8.824219 7.175781-15.972656 16-16h96c8.824219.027344 15.972656 7.175781 16 16v16h8c8.824219.027344 15.972656 7.175781 16 16zm0 0" fill="#78b9eb"/><path d="m352 176c0 26.507812-21.492188 48-48 48h-24c0-26.507812 21.492188-48 48-48zm0 0" fill="#78b9eb"/><path d="m280 240h-24c-26.507812 0-48-21.492188-48-48h24c26.507812 0 48 21.492188 48 48zm0 0" fill="#78b9eb"/><g fill="#006df0"><path d="m120 344h16c0-13.253906-10.746094-24-24-24v-8h-16v8c-13.253906 0-24 10.746094-24 24s10.746094 24 24 24v16c-4.417969 0-8-3.582031-8-8h-16c0 13.253906 10.746094 24 24 24v8h16v-8c13.253906 0 24-10.746094 24-24s-10.746094-24-24-24v-16c4.417969 0 8 3.582031 8 8zm0 32c0 4.417969-3.582031 8-8 8v-16c4.417969 0 8 3.582031 8 8zm-24-24c-4.417969 0-8-3.582031-8-8s3.582031-8 8-8zm0 0"/><path d="m360 320h-8v-24c0-4.417969-3.582031-8-8-8h-56v-56h16c30.910156-.039062 55.960938-25.089844 56-56 0-4.417969-3.582031-8-8-8h-24c-23.492188.046875-44.460938 14.738281-52.527344 36.800781-10.601562-13.148437-26.582031-20.792969-43.472656-20.800781h-24c-4.417969 0-8 3.582031-8 8 .039062 30.910156 25.089844 55.960938 56 56h16v40h-56c-4.417969 0-8 3.582031-8 8v32c0 4.417969 3.582031 8 8 8h8v16h-8c-4.417969 0-8 3.582031-8 8v24h-8c-4.417969 0-8 3.582031-8 8v24h-42.839844c23.78125-19.152344 32.894532-51.222656 22.742188-80.019531s-37.367188-48.058594-67.902344-48.058594-57.75 19.261719-67.902344 48.058594-1.039062 60.867187 22.742188 80.019531h-26.839844v16h336v-16h-32v-16h8c4.417969 0 8-3.582031 8-8v-24h8c4.417969 0 8-3.582031 8-8v-32c0-4.417969-3.582031-8-8-8zm-32-136h15.199219c-3.824219 18.613281-20.199219 31.980469-39.199219 32h-15.199219c3.824219-18.613281 20.199219-31.980469 39.199219-32zm-72 48c-19-.019531-35.375-13.386719-39.199219-32h15.199219c19 .019531 35.375 13.386719 39.199219 32zm-208 128c0-30.929688 25.070312-56 56-56s56 25.070312 56 56-25.070312 56-56 56c-30.910156-.039062-55.960938-25.089844-56-56zm176-56h24v8h16v-8h40v8h16v-8h16v16h-40v-8h-16v8h-56zm96 112h-40v-8h-16v8h-32v-8h-16v8h-8v-16h32v8h16v-8h32v8h16v-8h16zm16-32h-40v-8h-16v8h-32v-8h-16v8h-8v-16h32v8h16v-8h32v8h16v-8h16zm16-32h-40v-8h-16v8h-32v-8h-16v8h-8v-16h32v8h16v-8h32v8h16v-8h16zm0 0"/><path d="m376 56h-80c0-13.253906-10.746094-24-24-24v-8c0-13.253906-10.746094-24-24-24h-96c-13.253906 0-24 10.746094-24 24v8c-13.253906 0-24 10.746094-24 24h-80c-13.253906 0-24 10.746094-24 24v376c0 13.253906 10.746094 24 24 24h352c13.253906 0 24-10.746094 24-24v-376c0-13.253906-10.746094-24-24-24zm-256 0c0-4.417969 3.582031-8 8-8h8c4.417969 0 8-3.582031 8-8v-16c0-4.417969 3.582031-8 8-8h96c4.417969 0 8 3.582031 8 8v16c0 4.417969 3.582031 8 8 8h8c4.417969 0 8 3.582031 8 8v16c0 4.417969-3.582031 8-8 8h-144c-4.417969 0-8-3.582031-8-8zm264 400c0 4.417969-3.582031 8-8 8h-352c-4.417969 0-8-3.582031-8-8v-376c0-4.417969 3.582031-8 8-8h80c0 13.253906 10.746094 24 24 24h144c13.253906 0 24-10.746094 24-24h80c4.417969 0 8 3.582031 8 8zm0 0"/><path d="m160 32h80v16h-80zm0 0"/><path d="m56 200h64c4.417969 0 8-3.582031 8-8v-42.742188l20.648438-14.753906-9.296876-13.007812-11.351562 8.105468v-1.601562c0-4.417969-3.582031-8-8-8h-64c-4.417969 0-8 3.582031-8 8v64c0 4.417969 3.582031 8 8 8zm8-64h48v5.03125l-23.136719 16.519531-11.199219-11.199219-11.3125 11.3125 16 16c2.765626 2.761719 7.125 3.121094 10.304688.847657l19.34375-13.824219v23.3125h-48zm0 0"/><path d="m32 216h120v16h-120zm0 0"/><path d="m32 248h16v16h-16zm0 0"/><path d="m64 248h88v16h-88zm0 0"/></g></svg>