<svg height="480pt" viewBox="0 -72 480 480" width="480pt" xmlns="http://www.w3.org/2000/svg"><path d="m456 40h-432c-8.835938 0-16 7.164062-16 16v256c0 8.835938 7.164062 16 16 16h432c8.835938 0 16-7.164062 16-16v-256c0-8.835938-7.164062-16-16-16zm-384 64c-8.835938 0-16-7.164062-16-16s7.164062-16 16-16 16 7.164062 16 16-7.164062 16-16 16zm168 192c-61.855469 0-112-50.144531-112-112s50.144531-112 112-112 112 50.144531 112 112-50.144531 112-112 112zm200-192h-64v-32h64zm0 0" fill="#9bc9ff"/><path d="m240 104c-44.183594 0-80 35.816406-80 80s35.816406 80 80 80 80-35.816406 80-80-35.816406-80-80-80zm0 112c-17.671875 0-32-14.328125-32-32s14.328125-32 32-32 32 14.328125 32 32-14.328125 32-32 32zm0 0" fill="#9bc9ff"/><g fill="#1e81ce"><path d="m456 32h-8v-8c0-13.253906-10.746094-24-24-24h-32c-13.253906 0-24 10.746094-24 24v8h-264c0-17.671875-14.328125-32-32-32s-32 14.328125-32 32h-16c-13.253906 0-24 10.746094-24 24v256c0 13.253906 10.746094 24 24 24h432c13.253906 0 24-10.746094 24-24v-256c0-13.253906-10.746094-24-24-24zm-72-8c0-4.417969 3.582031-8 8-8h32c4.417969 0 8 3.582031 8 8v8h-48zm-312-8c8.835938 0 16 7.164062 16 16h-32c0-8.835938 7.164062-16 16-16zm392 296c0 4.417969-3.582031 8-8 8h-432c-4.417969 0-8-3.582031-8-8v-256c0-4.417969 3.582031-8 8-8h432c4.417969 0 8 3.582031 8 8zm0 0"/><path d="m240 64c-66.273438 0-120 53.726562-120 120s53.726562 120 120 120 120-53.726562 120-120c-.074219-66.242188-53.757812-119.925781-120-120zm0 224c-57.4375 0-104-46.5625-104-104s46.5625-104 104-104 104 46.5625 104 104c-.066406 57.410156-46.589844 103.933594-104 104zm0 0"/><path d="m240 96c-48.601562 0-88 39.398438-88 88s39.398438 88 88 88 88-39.398438 88-88c-.058594-48.578125-39.421875-87.941406-88-88zm0 160c-39.765625 0-72-32.234375-72-72s32.234375-72 72-72 72 32.234375 72 72c-.046875 39.746094-32.253906 71.953125-72 72zm0 0"/><path d="m240 144c-22.089844 0-40 17.910156-40 40s17.910156 40 40 40 40-17.910156 40-40c-.027344-22.082031-17.917969-39.972656-40-40zm0 64c-13.253906 0-24-10.746094-24-24s10.746094-24 24-24 24 10.746094 24 24-10.746094 24-24 24zm0 0"/><path d="m440 64h-64c-4.417969 0-8 3.582031-8 8v32c0 4.417969 3.582031 8 8 8h64c4.417969 0 8-3.582031 8-8v-32c0-4.417969-3.582031-8-8-8zm-8 32h-48v-16h48zm0 0"/><path d="m72 64c-13.253906 0-24 10.746094-24 24s10.746094 24 24 24 24-10.746094 24-24-10.746094-24-24-24zm0 32c-4.417969 0-8-3.582031-8-8s3.582031-8 8-8 8 3.582031 8 8-3.582031 8-8 8zm0 0"/></g></svg>