<svg height="480pt" viewBox="-32 0 480 480.02021" width="480pt" xmlns="http://www.w3.org/2000/svg"><path d="m168.011719 80.019531h80c0-54.238281 22.558593-70.960937 23.917969-71.917969l-63.917969 23.917969-63.921875-23.917969c1.359375.957032 23.921875 17.679688 23.921875 71.917969zm0 0" fill="#78b9eb"/><path d="m265.53125 128.421875c-2.328125-.648437-4.523438-1.703125-6.480469-3.121094-3.398437 1.804688-7.191406 2.738281-11.039062 2.71875h-80c-3.851563.019531-7.644531-.914062-11.042969-2.71875-1.957031 1.417969-4.148438 2.472657-6.480469 3.121094-84.566406 25.429687-142.464843 103.289063-142.476562 191.597656 0 110.480469 89.519531 152 200 152 110.476562 0 200-41.519531 200-152-.015625-88.308593-57.914063-166.167969-142.480469-191.597656zm-57.519531 271.597656c-53.019531 0-96-42.980469-96-96s42.980469-96 96-96 96 42.980469 96 96-42.980469 96-96 96zm0 0" fill="#78b9eb"/><g fill="#006df0"><path d="m208.011719 408.019531c57.4375 0 104-46.5625 104-104s-46.5625-104-104-104-104 46.5625-104 104c.066406 57.410157 46.589843 103.933594 104 104zm0-192c48.597656 0 88 39.398438 88 88 0 48.601563-39.402344 88-88 88-48.601563 0-88-39.398437-88-88 .054687-48.578125 39.421875-87.941406 88-88zm0 0"/><path d="m192.011719 344.019531c-8.839844 0-16-7.164062-16-16h-16c0 17.671875 14.324219 32 32 32h8v16h16v-16h8c17.671875 0 32-14.328125 32-32s-14.328125-32-32-32h-8v-32h8c8.835937 0 16 7.164063 16 16h16c0-17.671875-14.328125-32-32-32h-8v-16h-16v16h-8c-17.675781 0-32 14.328125-32 32s14.324219 32 32 32h8v32zm0-48c-8.839844 0-16-7.164062-16-16 0-8.835937 7.160156-16 16-16h8v32zm24 16h8c8.835937 0 16 7.164063 16 16 0 8.835938-7.164063 16-16 16h-8zm0 0"/><path d="m273.777344 122.820312c4.03125-5.441406 6.214844-12.027343 6.234375-18.800781h44c15.460937 0 28-12.535156 28-28 0-15.464843-12.539063-28-28-28h-4v16h4c6.625 0 12 5.375 12 12 0 6.628907-5.375 12-12 12h-48.449219c-4.246094-7.304687-11.214844-12.628906-19.375-14.808593 1.742188-44.671876 20.167969-58.460938 20.261719-58.535157 3.40625-2.246093 4.574219-6.695312 2.710937-10.324219-1.859375-3.632812-6.152344-5.28125-9.964844-3.828124l-61.183593 22.953124-61.1875-22.953124c-3.785157-1.425782-8.039063.195312-9.914063 3.78125-1.871094 3.589843-.773437 8.007812 2.5625 10.300781.195313.132812 18.617188 13.933593 20.363282 58.605469-4.734376 1.257812-9.113282 3.585937-12.800782 6.808593h-28.890625c-13.253906 0-24 10.746094-24 24 0 13.253907 10.746094 24 24 24v-16c-4.417969 0-8-3.582031-8-8s3.582031-8 8-8h19c-2.585937 9.234375-.703125 19.148438 5.089844 26.792969-84.644531 28.640625-141.769531 107.851562-142.2226562 197.207031 0 101.679688 75.8125002 160 208.0000002 160 132.183593 0 208-58.320312 208-160-.453125-89.355469-57.585938-168.566406-142.234375-197.199219zm-68.582032-83.304687c1.804688.664063 3.792969.664063 5.597657 0l39.480469-14.816406c-6.367188 14.980469-9.785157 31.046875-10.070313 47.320312h-24.191406v-16h-16v16h-24.195313c-.292968-16.273437-3.726562-32.339843-10.101562-47.320312zm-37.183593 48.503906h80c8.835937 0 16 7.164063 16 16 0 8.835938-7.164063 16-16 16h-80c-8.839844 0-16-7.164062-16-16 0-8.835937 7.160156-16 16-16zm40 376c-71.707031 0-192-18.703125-192-144 .378906-84.644531 55.800781-159.191406 136.75-183.933593 1.617187-.539063 3.1875-1.203126 4.695312-1.992188 3.382813 1.238281 6.953125 1.890625 10.554688 1.925781h80c3.601562-.039062 7.167969-.691406 10.550781-1.925781 1.503906.78125 3.066406 1.445312 4.671875 1.992188 80.957031 24.734374 136.394531 99.28125 136.777344 183.933593 0 125.296875-120.296875 144-192 144zm0 0"/><path d="m368.011719 320.019531c0 92.570313-87.007813 112-160 112-72.992188 0-160-19.429687-160-112h-16c0 83.738281 60.855469 128 176 128 115.140625 0 176-44.261719 176-128zm0 0"/></g></svg>