<svg height="480pt" viewBox="0 0 480 480" width="480pt" xmlns="http://www.w3.org/2000/svg"><g fill="#9bc9ff"><path d="m168 56c0-8.835938 7.164062-16 16-16h112c8.835938 0 16 7.164062 16 16v64h32v-64c0-26.507812-21.492188-48-48-48h-112c-26.507812 0-48 21.492188-48 48v64h32zm0 0"/><path d="m208 272h264v-120c0-17.671875-14.328125-32-32-32h-400c-17.671875 0-32 14.328125-32 32v120zm0 0"/><path d="m272 272v48c-.027344 8.824219-7.175781 15.972656-16 16h-32c-8.824219-.027344-15.972656-7.175781-16-16v-48zm0 0"/><path d="m248 304c0 4.417969-3.582031 8-8 8s-8-3.582031-8-8 3.582031-8 8-8 8 3.582031 8 8zm0 0"/></g><path d="m480 152c-.027344-22.082031-17.917969-39.972656-40-40h-88v-56c-.035156-30.914062-25.085938-55.9648438-56-56h-112c-30.914062.0351562-55.964844 25.085938-56 56v56h-88c-22.082031.027344-39.9726562 17.917969-40 40v128h16v160c.027344 22.082031 17.917969 39.972656 40 40h368c22.082031-.027344 39.972656-17.917969 40-40v-160h16zm-336-96c.027344-22.082031 17.917969-39.972656 40-40h112c22.082031.027344 39.972656 17.917969 40 40v56h-16v-56c0-13.253906-10.746094-24-24-24h-112c-13.253906 0-24 10.746094-24 24v56h-16zm160 56h-128v-56c0-4.417969 3.582031-8 8-8h112c4.417969 0 8 3.582031 8 8zm144 328c0 13.253906-10.746094 24-24 24h-368c-13.253906 0-24-10.746094-24-24v-160h168v40c0 13.253906 10.746094 24 24 24h32c13.253906 0 24-10.746094 24-24v-40h168zm-232-160h48v40c0 4.417969-3.582031 8-8 8h-32c-4.417969 0-8-3.582031-8-8zm248-16h-448v-112c0-13.253906 10.746094-24 24-24h400c13.253906 0 24 10.746094 24 24zm0 0" fill="#1e81ce"/><path d="m256 304c0 8.835938-7.164062 16-16 16s-16-7.164062-16-16 7.164062-16 16-16 16 7.164062 16 16zm0 0" fill="#1e81ce"/></svg>