<svg height="480pt" viewBox="-48 0 480 480.07409" width="480pt" xmlns="http://www.w3.org/2000/svg"><path d="m256.035156 384c0 35.347656-28.652344 64-64 64-35.34375 0-64-28.652344-64-64s28.65625-64 64-64c35.347656 0 64 28.652344 64 64zm0 0" fill="#78b9eb"/><path d="m232.035156 256h-80l26.480469-34.398438c8.730469 3.199219 18.3125 3.199219 27.042969 0zm0 0" fill="#78b9eb"/><path d="m232.035156 112c-.007812 15.898438-9.429687 30.28125-24 36.640625v19.359375c-.0625 8.808594-7.1875 15.933594-16 16-8.824218-.027344-15.972656-7.175781-16-16v-19.359375c-18.308594-7.992187-27.917968-28.273437-22.5-47.503906 5.414063-19.234375 24.195313-31.519531 43.984375-28.78125 19.792969 2.742187 34.527344 19.664062 34.515625 39.644531zm0 0" fill="#78b9eb"/><g fill="#006df0"><path d="m120.035156 384c0 39.765625 32.238282 72 72 72 39.765625 0 72-32.234375 72-72s-32.234375-72-72-72c-39.746094.042969-71.953125 32.253906-72 72zm128 0c0 30.929688-25.070312 56-56 56-30.925781 0-56-25.070312-56-56s25.074219-56 56-56c30.914063.035156 55.964844 25.085938 56 56zm0 0"/><path d="m184.035156 336v8c-13.253906 0-24 10.746094-24 24s10.746094 24 24 24v16c-4.417968 0-8-3.582031-8-8h-16c0 13.253906 10.746094 24 24 24v8h16v-8c13.257813 0 24-10.746094 24-24s-10.742187-24-24-24v-16c4.421875 0 8 3.582031 8 8h16c0-13.253906-10.742187-24-24-24v-8zm24 64c0 4.417969-3.578125 8-8 8v-16c4.421875 0 8 3.582031 8 8zm-24-24c-4.417968 0-8-3.582031-8-8s3.582032-8 8-8zm0 0"/><path d="m288.035156 96c0-53.019531-42.980468-96-96-96-53.015625 0-96 42.980469-96 96 0 42.054688 31.425782 106.832031 70.113282 128.566406l-20.449219 26.554688c-1.855469 2.414062-2.183594 5.675781-.835938 8.410156 1.34375 2.734375 4.125 4.46875 7.171875 4.46875h32v24.40625c-51.28125 4.289062-90.0625 48.253906-87.914062 99.671875 2.144531 51.417969 44.453125 91.996094 95.914062 91.996094 51.464844 0 93.773438-40.578125 95.917969-91.996094 2.148437-51.417969-36.632813-95.382813-87.917969-99.671875v-24.40625h32c3.050782 0 5.832032-1.734375 7.175782-4.46875 1.347656-2.734375 1.019531-5.996094-.839844-8.410156l-20.445313-26.554688c38.6875-21.734375 70.109375-86.511718 70.109375-128.566406zm-16 288c0 44.183594-35.816406 80-80 80-44.179687 0-80-35.816406-80-80s35.820313-80 80-80c44.164063.046875 79.953125 35.835938 80 80zm-56.253906-136h-47.488281l13.34375-17.273438c6.851562 1.699219 14.011719 1.699219 20.863281 0zm-23.746094-32c-37.085937 0-80-72.617188-80-120 0-44.183594 35.820313-80 80-80 44.183594 0 80 35.816406 80 80 0 47.382812-42.910156 120-80 120zm0 0"/><path d="m222.292969 74.734375c-13.734375-11.246094-32.558594-13.984375-48.925781-7.109375-16.367188 6.871094-27.597657 22.230469-29.179688 39.910156-1.585938 17.683594 6.734375 34.789063 21.617188 44.464844h-5.769532v16h8c0 13.253906 10.746094 24 24 24 13.257813 0 24-10.746094 24-24h8v-16h-5.710937c12.824219-8.351562 20.875-22.332031 21.667969-37.613281.789062-15.28125-5.777344-30.019531-17.667969-39.652344zm-30.257813 101.265625c-4.417968 0-8-3.582031-8-8h16c0 4.417969-3.578125 8-8 8zm12.800782-34.703125c-2.914063 1.269531-4.796876 4.148437-4.800782 7.328125v3.375h-16v-3.375c0-3.179688-1.882812-6.058594-4.796875-7.328125-12.699219-5.53125-20.398437-18.601563-19.078125-32.390625 1.320313-13.785156 11.359375-25.15625 24.875-28.179688 2.324219-.484374 4.691406-.726562 7.066406-.726562 7.328126-.019531 14.4375 2.511719 20.101563 7.160156 8.660156 7.042969 13.019531 18.085938 11.515625 29.144532-1.507812 11.054687-8.664062 20.527343-18.890625 25zm0 0"/><path d="m16.035156 136h16v16h-16zm0 0"/><path d="m32.035156 152h16v16h-16zm0 0"/><path d="m.0351562 152h15.9999998v16h-15.9999998zm0 0"/><path d="m16.035156 168h16v16h-16zm0 0"/><path d="m56.035156 248h16v16h-16zm0 0"/><path d="m72.035156 264h16v16h-16zm0 0"/><path d="m40.035156 264h16v16h-16zm0 0"/><path d="m56.035156 280h16v16h-16zm0 0"/><path d="m312.035156 192h16v16h-16zm0 0"/><path d="m328.035156 208h16v16h-16zm0 0"/><path d="m296.035156 208h16v16h-16zm0 0"/><path d="m312.035156 224h16v16h-16zm0 0"/><path d="m352.035156 296h16v16h-16zm0 0"/><path d="m368.035156 312h16v16h-16zm0 0"/><path d="m336.035156 312h16v16h-16zm0 0"/><path d="m352.035156 328h16v16h-16zm0 0"/><path d="m192.035156 40v-16c-39.746094.042969-71.953125 32.253906-72 72h16c.039063-30.914062 25.089844-55.964844 56-56zm0 0"/><path d="m176.035156 112h32v16h-32zm0 0"/></g></svg>