<svg height="480pt" viewBox="0 0 480 480.10984" width="480pt" xmlns="http://www.w3.org/2000/svg"><path d="m216.058594 160.109375c0 39.765625-32.238282 72-72 72h-.402344c-.59375-9.269531-6.554688-17.332031-15.238281-20.625-8.683594-3.289063-18.492188-1.199219-25.082031 5.34375l-1.519532 1.523437c-18.730468-13.480468-29.8125-35.164062-29.757812-58.242187-.019532-8.179687 1.386718-16.300781 4.160156-24 11.730469-32.996094 45.5-52.765625 80.015625-46.84375 34.515625 5.925781 59.765625 35.824219 59.824219 70.84375zm0 0" fill="#78b9eb"/><path d="m160.058594 352.109375h-16l8 120h-136l16-120h-16v-48h144zm0 0" fill="#78b9eb"/><path d="m344.058594 400.109375c0 39.765625-32.238282 72-72 72-39.765625 0-72-32.234375-72-72s32.234375-72 72-72c39.761718 0 72 32.234375 72 72zm0 0" fill="#78b9eb"/><path d="m400.058594 248.109375v40h-8v16c-.027344 8.824219-7.175782 15.972656-16 16h-32c-8.828125-.027344-15.976563-7.175781-16-16v-16h-8v-40zm0 0" fill="#78b9eb"/><path d="m408.058594 96.109375c-26.511719 0-48 21.492187-48 48h24c26.507812 0 48-21.488281 48-48zm0 0" fill="#78b9eb"/><path d="m312.058594 96.109375h-24c0 26.511719 21.488281 48 48 48h24c0-26.507813-21.492188-48-48-48zm0 0" fill="#78b9eb"/><g fill="#006df0"><path d="m345.65625 49.558594-3.199219-15.6875c-12.769531 2.578125-24.800781 7.988281-35.199219 15.839844l9.597657 12.800781c8.507812-6.429688 18.351562-10.855469 28.800781-12.953125zm0 0"/><path d="m408.058594 256.109375h16v-16h-16v-10.128906c52.078125-22.730469 81.078125-78.871094 69.46875-134.496094-11.613282-55.628906-60.644532-95.484375-117.46875-95.484375-56.828125 0-105.859375 39.855469-117.46875 95.484375-11.613282 55.625 17.386718 111.765625 69.46875 134.496094v10.128906h-16v16h16v32c0 4.417969 3.582031 8 8 8v8c0 13.253906 10.742187 24 24 24h32c13.253906 0 24-10.746094 24-24v-8c4.417968 0 8-3.582031 8-8zm-85.136719-38.953125c-46.851563-17.90625-74.242187-66.703125-65.136719-116.023438 9.105469-49.324218 52.117188-85.117187 102.273438-85.117187 50.152344 0 93.164062 35.792969 102.269531 85.117187 9.105469 49.320313-18.285156 98.117188-65.136719 116.023438-3.089844 1.1875-5.132812 4.15625-5.132812 7.464844v15.488281h-24v-88h16c30.910156-.035156 55.964844-25.085937 56-56 0-4.417969-3.582032-8-8-8h-24c-19.6875.03125-37.914063 10.398437-48 27.304687-10.089844-16.90625-28.316406-27.273437-48-27.304687h-24c-4.417969 0-8 3.582031-8 8 .035156 30.914063 25.085937 55.964844 56 56h16v88h-24v-15.488281c-.003906-3.308594-2.046875-6.277344-5.136719-7.464844zm45.933594-81.046875c3.824219-18.613281 20.199219-31.980469 39.203125-32h15.199218c-3.824218 18.613281-20.199218 31.980469-39.199218 32zm-17.597657 0h-15.199218c-19.003906-.019531-35.378906-13.386719-39.203125-32h15.203125c19 .019531 35.375 13.386719 39.199218 32zm40.800782 120v24h-64v-24zm-8 48c0 4.417969-3.582032 8-8 8h-32c-4.417969 0-8-3.582031-8-8v-8h48zm0 0"/><path d="m272.058594 320.109375c-44.183594 0-80 35.816406-80 80s35.816406 80 80 80c44.179687 0 80-35.816406 80-80-.050782-44.164063-35.839844-79.949219-80-80zm0 144c-35.347656 0-64-28.652344-64-64s28.652344-64 64-64c35.34375 0 64 28.652344 64 64-.042969 35.332031-28.671875 63.960937-64 64zm0 0"/><path d="m264.058594 376.109375h16c4.417968 0 8 3.582031 8 8h16c0-13.253906-10.746094-24-24-24v-8h-16v8c-13.257813 0-24 10.746094-24 24s10.742187 24 24 24h16c4.417968 0 8 3.582031 8 8s-3.582032 8-8 8h-16c-4.417969 0-8-3.582031-8-8h-16c0 13.253906 10.742187 24 24 24v8h16v-8c13.253906 0 24-10.746094 24-24s-10.746094-24-24-24h-16c-4.417969 0-8-3.582031-8-8s3.582031-8 8-8zm0 0"/><path d="m160.058594 296.109375h-27.722656l-10.3125-15.472656 22.34375-26.847657c3.324218-4.058593 5.582031-8.878906 6.570312-14.03125 38.960938-3.324218 69.808594-34.328124 72.9375-73.308593 3.132812-38.976563-22.375-74.503907-60.304688-84.003907-37.933593-9.5-77.175781 9.8125-92.785156 45.664063h-12.0625c-9.695312-.011719-18.4375 5.816406-22.152344 14.769531l-35.898437 86.152344c-.894531 2.144531-.8125 4.574219.226563 6.65625l30.214843 60.421875h-15.054687c-4.417969 0-8 3.582031-8 8v48c0 4.417969 3.582031 8 8 8h6.863281l-14.792969 110.945313c-.304687 2.285156.390625 4.589843 1.910156 6.324218 1.519532 1.734375 3.710938 2.730469 6.019532 2.730469h136c2.214844.003906 4.332031-.910156 5.851562-2.527344 1.515625-1.617187 2.292969-3.789062 2.148438-6l-7.449219-111.472656h7.449219c4.417968 0 8-3.582031 8-8v-48c0-4.417969-3.582032-8-8-8zm-16-200c34.085937.125 62.097656 26.949219 63.695312 61s-23.777344 63.378906-57.703125 66.695313c-1.507812-4.753907-4.117187-9.082032-7.617187-12.632813-1.160156-1.113281-2.40625-2.140625-3.730469-3.0625h13.355469v-8c13.253906 0 24-10.746094 24-24s-10.746094-24-24-24h-16c-4.417969 0-8-3.582031-8-8s3.582031-8 8-8h16c4.417968 0 8 3.582031 8 8h16c0-13.253906-10.746094-24-24-24v-8h-16v8c-13.257813 0-24 10.746094-24 24s10.742187 24 24 24h16c4.417968 0 8 3.582031 8 8s-3.582032 8-8 8h-16c-4.417969 0-8-3.582031-8-8h-16c0 13.253906 10.742187 24 24 24v6.28125c-10.734375-6.441406-24.277344-5.84375-34.402344 1.519531-19.925781-17.601562-26.875-45.699218-17.445312-70.558594 9.425781-24.855468 33.261718-41.28125 59.847656-41.242187zm-96.800782 196.425781-30.402343-60.730468 34.480469-82.773438c1.242187-2.980469 4.15625-4.921875 7.386718-4.921875h6.933594c-5.609375 27.46875 3.589844 55.871094 24.242188 74.832031l-18.875 18.871094-18.527344-12.359375-8.878906 13.3125 24 16c3.171874 2.117187 7.398437 1.699219 10.097656-1l31.285156-31.28125c6.210938-5.847656 15.902344-5.847656 22.113281 0 5.734375 5.714844 6.148438 14.867187.953125 21.074219l-26.160156 31.429687c-2.289062 2.734375-2.492188 6.644531-.503906 9.601563l7.710937 11.519531h-65.054687c.011718-1.238281-.261719-2.460937-.800782-3.574219zm-23.199218 19.574219h128v32h-128zm119.445312 152h-118.3125l13.867188-104h97.511718zm0 0"/><path d="m424.058594 376.109375h16v16h-16zm0 0"/><path d="m440.058594 392.109375h16v16h-16zm0 0"/><path d="m424.058594 408.109375h16v16h-16zm0 0"/><path d="m408.058594 392.109375h16v16h-16zm0 0"/><path d="m56.058594 24.109375h16v16h-16zm0 0"/><path d="m72.058594 40.109375h16v16h-16zm0 0"/><path d="m56.058594 56.109375h16v16h-16zm0 0"/><path d="m40.058594 40.109375h16v16h-16zm0 0"/></g></svg>