<svg height="480pt" viewBox="-40 0 480 480" width="480pt" xmlns="http://www.w3.org/2000/svg"><path d="m40 40h320v64h-320zm0 0" fill="#9bc9ff"/><path d="m56 152h48v48h-48zm0 0" fill="#9bc9ff"/><path d="m136 152h48v48h-48zm0 0" fill="#9bc9ff"/><path d="m216 152h48v48h-48zm0 0" fill="#9bc9ff"/><path d="m296 152h48v48h-48zm0 0" fill="#9bc9ff"/><path d="m56 232h48v48h-48zm0 0" fill="#9bc9ff"/><path d="m136 232h48v48h-48zm0 0" fill="#9bc9ff"/><path d="m216 232h48v48h-48zm0 0" fill="#9bc9ff"/><path d="m296 232h48v48h-48zm0 0" fill="#9bc9ff"/><path d="m56 312h48v48h-48zm0 0" fill="#9bc9ff"/><path d="m136 312h48v48h-48zm0 0" fill="#9bc9ff"/><path d="m216 312h48v48h-48zm0 0" fill="#9bc9ff"/><path d="m296 312h48v48h-48zm0 0" fill="#9bc9ff"/><path d="m56 392h128v48h-128zm0 0" fill="#9bc9ff"/><path d="m216 392h48v48h-48zm0 0" fill="#9bc9ff"/><path d="m296 392h48v48h-48zm0 0" fill="#9bc9ff"/><g fill="#1e81ce"><path d="m360 480h-320c-22.082031-.027344-39.9726562-17.917969-40-40v-400c.0273438-22.082031 17.917969-39.9726562 40-40h320c22.082031.0273438 39.972656 17.917969 40 40v400c-.027344 22.082031-17.917969 39.972656-40 40zm-320-464c-13.253906 0-24 10.746094-24 24v400c0 13.253906 10.746094 24 24 24h320c13.253906 0 24-10.746094 24-24v-400c0-13.253906-10.746094-24-24-24zm0 0"/><path d="m360 112h-320c-4.417969 0-8-3.582031-8-8v-64c0-4.417969 3.582031-8 8-8h320c4.417969 0 8 3.582031 8 8v64c0 4.417969-3.582031 8-8 8zm-312-16h304v-48h-304zm0 0"/><path d="m104 208h-48c-4.417969 0-8-3.582031-8-8v-48c0-4.417969 3.582031-8 8-8h48c4.417969 0 8 3.582031 8 8v48c0 4.417969-3.582031 8-8 8zm-40-16h32v-32h-32zm0 0"/><path d="m184 208h-48c-4.417969 0-8-3.582031-8-8v-48c0-4.417969 3.582031-8 8-8h48c4.417969 0 8 3.582031 8 8v48c0 4.417969-3.582031 8-8 8zm-40-16h32v-32h-32zm0 0"/><path d="m264 208h-48c-4.417969 0-8-3.582031-8-8v-48c0-4.417969 3.582031-8 8-8h48c4.417969 0 8 3.582031 8 8v48c0 4.417969-3.582031 8-8 8zm-40-16h32v-32h-32zm0 0"/><path d="m344 208h-48c-4.417969 0-8-3.582031-8-8v-48c0-4.417969 3.582031-8 8-8h48c4.417969 0 8 3.582031 8 8v48c0 4.417969-3.582031 8-8 8zm-40-16h32v-32h-32zm0 0"/><path d="m104 288h-48c-4.417969 0-8-3.582031-8-8v-48c0-4.417969 3.582031-8 8-8h48c4.417969 0 8 3.582031 8 8v48c0 4.417969-3.582031 8-8 8zm-40-16h32v-32h-32zm0 0"/><path d="m184 288h-48c-4.417969 0-8-3.582031-8-8v-48c0-4.417969 3.582031-8 8-8h48c4.417969 0 8 3.582031 8 8v48c0 4.417969-3.582031 8-8 8zm-40-16h32v-32h-32zm0 0"/><path d="m264 288h-48c-4.417969 0-8-3.582031-8-8v-48c0-4.417969 3.582031-8 8-8h48c4.417969 0 8 3.582031 8 8v48c0 4.417969-3.582031 8-8 8zm-40-16h32v-32h-32zm0 0"/><path d="m344 288h-48c-4.417969 0-8-3.582031-8-8v-48c0-4.417969 3.582031-8 8-8h48c4.417969 0 8 3.582031 8 8v48c0 4.417969-3.582031 8-8 8zm-40-16h32v-32h-32zm0 0"/><path d="m104 368h-48c-4.417969 0-8-3.582031-8-8v-48c0-4.417969 3.582031-8 8-8h48c4.417969 0 8 3.582031 8 8v48c0 4.417969-3.582031 8-8 8zm-40-16h32v-32h-32zm0 0"/><path d="m184 368h-48c-4.417969 0-8-3.582031-8-8v-48c0-4.417969 3.582031-8 8-8h48c4.417969 0 8 3.582031 8 8v48c0 4.417969-3.582031 8-8 8zm-40-16h32v-32h-32zm0 0"/><path d="m264 368h-48c-4.417969 0-8-3.582031-8-8v-48c0-4.417969 3.582031-8 8-8h48c4.417969 0 8 3.582031 8 8v48c0 4.417969-3.582031 8-8 8zm-40-16h32v-32h-32zm0 0"/><path d="m344 368h-48c-4.417969 0-8-3.582031-8-8v-48c0-4.417969 3.582031-8 8-8h48c4.417969 0 8 3.582031 8 8v48c0 4.417969-3.582031 8-8 8zm-40-16h32v-32h-32zm0 0"/><path d="m184 448h-128c-4.417969 0-8-3.582031-8-8v-48c0-4.417969 3.582031-8 8-8h128c4.417969 0 8 3.582031 8 8v48c0 4.417969-3.582031 8-8 8zm-120-16h112v-32h-112zm0 0"/><path d="m264 448h-48c-4.417969 0-8-3.582031-8-8v-48c0-4.417969 3.582031-8 8-8h48c4.417969 0 8 3.582031 8 8v48c0 4.417969-3.582031 8-8 8zm-40-16h32v-32h-32zm0 0"/><path d="m344 448h-48c-4.417969 0-8-3.582031-8-8v-48c0-4.417969 3.582031-8 8-8h48c4.417969 0 8 3.582031 8 8v48c0 4.417969-3.582031 8-8 8zm-40-16h32v-32h-32zm0 0"/></g></svg>