<svg height="480pt" viewBox="0 0 480 480" width="480pt" xmlns="http://www.w3.org/2000/svg"><g fill="#78b9eb"><path d="m176 320v40l-57.359375 63.441406c-34.933594-33.183594-54.691406-79.261718-54.640625-127.441406 0-5.359375.238281-10.71875.71875-15.921875 2.796875-31.582031 14.136719-61.808594 32.800781-87.4375l22.480469 39.359375 32 16-8 32-16 8 16 24zm0 0"/><path d="m304 400-16-24h-40l-32 16-8 24-50.078125 35.761719c66.433594 34.917969 147.695313 23.9375 202.476563-27.363281l-16.398438-16.398438zm0 0"/><path d="m416 296c.023438 15.984375-2.15625 31.894531-6.480469 47.28125l-25.519531-15.28125-16-40h-48l-32-16-48 16-40-32-8-48-32-16v-52.800781c11.941406-6.140625 24.5625-10.867188 37.601562-14.078125 12.871094 20.503906 27.035157 40.167968 42.398438 58.878906 15.363281-18.710938 29.527344-38.375 42.398438-58.878906 72.785156 18.066406 126.125 80.269531 132.882812 154.957031.480469 5.203125.71875 10.5625.71875 15.921875zm0 0"/></g><path d="m248 128v-8c13.253906 0 24-10.746094 24-24s-10.746094-24-24-24h-16c-4.417969 0-8-3.582031-8-8s3.582031-8 8-8h16c4.417969 0 8 3.582031 8 8h16c0-13.253906-10.746094-24-24-24v-8h-16v8c-13.253906 0-24 10.746094-24 24s10.746094 24 24 24h16c4.417969 0 8 3.582031 8 8s-3.582031 8-8 8h-16c-4.417969 0-8-3.582031-8-8h-16c0 13.253906 10.746094 24 24 24v8zm0 0" fill="#006df0"/><path d="m440 208h-38.289062c-22.878907-42.105469-61.34375-73.570312-107.152344-87.648438 9.929687-17.550781 17.441406-35.144531 17.441406-48.351562 0-39.765625-32.234375-72-72-72s-72 32.234375-72 72c0 13.207031 7.511719 30.800781 17.441406 48.351562-68.609375 21.164063-118.539062 80.441407-127.730468 151.648438h-17.710938c-22.089844 0-40 17.910156-40 40s17.910156 40 40 40h24.742188c27.617187 86.351562 114.019531 139.71875 203.597656 125.757812 89.578125-13.964843 155.636718-91.097656 155.660156-181.757812 0-2.6875-.222656-5.335938-.335938-8h16.335938c22.089844 0 40-17.910156 40-40s-17.910156-40-40-40zm-200-192c30.914062.035156 55.964844 25.085938 56 56 0 23.855469-36.089844 74.238281-56 99.3125-19.910156-25.074219-56-75.457031-56-99.3125.035156-30.914062 25.085938-55.964844 56-56zm-6.144531 173.128906c1.519531 1.820313 3.769531 2.875 6.144531 2.875s4.625-1.054687 6.144531-2.875c14.382813-17.394531 27.71875-35.628906 39.925781-54.609375 40.433594 11.425781 75.078126 37.660157 97.035157 73.480469h-129.328125c-3.621094-6.273438-11.003906-9.328125-18-7.453125-6.992188 1.871094-11.859375 8.210937-11.859375 15.453125s4.867187 13.582031 11.859375 15.453125c6.996094 1.875 14.378906-1.179687 18-7.453125h138.007812c15.804688 33.269531 20.210938 70.816406 12.535156 106.839844l-13.921874-8.320313-14.992188-37.496093c-1.210938-3.027344-4.144531-5.015626-7.40625-5.023438h-46.113281l-30.3125-15.199219c-1.898438-.941406-4.089844-1.09375-6.101563-.433593l-43.871094 14.664062-34.21875-27.367188-7.496093-44.984374c-.417969-2.523438-2.023438-4.695313-4.3125-5.839844l-27.574219-13.785156v-42.832032c8.363281-3.9375 17.035156-7.179687 25.929688-9.703125 12.207031 18.980469 25.542968 37.214844 39.925781 54.609375zm-193.855469 146.871094c-13.253906 0-24-10.746094-24-24s10.746094-24 24-24h16.335938c-.113282 2.664062-.335938 5.3125-.335938 8 .007812 13.457031 1.492188 26.871094 4.433594 40zm41.800781 16h16.421875c3.621094 6.273438 11.003906 9.328125 18 7.453125 6.992188-1.871094 11.859375-8.210937 11.859375-15.453125s-4.867187-13.582031-11.859375-15.453125c-6.996094-1.875-14.378906 1.179687-18 7.453125h-21.207031c-10.972656-43.664062-3.753906-89.914062 20-128.160156l16.039063 28.160156c.78125 1.375 1.953124 2.488281 3.371093 3.199219l26.253907 13.128906-5.542969 22.199219-12.710938 6.351562c-2.054687 1.027344-3.570312 2.886719-4.160156 5.105469s-.195313 4.585937 1.078125 6.496094l16 24c1.105469 1.652343 2.785156 2.835937 4.710938 3.320312l25.945312 6.445313v30.675781l-49.511719 54.765625c-16.289062-17.097656-28.789062-37.433594-36.6875-59.6875zm91.910157 98.3125 38.9375-27.800781c1.378906-.988281 2.410156-2.386719 2.945312-4l6.949219-20.855469 27.34375-13.65625h33.832031l13.601562 20.441406c1.179688 1.761719 3.007813 2.984375 5.085938 3.398438l37.601562 7.527344 8.566407 8.570312c-48.503907 41.421875-116.339844 51.660156-174.910157 26.398438zm186.601562-37.3125-10.65625-10.65625c-1.113281-1.117188-2.539062-1.878906-4.089844-2.183594l-36.765625-7.359375-14.160156-21.25c-1.484375-2.214843-3.972656-3.546875-6.640625-3.550781h-40c-1.238281-.011719-2.460938.261719-3.574219.800781l-32 16c-1.894531.953125-3.335937 2.617188-4 4.632813l-7.203125 21.527344-43.695312 31.199218c-9.78125-5.558594-18.984375-12.082031-27.472656-19.472656l51.875-57.375c1.316406-1.457031 2.054687-3.347656 2.070312-5.3125v-40c0-3.667969-2.496094-6.867188-6.054688-7.761719l-29-7.246093-9.265624-13.886719 7.894531-3.945313c2.089843-1.042968 3.621093-2.949218 4.1875-5.214844l8-32c.910156-3.640624-.828125-7.429687-4.1875-9.105468l-29.832031-14.910156-18.71875-32.800782c12.425781-16.035156 27.667968-29.679687 44.976562-40.257812v39.128906c0 3.03125 1.710938 5.804688 4.425781 7.160156l28.375 14.175782 7.335938 44c.324219 1.941406 1.351562 3.695312 2.886719 4.929687l40 32c2.121093 1.695313 4.953124 2.199219 7.527343 1.34375l44.855469-14.953125 29.042969 14.519531c1.105469.542969 2.320312.828125 3.550781.824219h42.585938l13.980468 34.976562c.652344 1.625 1.820313 2.988282 3.320313 3.886719l20.167969 12.074219c-7.945313 24.804688-21.550782 47.417969-39.742188 66.0625zm79.6875-141h-17.710938c-2.125-16.511719-6.484374-32.660156-12.953124-48h30.664062c13.253906 0 24 10.746094 24 24s-10.746094 24-24 24zm0 0" fill="#006df0"/></svg>