<svg height="480pt" viewBox="0 0 480 480" width="480pt" xmlns="http://www.w3.org/2000/svg"><g fill="#9bc9ff"><path d="m392 240h80c-.144531-128.070312-103.929688-231.855469-232-232v80c83.910156.09375 151.90625 68.089844 152 152zm0 0"/><path d="m240 88v-80c-128.070312.144531-231.855469 103.929688-232 232h80c.09375-83.910156 68.089844-151.90625 152-152zm0 0"/><path d="m392 240c-.09375 83.910156-68.089844 151.90625-152 152v80c128.070312-.144531 231.855469-103.929688 232-232zm0 0"/><path d="m88 240h-80c.144531 128.070312 103.929688 231.855469 232 232v-80c-83.910156-.09375-151.90625-68.089844-152-152zm0 0"/><path d="m312 240c0 39.765625-32.234375 72-72 72s-72-32.234375-72-72 32.234375-72 72-72 72 32.234375 72 72zm0 0"/></g><path d="m240 0c-132.546875 0-240 107.453125-240 240s107.453125 240 240 240 240-107.453125 240-240c-.148438-132.484375-107.515625-239.851562-240-240zm223.800781 232h-64.207031c-4.171875-81.933594-69.660156-147.421875-151.59375-151.59375v-64.207031c117.34375 4.328125 211.472656 98.457031 215.800781 215.800781zm-223.800781 72c-35.347656 0-64-28.652344-64-64s28.652344-64 64-64 64 28.652344 64 64c-.039062 35.328125-28.671875 63.960938-64 64zm-8-143.59375c-37.828125 3.855469-67.738281 33.765625-71.59375 71.59375h-64c4.136719-73.105469 62.488281-131.457031 135.59375-135.59375zm-71.59375 87.59375c3.855469 37.828125 33.765625 67.738281 71.59375 71.59375v64c-73.105469-4.136719-131.457031-62.488281-135.59375-135.59375zm87.59375 71.59375c37.828125-3.855469 67.738281-33.765625 71.59375-71.59375h64c-4.136719 73.105469-62.488281 131.457031-135.59375 135.59375zm71.59375-87.59375c-3.855469-37.828125-33.765625-67.738281-71.59375-71.59375v-64c73.105469 4.136719 131.457031 62.488281 135.59375 135.59375zm-87.59375-215.800781v64.207031c-81.933594 4.171875-147.421875 69.660156-151.59375 151.59375h-64.207031c4.328125-117.34375 98.457031-211.472656 215.800781-215.800781zm-215.800781 231.800781h64.207031c4.171875 81.933594 69.660156 147.421875 151.59375 151.59375v64.207031c-117.34375-4.328125-211.472656-98.457031-215.800781-215.800781zm231.800781 215.800781v-64.207031c81.933594-4.171875 147.421875-69.660156 151.59375-151.59375h64.207031c-4.328125 117.34375-98.457031 211.472656-215.800781 215.800781zm0 0" fill="#1e81ce"/></svg>