<svg height="480pt" viewBox="0 0 480 480" width="480pt" xmlns="http://www.w3.org/2000/svg"><path d="m129.28125 373.359375 12.957031-12.960937-22.636719-22.636719-12.960937 12.957031c-3.382813-1.839844-6.949219-3.3125-10.640625-4.398438v-18.320312h-32v18.320312c-3.691406 1.085938-7.257812 2.558594-10.640625 4.398438l-12.960937-12.957031-22.636719 22.636719 12.957031 12.960937c-1.839844 3.382813-3.3125 6.949219-4.398438 10.640625h-18.320312v32h18.320312c1.085938 3.691406 2.558594 7.257812 4.398438 10.640625l-12.957031 12.960937 22.636719 22.636719 12.960937-12.957031c3.382813 1.839844 6.949219 3.3125 10.640625 4.398438v18.320312h32v-18.320312c3.691406-1.085938 7.257812-2.558594 10.640625-4.398438l12.960937 12.957031 22.636719-22.636719-12.957031-12.960937c1.839844-3.382813 3.3125-6.949219 4.398438-10.640625h18.320312v-32h-18.320312c-1.085938-3.691406-2.558594-7.257812-4.398438-10.640625zm-49.28125 58.640625c-17.671875 0-32-14.328125-32-32s14.328125-32 32-32 32 14.328125 32 32-14.328125 32-32 32zm0 0" fill="#78b9eb"/><path d="m376 440v8c0 13.253906 10.746094 24 24 24s24-10.746094 24-24v-8zm0 0" fill="#78b9eb"/><path d="m256 376h-32c-17.671875 0-32 14.328125-32 32v40h96v-40c0-17.671875-14.328125-32-32-32zm0 0" fill="#78b9eb"/><path d="m256 240c0 8.835938-7.164062 16-16 16s-16-7.164062-16-16 7.164062-16 16-16 16 7.164062 16 16zm0 0" fill="#78b9eb"/><path d="m392 144c-22.089844 0-40 17.910156-40 40h40zm0 0" fill="#78b9eb"/><path d="m392 48v-40h-40c0 22.089844 17.910156 40 40 40zm0 0" fill="#78b9eb"/><path d="m88 144v40h40c0-22.089844-17.910156-40-40-40zm0 0" fill="#78b9eb"/><path d="m128 8h-40v40c22.089844 0 40-17.910156 40-40zm0 0" fill="#78b9eb"/><path d="m304 96c0 35.347656-28.652344 64-64 64s-64-28.652344-64-64 28.652344-64 64-64 64 28.652344 64 64zm0 0" fill="#78b9eb"/><g fill="#006df0"><path d="m260.40625 368.449219c10.398438-8.601563 14.28125-22.800781 9.710938-35.496094-4.574219-12.695313-16.617188-21.160156-30.109376-21.160156-13.492187 0-25.535156 8.464843-30.109374 21.160156-4.570313 12.695313-.6875 26.894531 9.710937 35.496094-20.210937 2.191406-35.542969 19.222656-35.609375 39.550781v40c0 4.417969 3.582031 8 8 8h96c4.417969 0 8-3.582031 8-8v-40c-.0625-20.324219-15.386719-37.351562-35.59375-39.550781zm-20.40625-40.449219c8.835938 0 16 7.164062 16 16s-7.164062 16-16 16-16-7.164062-16-16 7.164062-16 16-16zm40 112h-80v-32c0-13.253906 10.746094-24 24-24h32c13.253906 0 24 10.746094 24 24zm0 0"/><path d="m88 192h304c4.417969 0 8-3.582031 8-8v-176c0-4.417969-3.582031-8-8-8h-304c-4.417969 0-8 3.582031-8 8v176c0 4.417969 3.582031 8 8 8zm8-38.863281c11.203125 2.914062 19.949219 11.660156 22.863281 22.863281h-22.863281zm39.28125-137.136719h209.4375c3.4375 20.101562 19.179688 35.84375 39.28125 39.28125v81.4375c-20.101562 3.4375-35.84375 19.179688-39.28125 39.28125h-209.4375c-3.4375-20.101562-19.179688-35.84375-39.28125-39.28125v-81.4375c20.101562-3.4375 35.84375-19.179688 39.28125-39.28125zm248.71875 160h-22.984375c2.933594-11.257812 11.726563-20.050781 22.984375-22.984375zm0-160v22.984375c-11.257812-2.933594-20.050781-11.726563-22.984375-22.984375zm-265.136719 0c-2.914062 11.203125-11.660156 19.949219-22.863281 22.863281v-22.863281zm0 0"/><path d="m240 168c39.765625 0 72-32.234375 72-72s-32.234375-72-72-72-72 32.234375-72 72c.042969 39.746094 32.253906 71.957031 72 72zm0-128c30.929688 0 56 25.070312 56 56s-25.070312 56-56 56-56-25.070312-56-56c.039062-30.910156 25.089844-55.960938 56-56zm0 0"/><path d="m224 112h-16c0 13.253906 10.746094 24 24 24v8h16v-8c13.253906 0 24-10.746094 24-24s-10.746094-24-24-24v-16c4.417969 0 8 3.582031 8 8h16c0-13.253906-10.746094-24-24-24v-8h-16v8c-13.253906 0-24 10.746094-24 24s10.746094 24 24 24v16c-4.417969 0-8-3.582031-8-8zm0-32c0-4.417969 3.582031-8 8-8v16c-4.417969 0-8-3.582031-8-8zm24 24c4.417969 0 8 3.582031 8 8s-3.582031 8-8 8zm0 0"/><path d="m152 376h-12.671875l-.40625-.984375 8.957031-8.960937c3.125-3.121094 3.125-8.1875 0-11.3125l-22.621094-22.621094c-3.125-3.125-8.191406-3.125-11.3125 0l-8.960937 8.957031-.984375-.40625v-12.671875c0-4.417969-3.582031-8-8-8h-32c-4.417969 0-8 3.582031-8 8v12.671875l-.984375.40625-8.960937-8.957031c-3.121094-3.125-8.1875-3.125-11.3125 0l-22.621094 22.621094c-3.125 3.125-3.125 8.191406 0 11.3125l8.957031 8.960937-.40625.984375h-12.671875c-4.417969 0-8 3.582031-8 8v32c0 4.417969 3.582031 8 8 8h12.671875l.40625.984375-8.957031 8.953125c-3.125 3.121094-3.125 8.1875 0 11.308594l22.621094 22.632812c3.125 3.125 8.191406 3.125 11.3125 0l8.960937-8.957031.984375.40625v12.671875c0 4.417969 3.582031 8 8 8h32c4.417969 0 8-3.582031 8-8v-12.671875l.984375-.40625 8.960937 8.957031c3.171876 3.003906 8.136719 3.003906 11.3125 0l22.621094-22.632812c3.125-3.121094 3.125-8.1875 0-11.308594l-8.957031-8.953125.40625-.984375h12.671875c4.417969 0 8-3.582031 8-8v-32c0-4.417969-3.582031-8-8-8zm-8 32h-10.351562c-3.535157 0-6.652344 2.324219-7.664063 5.710938-.933594 3.160156-2.191406 6.214843-3.753906 9.113281-1.6875 3.113281-1.128907 6.96875 1.378906 9.472656l7.300781 7.296875-11.308594 11.316406-7.304687-7.300781c-2.503906-2.507813-6.359375-3.066406-9.472656-1.378906-2.898438 1.5625-5.953125 2.820312-9.113281 3.753906-3.386719 1.011719-5.710938 4.128906-5.710938 7.664063v10.351562h-16v-10.351562c0-3.535157-2.324219-6.652344-5.710938-7.664063-3.160156-.933594-6.214843-2.191406-9.113281-3.753906-3.113281-1.6875-6.96875-1.128907-9.472656 1.378906l-7.304687 7.300781-11.308594-11.316406 7.300781-7.296875c2.507813-2.503906 3.066406-6.359375 1.378906-9.472656-1.5625-2.898438-2.820312-5.953125-3.753906-9.113281-1.011719-3.386719-4.128906-5.710938-7.664063-5.710938h-10.351562v-16h10.351562c3.535157 0 6.652344-2.324219 7.664063-5.710938.933594-3.160156 2.191406-6.214843 3.753906-9.113281 1.6875-3.113281 1.128907-6.96875-1.378906-9.472656l-7.300781-7.304687 11.308594-11.308594 7.304687 7.300781c2.503906 2.507813 6.359375 3.066406 9.472656 1.378906 2.898438-1.5625 5.953125-2.820312 9.113281-3.753906 3.386719-1.011719 5.710938-4.128906 5.710938-7.664063v-10.351562h16v10.351562c0 3.535157 2.324219 6.652344 5.710938 7.664063 3.160156.933594 6.214843 2.191406 9.113281 3.753906 3.113281 1.6875 6.96875 1.128907 9.472656-1.378906l7.304687-7.300781 11.308594 11.308594-7.300781 7.304687c-2.507813 2.503906-3.066406 6.359375-1.378906 9.472656 1.5625 2.898438 2.820312 5.953125 3.753906 9.113281 1.011719 3.386719 4.128906 5.710938 7.664063 5.710938h10.351562zm0 0"/><path d="m80 360c-22.089844 0-40 17.910156-40 40s17.910156 40 40 40 40-17.910156 40-40c-.027344-22.082031-17.917969-39.972656-40-40zm0 64c-13.253906 0-24-10.746094-24-24s10.746094-24 24-24 24 10.746094 24 24-10.746094 24-24 24zm0 0"/><path d="m456 384c.019531-26.585938-18.65625-49.523438-44.695312-54.890625-26.039063-5.367187-52.261719 8.3125-62.757813 32.742187-10.496094 24.429688-2.367187 52.867188 19.453125 68.058594v2.089844h-8v16h8c0 17.671875 14.328125 32 32 32s32-14.328125 32-32h8v-16h-8v-2.097656c15-10.476563 23.957031-27.605469 24-45.902344zm-56 80c-8.835938 0-16-7.164062-16-16h32c0 8.835938-7.164062 16-16 16zm-16-32v-6.480469c-.003906-2.855469-1.527344-5.492187-4-6.917969-14.871094-8.609374-22.578125-25.753906-19.152344-42.59375 3.425782-16.835937 17.21875-29.605468 34.273438-31.71875 1.632812-.191406 3.28125-.289062 4.925781-.289062 9.789063-.03125 19.238281 3.570312 26.519531 10.105469 9.609375 8.527343 14.527344 21.152343 13.226563 33.929687-1.304688 12.777344-8.671875 24.152344-19.800781 30.566406-2.472657 1.425782-3.996094 4.0625-4 6.917969v6.480469zm0 0"/><path d="m392 304h16v16h-16zm0 0"/><path d="m337.773438 333.085938 11.3125-11.3125 11.316406 11.3125-11.316406 11.3125zm0 0"/><path d="m320 376h16v16h-16zm0 0"/><path d="m464 376h16v16h-16zm0 0"/><path d="m439.597656 333.085938 11.3125-11.3125 11.316406 11.3125-11.316406 11.3125zm0 0"/><path d="m88 256c0-4.417969 3.582031-8 8-8h121.472656c2.417969 6.777344 7.75 12.109375 14.527344 14.527344v25.472656h16v-25.472656c6.777344-2.417969 12.109375-7.75 14.527344-14.527344h121.472656c4.417969 0 8 3.582031 8 8v32h16v-32c0-13.253906-10.746094-24-24-24h-121.472656c-2.417969-6.777344-7.75-12.109375-14.527344-14.527344v-17.472656h-16v17.472656c-6.777344 2.417969-12.109375 7.75-14.527344 14.527344h-121.472656c-13.253906 0-24 10.746094-24 24v32h16zm152-24c4.417969 0 8 3.582031 8 8s-3.582031 8-8 8-8-3.582031-8-8 3.582031-8 8-8zm0 0"/></g></svg>