<svg height="480pt" viewBox="-80 0 480 480" width="480pt" xmlns="http://www.w3.org/2000/svg"><path d="m8 440c0 17.671875 14.328125 32 32 32h240c17.671875 0 32-14.328125 32-32v-48h-304zm136-24h32v32h-32zm0 0" fill="#9bc9ff"/><path d="m280 8h-240c-17.671875 0-32 14.328125-32 32v16h304v-16c0-17.671875-14.328125-32-32-32zm0 0" fill="#9bc9ff"/><path d="m176 264 16-160h-64l16 160zm0 0" fill="#9bc9ff"/><path d="m184 320c0 13.253906-10.746094 24-24 24s-24-10.746094-24-24 10.746094-24 24-24 24 10.746094 24 24zm0 0" fill="#9bc9ff"/><g fill="#1e81ce"><path d="m280 0h-240c-22.082031.0273438-39.9726562 17.917969-40 40v400c.0273438 22.082031 17.917969 39.972656 40 40h240c22.082031-.027344 39.972656-17.917969 40-40v-400c-.027344-22.082031-17.917969-39.9726562-40-40zm-264 64h288v320h-288zm24-48h240c13.253906 0 24 10.746094 24 24v8h-288v-8c0-13.253906 10.746094-24 24-24zm240 448h-240c-13.253906 0-24-10.746094-24-24v-40h288v40c0 13.253906-10.746094 24-24 24zm0 0"/><path d="m120 40h16c4.417969 0 8-3.582031 8-8s-3.582031-8-8-8h-16c-4.417969 0-8 3.582031-8 8s3.582031 8 8 8zm0 0"/><path d="m168 40h32c4.417969 0 8-3.582031 8-8s-3.582031-8-8-8h-32c-4.417969 0-8 3.582031-8 8s3.582031 8 8 8zm0 0"/><path d="m144 272h32c4.109375 0 7.550781-3.113281 7.960938-7.199219l16-160c.226562-2.25-.511719-4.492187-2.027344-6.167969-1.515625-1.675781-3.671875-2.632812-5.933594-2.632812h-64c-2.269531-.011719-4.433594.941406-5.960938 2.617188-1.523437 1.679687-2.265624 3.925781-2.039062 6.183593l16 160c.414062 4.101563 3.875 7.21875 8 7.199219zm39.199219-160-14.398438 144h-17.519531l-14.402344-144zm0 0"/><path d="m160 288c-17.671875 0-32 14.328125-32 32s14.328125 32 32 32 32-14.328125 32-32-14.328125-32-32-32zm0 48c-8.835938 0-16-7.164062-16-16s7.164062-16 16-16 16 7.164062 16 16-7.164062 16-16 16zm0 0"/><path d="m176 408h-32c-4.417969 0-8 3.582031-8 8v32c0 4.417969 3.582031 8 8 8h32c4.417969 0 8-3.582031 8-8v-32c0-4.417969-3.582031-8-8-8zm-8 32h-16v-16h16zm0 0"/></g></svg>