<svg height="478pt" viewBox="-31 0 478 478.05224" width="478pt" xmlns="http://www.w3.org/2000/svg"><path d="m408.027344 374.050781v32h-24v64h-128v-64h24v-32h-16v-32h63.597656c-35.417969-.109375-64.054688-28.878906-64-64.296875.054688-35.417968 28.785156-64.101562 64.199219-64.101562 35.417969 0 64.148437 28.683594 64.203125 64.101562.054687 35.417969-28.582032 64.1875-64 64.296875h64v32zm0 0" fill="#78b9eb"/><path d="m176.027344 294.050781h32v136h-32zm0 0" fill="#78b9eb"/><path d="m112.027344 334.050781h32v96h-32zm0 0" fill="#78b9eb"/><path d="m48.027344 374.050781h32v56h-32zm0 0" fill="#78b9eb"/><path d="m400.027344 118.050781c.007812 23.417969-16.90625 43.410157-40 47.28125-2.640625.484375-5.316406.726563-8 .71875h-24c.015625-20.667969 13.261718-39.007812 32.878906-45.519531 4.871094-1.644531 9.976562-2.480469 15.121094-2.480469zm0 0" fill="#78b9eb"/><path d="m328.027344 182.050781h-24c-26.511719 0-48-21.488281-48-48h24c26.507812 0 48 21.492188 48 48zm0 0" fill="#78b9eb"/><path d="m194.105469 86.050781-23.199219-19.117187 5.359375-20.882813 2.160156-8.238281-30-1.839844-11.039062-28-25.359375 16.160156-25.359375-16.160156-11.042969 28-30 1.839844 2.160156 8.238281 5.359375 20.882813-23.199219 19.117187 23.199219 19.121094-7.519531 29.121094 26.402344 1.597656v94.160156l40-24 40 24v-94.160156l26.398437-1.597656-7.519531-29.121094zm-82.078125 32c-17.675782 0-32-14.324219-32-32 0-17.671875 14.324218-32 32-32 17.671875 0 32 14.328125 32 32 0 17.675781-14.328125 32-32 32zm0 0" fill="#78b9eb"/><g fill="#006df0"><path d="m344.027344 262.050781h16c0-13.253906-10.746094-24-24-24v-8h-16v8c-13.257813 0-24 10.746094-24 24 0 13.257813 10.742187 24 24 24v16c-4.417969 0-8-3.582031-8-8h-16c0 13.257813 10.742187 24 24 24v8h16v-8c13.253906 0 24-10.742187 24-24 0-13.253906-10.746094-24-24-24v-16c4.417968 0 8 3.582031 8 8zm-24 8c-4.417969 0-8-3.582031-8-8s3.582031-8 8-8zm24 24c0 4.417969-3.582032 8-8 8v-16c4.417968 0 8 3.582031 8 8zm0 0"/><path d="m408.027344 366.050781h-8v-24c0-4.417969-3.582032-8-8-8h-18.847656c17.847656-14.347656 27.789062-36.339843 26.773437-59.214843-1.019531-22.878907-12.875-43.902344-31.925781-56.609376v-46.535156c23.707031-7.09375 39.960937-28.890625 40-53.640625 0-4.417969-3.582032-8-8-8h-24c-2.679688.023438-5.351563.238281-8 .640625v-64.640625c0-4.417969-3.582032-8-8-8h-173.792969c.121094-1.75-.34375-3.496093-1.328125-4.949219-1.40625-1.933593-3.601562-3.136718-5.984375-3.28125l-24.929687-1.542968-9.167969-23.234375c-.878907-2.214844-2.703125-3.921875-4.96875-4.652344-2.269531-.734375-4.746094-.4179688-6.757813.863281l-21.070312 13.390625-21.074219-13.390625c-2.015625-1.285156-4.5-1.601562-6.773437-.859375-2.273438.738281-4.097657 2.457031-4.96875 4.683594l-9.152344 23.199219-24.929688 1.535156c-2.378906.148438-4.570312 1.351562-5.976562 3.28125-.988282 1.453125-1.460938 3.203125-1.335938 4.957031h-29.789062c-4.417969 0-8.0000002 3.582031-8.0000002 8v424c0 4.417969 3.5820312 8 8.0000002 8h376c4.417968 0 8-3.582031 8-8v-56h16c4.417968 0 8-3.582031 8-8v-32c0-4.417969-3.582032-8-8-8zm-24-16v16h-40v-8h-16v8h-56v-16h24v8h16v-8h40v8h16v-8zm0-72c0 30.929688-25.074219 56-56 56-30.929688 0-56-25.070312-56-56 0-30.925781 25.070312-56 56-56 30.910156.035157 55.964844 25.089844 56 56zm-48-71.527343v-32.472657h16v36.203125c-5.171875-1.855468-10.542969-3.105468-16-3.730468zm40-80.472657h15.199218c-3.824218 18.613281-20.199218 31.980469-39.199218 32h-15.203125c3.828125-18.613281 20.199219-31.976562 39.203125-32zm-315.160156-61.132812-5.082032-19.730469 20.34375-1.253906c3.101563-.191406 5.8125-2.160156 6.953125-5.050782l7.457031-18.949218 17.191407 10.917968c2.621093 1.667969 5.96875 1.667969 8.589843 0l17.195313-10.953124 7.453125 18.953124c1.140625 2.890626 3.851562 4.859376 6.953125 5.046876l20.34375 1.265624-5.039063 19.753907c-.773437 3.003906.261719 6.183593 2.65625 8.160156l15.65625 12.972656-15.695312 12.976563c-2.394531 1.976562-3.429688 5.15625-2.65625 8.160156l5.078125 19.730469-20.34375 1.253906c-3.101563.191406-5.8125 2.160156-6.953125 5.046875l-7.453125 18.953125-17.195313-10.917969c-2.621093-1.671875-5.96875-1.671875-8.589843 0l-17.191407 10.949219-7.457031-18.949219c-1.140625-2.890625-3.851562-4.859375-6.953125-5.050781l-20.34375-1.261719 5.082032-19.722656c.769531-3.003906-.265626-6.183594-2.65625-8.160156l-15.695313-13.007813 15.695313-12.972656c2.390624-1.976563 3.425781-5.15625 2.65625-8.160156zm83.160156 103.351562v47.648438l-27.882813-16.722657c-2.535156-1.523437-5.703125-1.523437-8.238281 0l-27.878906 16.722657v-47.648438c.933594 1.609375 2.40625 2.839844 4.160156 3.472657 2.269531.738281 4.75.421874 6.765625-.859376l21.074219-13.421874 21.070312 13.390624c1.285156.816407 2.773438 1.25 4.296875 1.25.839844-.003906 1.671875-.136718 2.472657-.394531 1.746093-.621093 3.21875-1.839843 4.160156-3.4375zm104 237.78125v56h-232v-408h25.519531l2.558594 9.929688-19.28125 15.902343c-1.839844 1.519532-2.902344 3.78125-2.902344 6.167969s1.0625 4.648438 2.902344 6.167969l19.25 15.90625-6.230469 24.183594c-.59375 2.3125-.125 4.765625 1.277344 6.695312 1.402344 1.929688 3.59375 3.132813 5.976562 3.28125l18.929688 1.167969v86.597656c0 2.882813 1.550781 5.542969 4.058594 6.964844 2.511718 1.417969 5.589843 1.378906 8.058593-.105469l35.882813-21.53125 35.878906 21.53125c2.472656 1.484375 5.550781 1.523438 8.058594.105469 2.507812-1.421875 4.0625-4.082031 4.0625-6.964844v-86.597656l18.894531-1.160156c2.382813-.148438 4.574219-1.351563 5.976563-3.28125 1.40625-1.929688 1.875-4.382813 1.28125-6.695313l-6.234376-24.191406 19.28125-15.90625c1.839844-1.519531 2.90625-3.78125 2.90625-6.167969s-1.066406-4.648437-2.90625-6.167969l-19.28125-15.902343 2.5625-9.929688h169.519532v61.480469c-13.226563 6.324219-23.464844 17.5625-28.527344 31.320312-10.605469-13.144531-26.585938-20.789062-43.472656-20.800781h-24c-4.417969 0-8 3.582031-8 8 .035156 30.914063 25.085937 55.964844 56 56h16v16.472657c-28.882813 3.199218-53.003906 23.46875-61.132813 51.367187-8.125 27.902344 1.335938 57.949219 23.980469 76.160156h-18.847656c-4.417969 0-8 3.582031-8 8v32c0 4.417969 3.582031 8 8 8h8v16h-16c-4.417969 0-8 3.582031-8 8zm71.199218-232h-15.199218c-19.003906-.019531-35.375-13.386719-39.203125-32h15.203125c19 .023438 35.375 13.386719 39.199218 32zm56.800782 288h-40v-8h-16v8h-32v-8h-16v8h-8v-16h32v8h16v-8h32v8h16v-8h16zm0-32h-40v-8h-16v8h-32v-8h-16v8h-8v-16h32v8h16v-8h32v8h16v-8h16zm24-32h-40v-8h-16v8h-32v-8h-16v8h-8v-16h32v8h16v-8h32v8h16v-8h16zm0 0"/><path d="m216.027344 294.050781c0-4.417969-3.582032-8-8-8h-32c-4.417969 0-8 3.582031-8 8v128h-16v-88c0-4.417969-3.582032-8-8-8h-32c-4.417969 0-8 3.582031-8 8v88h-16v-48c0-4.417969-3.582032-8-8-8h-32c-4.417969 0-8 3.582031-8 8v48h-16v16h208v-16h-16zm-144 128h-16v-40h16zm64 0h-16v-80h16zm64 0h-16v-120h16zm0 0"/><path d="m112.027344 126.050781c22.089844 0 40-17.90625 40-40 0-22.089843-17.910156-40-40-40-22.09375 0-40 17.910157-40 40 .023437 22.082031 17.917968 39.976563 40 40zm0-64c13.253906 0 24 10.746094 24 24 0 13.257813-10.746094 24-24 24-13.257813 0-24-10.742187-24-24 0-13.253906 10.742187-24 24-24zm0 0"/><path d="m176.027344 190.050781h16v16h-16zm0 0"/><path d="m208.027344 190.050781h48v16h-48zm0 0"/><path d="m176.027344 222.050781h64v16h-64zm0 0"/><path d="m32.027344 254.050781h48v16h-48zm0 0"/><path d="m32.027344 286.050781h88v16h-88zm0 0"/></g></svg>