<svg height="480pt" viewBox="-56 0 480 480" width="480pt" xmlns="http://www.w3.org/2000/svg"><path d="m360 184c0-97.203125-78.796875-176-176-176s-176 78.796875-176 176c0 97.046875 176 288 176 288s176-190.953125 176-288zm-304 0c0-70.691406 57.308594-128 128-128s128 57.308594 128 128-57.308594 128-128 128-128-57.308594-128-128zm0 0" fill="#9bc9ff"/><path d="m188.703125 226.96875 36.25 26.335938c2.804687 2.03125 6.59375 2.027343 9.394531-.007813 2.800782-2.035156 3.976563-5.644531 2.910156-8.9375l-13.84375-42.605469c-1.074218-3.300781.097657-6.914062 2.90625-8.953125l36.246094-26.335937c2.796875-2.039063 3.964844-5.648438 2.894532-8.9375-1.070313-3.292969-4.136719-5.523438-7.597657-5.527344h-44.800781c-3.464844 0-6.535156-2.230469-7.605469-5.527344l-13.847656-42.609375c-1.082031-3.28125-4.144531-5.5-7.601563-5.5-3.457031 0-6.519531 2.21875-7.601562 5.5l-13.847656 42.609375c-1.070313 3.296875-4.140625 5.527344-7.605469 5.527344h-44.800781c-3.464844 0-6.539063 2.230469-7.609375 5.527344-1.070313 3.296875.101562 6.90625 2.90625 8.945312l36.230469 26.328125c2.804687 2.035157 3.976562 5.648438 2.90625 8.941407l-13.84375 42.609374c-1.066407 3.292969.109374 6.902344 2.910156 8.9375 2.800781 2.035157 6.589844 2.039063 9.394531.007813l36.25-26.335937c2.804687-2.039063 6.605469-2.035157 9.40625.007812zm0 0" fill="#9bc9ff"/><g fill="#1e81ce"><path d="m184 480c-2.234375 0-4.367188-.933594-5.878906-2.574219-7.28125-7.898437-178.121094-194.394531-178.121094-293.425781 0-101.621094 82.378906-184 184-184s184 82.378906 184 184c0 99.03125-170.839844 285.527344-178.121094 293.425781-1.511718 1.640625-3.644531 2.574219-5.878906 2.574219zm0-464c-92.742188.101562-167.898438 75.257812-168 168 0 83.007812 137.601562 241.953125 168 276.046875 30.398438-34.09375 168-193.0625 168-276.046875-.105469-92.738281-75.261719-167.894531-168-168zm0 0"/><path d="m184 320c-75.109375 0-136-60.890625-136-136s60.890625-136 136-136 136 60.890625 136 136c-.082031 75.074219-60.925781 135.917969-136 136zm0-256c-66.273438 0-120 53.726562-120 120s53.726562 120 120 120 120-53.726562 120-120c-.074219-66.242188-53.757812-119.925781-120-120zm0 0"/><path d="m229.648438 262.886719c-3.386719-.015625-6.679688-1.105469-9.410157-3.109375l-36.238281-26.335938-36.246094 26.335938c-5.609375 4.066406-13.199218 4.066406-18.804687-.007813s-7.953125-11.292969-5.8125-17.882812l13.839843-42.605469-36.25-26.335938c-5.605468-4.074218-7.953124-11.296874-5.808593-17.890624 2.140625-6.59375 8.285156-11.054688 15.21875-11.054688h44.800781l13.863281-42.609375c2.15625-6.566406 8.289063-11.003906 15.199219-11.003906s13.042969 4.4375 15.199219 11.003906l13.863281 42.609375h44.800781c6.933594 0 13.078125 4.460938 15.21875 11.054688 2.144531 6.59375-.203125 13.816406-5.808593 17.890624l-36.25 26.335938 13.839843 42.605469c2.226563 6.589843-.128906 13.859375-5.800781 17.890625-2.726562 2.007812-6.027344 3.097656-9.414062 3.109375zm-45.648438-45.453125c3.378906 0 6.667969 1.074218 9.398438 3.0625l36.25 26.335937-13.839844-42.609375c-2.160156-6.589844.1875-13.820312 5.808594-17.886718l36.246093-26.335938h-44.800781c-6.925781-.007812-13.058594-4.46875-15.199219-11.054688l-13.863281-42.609374v-.097657l-13.839844 42.707031c-2.144531 6.59375-8.289062 11.058594-15.222656 11.054688h-44.800781l36.261719 26.335938c5.605468 4.074218 7.949218 11.292968 5.808593 17.878906l-13.839843 42.617187 36.242187-26.335937c2.726563-1.988282 6.015625-3.058594 9.390625-3.0625zm0 0"/></g></svg>