<svg height="479pt" viewBox="0 0 479 479.98771" width="479pt" xmlns="http://www.w3.org/2000/svg"><path d="m300.769531 64.164062c3.128907-2.277343 4.441407-6.3125 3.242188-9.996093-1.195313-3.683594-4.625-6.175781-8.5-6.179688h-29.054688c-3.871093-.003906-7.304687-2.496093-8.503906-6.175781l-8.976563-27.632812c-1.199218-3.679688-4.632812-6.171876-8.503906-6.171876s-7.304687 2.492188-8.503906 6.171876l-8.976562 27.632812c-1.199219 3.679688-4.632813 6.171875-8.503907 6.175781h-29.054687c-3.871094.003907-7.304688 2.496094-8.5 6.179688-1.195313 3.683593.113281 7.71875 3.242187 9.996093l23.496094 17.078126c3.136719 2.273437 4.449219 6.3125 3.25 9.992187l-8.96875 27.632813c-1.195313 3.683593.117187 7.71875 3.25 9.996093 3.132813 2.277344 7.375 2.277344 10.511719.003907l23.503906-17.078126c3.132812-2.273437 7.375-2.273437 10.511719 0l23.542969 17.078126c3.132812 2.273437 7.378906 2.273437 10.511718-.003907 3.132813-2.277343 4.445313-6.3125 3.246094-9.996093l-8.972656-27.632813c-1.199219-3.679687.109375-7.71875 3.246094-9.992187zm0 0" fill="#9bc9ff"/><path d="m468.769531 104.164062c3.128907-2.277343 4.441407-6.3125 3.242188-9.996093-1.195313-3.683594-4.625-6.175781-8.5-6.179688h-29.054688c-3.871093-.003906-7.304687-2.496093-8.503906-6.175781l-8.976563-27.632812c-1.199218-3.679688-4.632812-6.171876-8.503906-6.171876s-7.304687 2.492188-8.503906 6.171876l-8.976562 27.632812c-1.199219 3.679688-4.632813 6.171875-8.503907 6.175781h-29.054687c-3.871094.003907-7.304688 2.496094-8.5 6.179688-1.195313 3.683593.113281 7.71875 3.242187 9.996093l23.496094 17.078126c3.136719 2.273437 4.449219 6.3125 3.25 9.992187l-8.96875 27.632813c-1.195313 3.683593.117187 7.71875 3.25 9.996093 3.132813 2.277344 7.375 2.277344 10.511719.003907l23.503906-17.078126c3.132812-2.273437 7.375-2.273437 10.511719 0l23.542969 17.078126c3.132812 2.273437 7.378906 2.273437 10.511718-.003907 3.132813-2.277343 4.445313-6.3125 3.246094-9.996093l-8.972656-27.632813c-1.199219-3.679687.109375-7.71875 3.246094-9.992187zm0 0" fill="#9bc9ff"/><path d="m17.433594 87.988281c-3.871094.003907-7.304688 2.496094-8.5 6.179688-1.195313 3.683593.113281 7.71875 3.242187 9.996093l23.496094 17.078126c3.136719 2.273437 4.449219 6.3125 3.25 9.992187l-8.96875 27.632813c-1.195313 3.683593.117187 7.71875 3.25 9.996093 3.132813 2.277344 7.375 2.277344 10.511719.003907l23.503906-17.078126c3.132812-2.273437 7.375-2.273437 10.511719 0l23.542969 17.078126c3.132812 2.273437 7.378906 2.273437 10.511718-.003907 3.132813-2.277343 4.445313-6.3125 3.246094-9.996093l-8.972656-27.632813c-1.199219-3.679687.109375-7.71875 3.246094-9.992187l23.503906-17.078126c3.136718-2.28125 4.445312-6.328124 3.238281-10.015624s-4.652344-6.175782-8.535156-6.160157h-29.054688c-3.871093-.003906-7.304687-2.496093-8.503906-6.175781l-8.976563-27.632812c-1.199218-3.679688-4.632812-6.171876-8.503906-6.171876s-7.304687 2.492188-8.503906 6.171876l-8.976562 27.632812c-1.199219 3.679688-4.632813 6.171875-8.503907 6.175781zm0 0" fill="#9bc9ff"/><g fill="#1e81ce"><path d="m206.457031 138.636719c-3.585937-.011719-7.074219-1.167969-9.960937-3.296875-6.007813-4.265625-8.507813-11.964844-6.152344-18.945313l8.976562-27.605469c.125-.386718-.011718-.8125-.34375-1.050781l-23.503906-17.078125c-5.957031-4.308594-8.453125-11.96875-6.183594-18.960937 2.269532-6.992188 8.792969-11.722657 16.144532-11.710938h29.046875c.410156.003907.773437-.257812.894531-.648437l8.984375-27.640625c2.273437-6.976563 8.777344-11.699219 16.113281-11.699219 7.335938 0 13.839844 4.722656 16.113282 11.699219l8.984374 27.632812c.117188.394531.484376.660157.894532.65625h29.046875c7.339843 0 13.84375 4.726563 16.109375 11.707031 2.269531 6.980469-.214844 14.625-6.148438 18.941407l-23.503906 17.078125c-.332031.242187-.46875.667968-.34375 1.058594l8.976562 27.621093c2.265626 6.980469-.21875 14.628907-6.15625 18.941407-5.9375 4.316406-13.976562 4.316406-19.917968.003906l-23.503906-17.070313c-.328126-.25-.78125-.25-1.109376 0l-23.496093 17.070313c-2.886719 2.128906-6.375 3.28125-9.960938 3.296875zm-21.023437-82.648438c-.425782-.058593-.824219.230469-.898438.65625-.179687.382813-.03125.84375.347656 1.046875l23.503907 17.082032c5.945312 4.304687 8.429687 11.957031 6.148437 18.933593l-8.972656 27.632813c-.125.386718.011719.8125.339844 1.050781.332031.238281.777344.242187 1.105468.003906l23.503907-17.070312c5.9375-4.328125 13.988281-4.328125 19.921875 0l23.503906 17.0625c.332031.238281.777344.234375 1.105469-.003907.328125-.238281.464843-.664062.34375-1.050781l-8.976563-27.632812c-2.285156-6.980469.207032-14.632813 6.160156-18.933594l23.496094-17.082031c.375-.203125.527344-.664063.34375-1.046875-.078125-.421875-.472656-.707031-.898437-.648438h-29.046875c-7.347656.015625-13.863282-4.71875-16.121094-11.710937l-8.976562-27.625c-.167969-.527344-1.597657-.527344-1.789063 0l-8.976563 27.632812c-2.261718 6.988282-8.777343 11.714844-16.121093 11.703125zm0 0"/><path d="m374.457031 178.636719c-3.585937-.011719-7.074219-1.167969-9.960937-3.296875-6.007813-4.265625-8.507813-11.964844-6.152344-18.945313l8.976562-27.605469c.125-.386718-.011718-.8125-.34375-1.050781l-23.503906-17.078125c-5.957031-4.308594-8.453125-11.96875-6.183594-18.960937 2.269532-6.992188 8.792969-11.722657 16.144532-11.710938h29.046875c.410156.003907.773437-.257812.894531-.648437l8.984375-27.640625c2.273437-6.976563 8.777344-11.699219 16.113281-11.699219 7.335938 0 13.839844 4.722656 16.113282 11.699219l8.984374 27.632812c.117188.394531.484376.660157.894532.65625h29.046875c7.339843 0 13.84375 4.726563 16.109375 11.707031 2.269531 6.980469-.214844 14.625-6.148438 18.941407l-23.503906 17.078125c-.332031.242187-.46875.667968-.34375 1.058594l8.976562 27.621093c2.265626 6.980469-.21875 14.628907-6.15625 18.941407-5.9375 4.316406-13.976562 4.316406-19.917968.003906l-23.503906-17.070313c-.328126-.25-.78125-.25-1.109376 0l-23.496093 17.070313c-2.886719 2.128906-6.375 3.28125-9.960938 3.296875zm-21.023437-82.648438c-.425782-.058593-.824219.230469-.898438.65625-.179687.382813-.03125.84375.347656 1.046875l23.503907 17.082032c5.945312 4.304687 8.429687 11.957031 6.148437 18.933593l-8.972656 27.632813c-.125.386718.011719.8125.339844 1.050781.332031.238281.777344.242187 1.105468.003906l23.503907-17.070312c5.933593-4.332031 13.988281-4.332031 19.921875 0l23.503906 17.0625c.332031.238281.777344.234375 1.105469-.003907.328125-.238281.464843-.664062.34375-1.050781l-8.976563-27.632812c-2.285156-6.980469.207032-14.632813 6.160156-18.933594l23.496094-17.082031c.375-.203125.527344-.664063.34375-1.046875-.078125-.421875-.472656-.707031-.898437-.648438h-29.046875c-7.347656.015625-13.863282-4.71875-16.121094-11.710937l-8.976562-27.625c-.167969-.527344-1.597657-.527344-1.789063 0l-8.976563 27.632812c-2.261718 6.988282-8.777343 11.714844-16.121093 11.703125zm0 0"/><path d="m38.457031 178.636719c-3.59375-.007813-7.09375-1.164063-9.984375-3.296875-6.007812-4.265625-8.507812-11.964844-6.152344-18.945313l9-27.605469c.125-.386718-.011718-.8125-.34375-1.050781l-23.503906-17.101562c-5.933594-4.316407-8.417968-11.960938-6.148437-18.941407 2.265625-6.980468 8.769531-11.707031 16.109375-11.707031h29.046875c.410156.003907.773437-.257812.894531-.648437l8.984375-27.640625c2.273437-6.976563 8.777344-11.699219 16.113281-11.699219 7.335938 0 13.839844 4.722656 16.113282 11.699219l8.984374 27.632812c.117188.394531.484376.660157.894532.65625h29.046875c7.339843 0 13.84375 4.726563 16.109375 11.707031 2.269531 6.980469-.214844 14.625-6.148438 18.941407l-23.503906 17.078125c-.332031.242187-.46875.667968-.34375 1.058594l8.976562 27.621093c2.265626 6.980469-.21875 14.628907-6.15625 18.941407-5.9375 4.316406-13.976562 4.316406-19.917968.003906l-23.503906-17.070313c-.328126-.25-.78125-.25-1.109376 0l-23.496093 17.070313c-2.886719 2.128906-6.375 3.28125-9.960938 3.296875zm-21.023437-82.648438c-.425782-.058593-.824219.230469-.898438.65625-.179687.382813-.03125.84375.347656 1.046875l23.503907 17.082032c5.945312 4.304687 8.429687 11.957031 6.148437 18.933593l-8.972656 27.632813c-.125.386718.011719.8125.339844 1.050781.332031.238281.777344.242187 1.105468.003906l23.503907-17.070312c5.933593-4.332031 13.988281-4.332031 19.921875 0l23.503906 17.0625c.332031.238281.777344.234375 1.105469-.003907.328125-.238281.464843-.664062.34375-1.050781l-8.976563-27.632812c-2.285156-6.980469.207032-14.632813 6.160156-18.933594l23.496094-17.082031c.375-.203125.527344-.664063.34375-1.046875-.078125-.421875-.472656-.707031-.898437-.648438h-29.046875c-7.347656.015625-13.863282-4.71875-16.121094-11.710937l-8.976562-27.625c-.167969-.527344-1.597657-.527344-1.789063 0l-8.976563 27.632812c-2.261718 6.988282-8.777343 11.714844-16.121093 11.703125zm0 0"/><path d="m407.089844 265.371094c-10.78125-10.828125-27.714844-12.503906-40.410156-4-3.273438-9.339844-10.6875-16.636719-20.078126-19.765625-9.386718-3.132813-19.695312-1.738281-27.921874 3.765625-3.15625-8.984375-10.15625-16.097656-19.089844-19.398438-8.929688-3.304687-18.871094-2.457031-27.117188 2.3125v-52.296875c-.011718-8.890625-3.714844-17.375-10.226562-23.429687-6.507813-6.050782-15.242188-9.128906-24.109375-8.492188-17.050781 1.664063-29.960938 16.144532-29.664063 33.273438v124.480468l-15.503906-26.847656c-11.050781-19.144531-35.53125-25.695312-54.664062-14.632812-5.511719 3.1875-9.527344 8.441406-11.152344 14.597656-1.625 6.160156-.726563 12.710938 2.496094 18.203125l74.824218 127.648437c2.074219 3.550782 3.203125 7.574219 3.28125 11.6875l.71875 39.664063c.082032 4.359375 3.640625 7.847656 8 7.847656h.152344c4.417969-.082031 7.933594-3.734375 7.847656-8.152343l-.734375-39.632813c-.132812-6.855469-2.019531-13.5625-5.480469-19.480469l-74.800781-127.703125c-1.058593-1.8125-1.355469-3.972656-.820312-6.003906.539062-2.03125 1.859375-3.765625 3.675781-4.820313 5.515625-3.1875 12.070312-4.046874 18.222656-2.398437 6.152344 1.652344 11.398438 5.679687 14.578125 11.199219l30.398438 52.695312c1.800781 3.175782 5.515625 4.730469 9.039062 3.78125 3.523438-.945312 5.957031-4.15625 5.921875-7.804687v-154.328125c-.214844-8.710938 6.175782-16.179688 14.816406-17.3125 4.4375-.328125 8.8125 1.203125 12.074219 4.234375 3.257813 3.027343 5.109375 7.277343 5.109375 11.726562v120c0 4.417969 3.582032 8 8 8 4.417969 0 8-3.582031 8-8v-40c0-8.835937 7.164063-16 16-16 8.835938 0 16 7.164063 16 16v40c0 4.417969 3.582032 8 8 8 4.417969 0 8-3.582031 8-8v-24c0-8.835937 7.164063-16 16-16 8.835938 0 16 7.164063 16 16v24c0 4.417969 3.582032 8 8 8 4.417969 0 8-3.582031 8-8v-8c0-8.835937 7.164063-16 16-16 8.835938 0 16 7.164063 16 16v105.832031c.003906 3.054688-.578125 6.082032-1.71875 8.917969l-11.425781 28.5625c-1.890625 4.722657-2.859375 9.765625-2.855469 14.855469v25.832031c0 4.417969 3.582032 8 8 8 4.417969 0 8-3.582031 8-8v-25.832031c-.003906-3.058594.578125-6.085938 1.71875-8.921875l11.425782-28.558594c1.890624-4.722656 2.859374-9.765625 2.855468-14.855469v-105.832031c.019532-8.488281-3.359375-16.632812-9.382812-22.617187zm0 0"/></g></svg>