<svg height="480pt" viewBox="0 0 480 480" width="480pt" xmlns="http://www.w3.org/2000/svg"><path d="m48 280h64v64h-64zm0 0" fill="#78b9eb"/><path d="m408 408v-32h24v-32h-16v-32h-64c35.347656 0 64-28.652344 64-64s-28.652344-64-64-64c-5.394531.007812-10.769531.679688-16 2-24.089844 6.242188-42.394531 25.855469-46.960938 50.320312-.671874 3.855469-1.019531 7.765626-1.039062 11.679688.054688 35.167969 28.433594 63.722656 63.601562 64h-63.601562v32h16v32h-24v32h-32v-32h-128v32h-80v32h-32v32h128v-32h24v32h128v-32h32v-32h24v32h-16v32h128v-32h16v-32zm-216 32h-24v-32h24zm0 0" fill="#78b9eb"/><path d="m464 80v80h-448v-80c0-17.671875 14.328125-32 32-32h64v56h256v-56h64c17.671875 0 32 14.328125 32 32zm0 0" fill="#78b9eb"/><g fill="#006df0"><path d="m368 232h16c0-13.253906-10.746094-24-24-24v-8h-16v8c-13.253906 0-24 10.746094-24 24s10.746094 24 24 24v16c-4.417969 0-8-3.582031-8-8h-16c0 13.253906 10.746094 24 24 24v8h16v-8c13.253906 0 24-10.746094 24-24s-10.746094-24-24-24v-16c4.417969 0 8 3.582031 8 8zm0 32c0 4.417969-3.582031 8-8 8v-16c4.417969 0 8 3.582031 8 8zm-24-24c-4.417969 0-8-3.582031-8-8s3.582031-8 8-8zm0 0"/><path d="m472 400v-320c-.027344-22.082031-17.917969-39.972656-40-40h-56v-24c0-8.835938-7.164062-16-16-16h-240c-8.835938 0-16 7.164062-16 16v24h-56c-22.082031.027344-39.972656 17.917969-40 40v352c-4.417969 0-8 3.582031-8 8v32c0 4.417969 3.582031 8 8 8h448c4.417969 0 8-3.582031 8-8v-24h8c4.417969 0 8-3.582031 8-8v-32c0-4.417969-3.582031-8-8-8zm-56 0v-16h16c4.417969 0 8-3.582031 8-8v-32c0-4.417969-3.582031-8-8-8h-8v-24c0-4.417969-3.582031-8-8-8h-18.847656c16.96875-13.636719 26.84375-34.230469 26.847656-56 0-.3125-.039062-.617188-.046875-.929688 11.234375 2.527344 23.007813-.148437 32.046875-7.277343v160.207031zm-56 0v-8h-16v8h-32v-8h-16v8h-8v-16h32v8h16v-8h32v8h16v-8h16v16zm-32 32v-16h8v16zm-8 32h-24v-16h24zm-64-40v8h-32v-8h-16v8h-8v-16h32v8h16v-8h32v8h16v-8h16v16h-40v-8zm-80 8v-16h8v16zm-24 16v16h-8v-16zm-32-16v-8h-16v8h-32v-8h-16v8h-8v-16h32v8h16v-8h32v8h16v-8h16v16zm144-224c0 13.253906-10.746094 24-24 24s-24-10.746094-24-24v-40h48zm-64 0c0 13.253906-10.746094 24-24 24s-24-10.746094-24-24v-40h48zm-64 0c0 13.253906-10.746094 24-24 24s-24-10.746094-24-24v-40h48zm-64 0c0 13.253906-10.746094 24-24 24s-24-10.746094-24-24v-40h48zm208-40h48v12.199219c-19.855469 7.078125-35.636719 22.46875-43.199219 42.144531-3.105469-4.140625-4.789062-9.171875-4.800781-14.34375zm112 0v20.175781c-14.089844-9.503906-31.117188-13.65625-48-11.703125v-8.472656zm64 0v40c.03125 8.28125-4.222656 15.988281-11.246094 20.371094-7.023437 4.386718-15.816406 4.824218-23.242187 1.15625-2.582031-9.742188-7.1875-18.832032-13.511719-26.679688v-34.847656zm-48 200h-24v-8h-16v8h-32v-8h-16v8h-8v-16h32v8h16v-8h32v8h16v-8h16v16zm0-32h-40v-8h-16v8h-32v-8h-16v8h-8v-16h32v8h16v-8h32v8h16v-8h16zm-56-32c-30.929688 0-56-25.070312-56-56s25.070312-56 56-56 56 25.070312 56 56c-.035156 30.914062-25.085938 55.964844-56 56zm-45.152344 0h-18.847656c-4.417969 0-8 3.582031-8 8v32c0 4.417969 3.582031 8 8 8h8v16h-16c-4.417969 0-8 3.582031-8 8v24h-16v-24c0-4.417969-3.582031-8-8-8h-88v-80h132.175781c4.058594 6.039062 9.007813 11.433594 14.671875 16zm-154.847656 80h8v8h16v-8h32v8h16v-8h16v16h-40v-8h-16v8h-32v-8h-16v8h-8v-16zm-32-368h240v80h-240zm-96 64c0-13.253906 10.746094-24 24-24h56v48c0 4.417969 3.582031 8 8 8h256c4.417969 0 8-3.582031 8-8v-48h56c13.253906 0 24 10.746094 24 24v72h-432zm0 159.792969c8.433594 6.507812 19.140625 9.332031 29.691406 7.824219 10.546875-1.503907 20.035156-7.214844 26.308594-15.824219 7.460938 10.210937 19.351562 16.25 32 16.25s24.539062-6.039063 32-16.25c7.460938 10.210937 19.351562 16.25 32 16.25s24.539062-6.039063 32-16.25c7.453125 10.199219 19.324219 16.234375 31.960938 16.25 12.632812.011719 24.515624-6 31.992187-16.1875 2.382813 3.238281 5.238281 6.105469 8.472656 8.496093-1.175781 10.699219.117188 21.527344 3.773438 31.648438h-132.199219c-4.417969 0-8 3.582031-8 8v88h-24c-4.417969 0-8 3.582031-8 8v24h-72c-4.417969 0-8 3.582031-8 8v24h-8zm64 224.207031v-8h-16v8h-32v-8h-16v8h-8v-16h32v8h16v-8h32v8h16v-8h16v16zm152 0v-8h-16v8h-32v-8h-16v8h-8v-16h32v8h16v-8h32v8h16v-8h16v16zm208 0h-40v-8h-16v8h-32v-8h-16v8h-8v-16h32v8h16v-8h32v8h16v-8h16zm16-32h-40v-8h-16v8h-32v-8h-16v8h-8v-16h32v8h16v-8h32v8h16v-8h16zm0 0"/><path d="m48 352h64c4.417969 0 8-3.582031 8-8v-64c0-4.417969-3.582031-8-8-8h-64c-4.417969 0-8 3.582031-8 8v64c0 4.417969 3.582031 8 8 8zm8-64h48v48h-48zm0 0"/><path d="m176 312h16v32h-16zm0 0"/></g></svg>