<svg height="479pt" viewBox="-48 0 479 479.99829" width="479pt" xmlns="http://www.w3.org/2000/svg"><g fill="#78b9eb"><path d="m160.726562 208c-8.835937 0-16 7.160156-16 16 0 8.835938 7.164063 16 16 16 8.835938 0 16-7.164062 16-16-.066406-8.8125-7.191406-15.9375-16-16zm0 0"/><path d="m328.726562 56v-48l-40 40v48h48l40-40zm0 0"/><path d="m160.726562 120c-49.652343-.03125-92.410156 35.019531-102.121093 83.710938-9.707031 48.695312 16.335937 97.464843 62.203125 116.480468 45.867187 19.015625 98.777344 2.980469 126.371094-38.300781 27.589843-41.28125 22.175781-96.300781-12.933594-131.414063-19.496094-19.503906-45.941406-30.46875-73.519532-30.476562zm0 184c-44.183593 0-80-35.820312-80-80 0-44.183594 35.816407-80 80-80 44.183594 0 80 35.816406 80 80 0 44.179688-35.816406 80-80 80zm0 0"/><path d="m104.726562 385.4375v54.5625h16v16c.027344 8.824219 7.175782 15.972656 16 16h48c8.824219-.027344 15.972657-7.175781 16-16v-16h16v-54c-.027343-.671875.027344-1.34375.160157-2h-112.242188c.070313.476562.09375.957031.082031 1.4375zm0 0"/></g><path d="m384.117188 52.933594c-1.238282-2.988282-4.15625-4.9375-7.390626-4.933594h-28.6875l10.34375-10.347656-11.3125-11.308594-10.34375 10.34375v-28.6875c0-3.238281-1.949218-6.152344-4.9375-7.390625-2.992187-1.238281-6.429687-.5546875-8.71875 1.734375l-40 40c-1.5 1.5-2.34375 3.53125-2.34375 5.65625v44.6875l-12.679687 12.679688c-.242187-.226563-.464844-.457032-.710937-.679688-45.960938-41.226562-111.539063-52.328125-168.507813-28.53125s-95.164063 78.25-98.144531 139.917969c-2.976563 61.667969 29.792968 119.546875 84.203125 148.722656 4.445312 2.503906 7.894531 6.457031 9.769531 11.203125h-13.929688v16h16v48c0 4.417969 3.582032 8 8 8h8v8c0 13.253906 10.746094 24 24 24h48c13.253907 0 24-10.746094 24-24v-8h8c4.417969 0 8-3.582031 8-8v-48h16v-16h-13.792968c1.925781-4.824219 5.4375-8.84375 9.953125-11.402344 43.1875-23.347656 73.25-65.246094 81.542969-113.632812 8.292968-48.390625-6.109376-97.90625-39.054688-134.300782l12.664062-12.664062h44.6875c2.121094-.003906 4.15625-.84375 5.65625-2.347656l40-40c2.289063-2.285156 2.972657-5.726563 1.734376-8.71875zm-191.390626 403.066406c0 4.417969-3.582031 8-8 8h-48c-4.417968 0-8-3.582031-8-8v-8h64zm16-24h-96v-40h96zm96-208c-.015624 52.835938-28.988281 101.414062-75.472656 126.535156-9.738281 5.378906-16.746094 14.632813-19.289062 25.464844h-98.398438c-2.445312-10.78125-9.394531-19.992188-19.089844-25.304688-49.007812-26.238281-78.535156-78.34375-75.867187-133.867187 2.671875-55.527344 37.0625-104.554687 88.363281-125.972656 51.296875-21.414063 110.34375-11.386719 151.699219 25.757812l.0625.066407-22.777344 22.773437c-45.714843-39.625-114.601562-35.941406-155.832031 8.335937-41.230469 44.277344-40.003906 113.25 2.777344 156.03125s111.757812 44.011719 156.035156 2.78125c44.277344-41.230468 47.960938-110.117187 8.332031-155.835937l22.746094-22.765625c23.613281 26.402344 36.679687 60.574219 36.710937 96zm-144-24c-10.820312-.105469-20.398437 6.980469-23.46875 17.355469-3.066406 10.378906 1.117188 21.53125 10.25 27.332031 9.136719 5.800781 21.011719 4.839844 29.097657-2.355469 8.082031-7.191406 10.417969-18.875 5.722656-28.621093l34.597656-34.601563c23.921875 29.925781 20.296875 73.324219-8.253906 98.867187-28.546875 25.546876-72.082031 24.335938-99.171875-2.753906s-28.296875-70.621094-2.753906-99.171875c25.546875-28.550781 68.945312-32.171875 98.867187-8.253906l-34.597656 34.601563c-3.207031-1.558594-6.722656-2.378907-10.289063-2.398438zm8 24c0 4.417969-3.582031 8-8 8-4.417968 0-8-3.582031-8-8 0-4.421875 3.582032-8 8-8 4.417969 0 8 3.578125 8 8zm48.273438-67.585938c-36.207031-30.15625-89.726562-26.503906-121.5 8.292969-31.769531 34.800781-30.550781 88.429688 2.769531 121.75 33.316407 33.316407 86.949219 34.535157 121.746094 2.765625 34.796875-31.769531 38.453125-85.292968 8.292969-121.496094l5.65625-5.65625c33.316406 39.378907 29.652344 98.023438-8.308594 132.949219s-96.707031 33.703125-133.179688-2.769531c-36.472656-36.476562-37.695312-95.222656-2.773437-133.183594 34.925781-37.957031 93.570313-41.625 132.953125-8.308594zm79.726562-105.105468 24-24v25.378906l-24 24zm57.863282 15.515625-21.175782 21.175781h-25.375l24-24h25.375zm0 0" fill="#006df0"/></svg>