<svg height="480pt" viewBox="0 0 480 480" width="480pt" xmlns="http://www.w3.org/2000/svg"><g fill="#9bc9ff"><path d="m208 288v-96h-112v96zm0 0"/><path d="m272 240v48h112v-96h-112zm0 0"/><path d="m120 376h-112v96h112zm0 0"/><path d="m184 472h112v-96h-112zm0 0"/><path d="m360 376h112v96h-112zm0 0"/></g><path d="m472 368h-48v-128c0-4.417969-3.582031-8-8-8h-24v-40c0-4.417969-3.582031-8-8-8h-48v-128c0-4.417969-3.582031-8-8-8h-24v-40c0-4.417969-3.582031-8-8-8h-112c-4.417969 0-8 3.582031-8 8v40h-24c-4.417969 0-8 3.582031-8 8v128h-48c-4.417969 0-8 3.582031-8 8v40h-24c-4.417969 0-8 3.582031-8 8v128h-48c-4.417969 0-8 3.582031-8 8v96c0 4.417969 3.582031 8 8 8h112c4.417969 0 8-3.582031 8-8v-96c0-4.417969-3.582031-8-8-8h-48v-120h16v40c0 4.417969 3.582031 8 8 8h112c4.417969 0 8-3.582031 8-8v-40h16v120h-48c-4.417969 0-8 3.582031-8 8v96c0 4.417969 3.582031 8 8 8h112c4.417969 0 8-3.582031 8-8v-96c0-4.417969-3.582031-8-8-8h-48v-120h16v40c0 4.417969 3.582031 8 8 8h112c4.417969 0 8-3.582031 8-8v-40h16v120h-48c-4.417969 0-8 3.582031-8 8v96c0 4.417969 3.582031 8 8 8h112c4.417969 0 8-3.582031 8-8v-96c0-4.417969-3.582031-8-8-8zm-360 96h-96v-80h96zm176 0h-96v-80h96zm-96-448h96v80h-96zm8 264h-96v-80h96zm16-48v-40c0-4.417969-3.582031-8-8-8h-48v-120h16v40c0 4.417969 3.582031 8 8 8h112c4.417969 0 8-3.582031 8-8v-40h16v120h-48c-4.417969 0-8 3.582031-8 8v40zm160 48h-96v-80h96zm88 184h-96v-80h96zm0 0" fill="#1e81ce"/></svg>