<svg height="486pt" viewBox="0 0 486.48458 486" width="486pt" xmlns="http://www.w3.org/2000/svg"><path d="m215.917969 69.003906c-35.664063 11.773438-74.816407 5.597656-105.128907-16.574218l-58.511718 58.511718c22.171875 30.316406 28.34375 69.46875 16.570312 105.136719l217.3125 217.304687 147.070313-147.074218zm-106.09375 74.90625c-9.375-9.375-9.371094-24.570312 0-33.941406 9.371093-9.371094 24.566406-9.371094 33.941406 0 9.371094 9.371094 9.371094 24.566406 0 33.941406s-24.570313 9.375-33.941406 0zm0 0" fill="#9bc9ff"/><g fill="#1e81ce"><path d="m286.160156 486.636719c-2.125 0-4.15625-.84375-5.65625-2.34375l-255.539062-255.527344c-2.59375-2.597656-3.089844-6.628906-1.199219-9.777344 18.09375-30.085937 13.351563-68.628906-11.496094-93.429687l-9.925781-9.929688c-3.125-3.125-3.125-8.1875 0-11.3125l101.816406-101.824218c3.171875-3 8.136719-3 11.308594 0l9.9375 9.929687c24.800781 24.839844 63.34375 29.578125 93.425781 11.488281 3.144531-1.890625 7.175781-1.398437 9.773438 1.199219l255.535156 255.519531c3.125 3.125 3.125 8.1875 0 11.3125l-192.335937 192.351563c-1.496094 1.5-3.527344 2.339843-5.644532 2.34375zm-245.601562-264.917969 245.601562 245.597656 181.015625-181.007812-245.609375-245.597656c-35.703125 18.289062-79.136718 11.4375-107.472656-16.960938l-4.28125-4.273438-90.503906 90.496094 4.273437 4.273438c28.40625 28.332031 35.265625 71.761718 16.976563 107.472656zm0 0"/><path d="m286.160156 441.382812c-2.125-.003906-4.15625-.84375-5.65625-2.347656l-217.3125-217.300781c-2.132812-2.136719-2.882812-5.292969-1.9375-8.160156 10.9375-33.214844 5.191406-69.664063-15.429687-97.90625-2.34375-3.1875-2.003907-7.605469.796875-10.398438l58.511718-58.511719c2.792969-2.800781 7.214844-3.140624 10.402344-.800781 28.226563 20.625 64.667969 26.378907 97.878906 15.449219 2.867188-.949219 6.023438-.199219 8.160157 1.933594l217.3125 217.304687c3.121093 3.125 3.121093 8.1875 0 11.3125l-147.082031 147.078125c-1.492188 1.503906-3.527344 2.347656-5.644532 2.347656zm-208.25-227.554687 208.25 208.242187 135.757813-135.761718-208.246094-208.246094c-34.582031 9.867188-71.742187 4.300781-101.914063-15.265625l-49.113281 49.113281c19.5625 30.175782 25.128907 67.335938 15.265625 101.917969zm0 0"/><path d="m126.789062 158.925781c-15.242187-.019531-28.351562-10.804687-31.308593-25.757812-2.960938-14.957031 5.058593-29.917969 19.144531-35.742188 14.089844-5.820312 30.332031-.882812 38.792969 11.800781 8.460937 12.679688 6.789062 29.570313-3.996094 40.347657-6 6-14.144531 9.363281-22.632813 9.351562zm0-48c-7.632812.003907-14.199218 5.402344-15.679687 12.890625-1.484375 7.484375 2.527344 14.980469 9.582031 17.894532 7.050782 2.917968 15.183594.445312 19.421875-5.90625 4.234375-6.347657 3.398438-14.804688-2.003906-20.199219-3.007813-2.992188-7.078125-4.667969-11.320313-4.65625zm0 0"/><path d="m317.757812 325.902344c-2.121093 0-4.15625-.84375-5.65625-2.34375l-135.765624-135.761719c-2.082032-2.007813-2.914063-4.984375-2.183594-7.78125.734375-2.796875 2.917968-4.980469 5.714844-5.710937 2.796874-.734376 5.769531.101562 7.777343 2.179687l135.769531 135.761719c2.289063 2.285156 2.972657 5.726562 1.734376 8.714844-1.238282 2.992187-4.15625 4.9375-7.390626 4.941406zm0 0"/><path d="m351.695312 291.957031c-2.125.003907-4.160156-.839843-5.65625-2.34375l-135.769531-135.761719c-3.03125-3.136718-2.988281-8.128906.097657-11.214843 3.085937-3.085938 8.074218-3.128907 11.214843-.09375l135.777344 135.765625c2.285156 2.289062 2.96875 5.730468 1.730469 8.71875-1.234375 2.988281-4.152344 4.9375-7.386719 4.9375zm0 0"/><path d="m283.804688 359.84375c-2.117188 0-4.148438-.839844-5.644532-2.335938l-135.769531-135.773437c-3.03125-3.140625-2.988281-8.128906.097656-11.214844 3.085938-3.085937 8.074219-3.128906 11.214844-.097656l135.757813 135.765625c2.289062 2.289062 2.972656 5.730469 1.734374 8.71875-1.238281 2.988281-4.152343 4.9375-7.390624 4.9375zm0 0"/></g></svg>