<svg height="481pt" viewBox="0 0 481.328 481" width="481pt" xmlns="http://www.w3.org/2000/svg"><g fill="#9bc9ff"><path d="m197.640625 304.429688 43.023437-32.265626-56-40-.207031.496094c-6.128906 14.777344-17.570312 26.71875-32.074219 33.472656l24.28125 54.03125zm0 0"/><path d="m128.496094 271.988281c-1.054688.046875-2.097656.175781-3.199219.175781h-12c-50.050781 0-91.707031 38.453126-95.695313 88.34375l-8.9375 111.65625h159.199219zm0 0"/><path d="m216.664062 336.164062-16 136h80l-16-136zm0 0"/><path d="m328.945312 266.132812c-14.503906-6.753906-25.945312-18.695312-32.074218-33.472656l-.207032-.496094-56 40 64 48zm0 0"/><path d="m240.664062 272.164062-43.023437 32.265626 19.023437 31.734374h48l16.726563-33.457031zm0 0"/><path d="m463.726562 360.507812c-3.988281-49.886718-45.636718-88.339843-95.6875-88.34375h-12c-1.039062 0-2.046874-.121093-3.070312-.167968l-39.503906 200.167968h159.199218zm0 0"/><path d="m336.664062 88.164062v-64c0-8.835937-7.164062-16-16-16h-208v32c0 26.507813 21.492188 48 48 48zm0 0"/></g><path d="m471.710938 359.867188c-4.578126-53.925782-49.550782-95.441407-103.671876-95.703126h-12c-22.339843.046876-42.550781-13.238281-51.375-33.761718v-26.03125c15.40625-16.261719 23.992188-37.808594 24-60.207032v-48h8c4.417969 0 8-3.582031 8-8v-64c0-13.253906-10.746093-24-24-24h-208c-4.417968 0-8 3.582032-8 8v32c.054688 27.804688 20.484376 51.367188 48 55.359376v48.640624c.007813 22.398438 8.59375 43.945313 24 60.207032v26.03125c-8.820312 20.507812-29.011718 33.789062-51.335937 33.761718h-12c-54.132813.242188-99.132813 41.761719-103.710937 95.703126l-9.617188 120.296874h481.328125zm-279.046876-142.039063c29.144532 19.113281 66.855469 19.113281 96 0v10.214844l-48 34.289062-48-34.289062zm67.054688 110.335937h-38.527344l-12.984375-21.664062 32.457031-24.335938 30.582032 22.9375zm-64.375-12 13.054688 21.777344-14.847657 126.222656h-19.09375l-36.320312-185.265624c3.621093-.652344 7.1875-1.585938 10.664062-2.789063l24.558594 56.535156zm28.441406 28h33.757813l14.121093 120h-62zm49.101563-6.558593 11.378906-22.746094 23.703125 17.785156 24.558594-56.527343c3.476562 1.199218 7.042968 2.132812 10.664062 2.78125l-36.320312 185.265624h-19.09375zm45.175781-68.351563-16.703125 38.398438-47.152344-35.359375 39.496094-28.21875c5.914063 10.28125 14.28125 18.929687 24.359375 25.179687zm-197.398438-229.089844v-24h200c4.417969 0 8 3.582032 8 8v56h-168c-22.082031-.027343-39.972656-17.917968-40-40zm48 56h144v48c0 39.765626-32.234374 72-72 72-39.765624 0-72-32.234374-72-72zm18.9375 147.929688 39.519532 28.230469-47.152344 35.359375-16.722656-38.472656c10.054687-6.25 18.417968-14.878907 24.355468-25.117188zm-162.035156 117.054688c3.875-45.628907 41.929688-80.761719 87.722656-80.984376h8.800782l36.070312 184h-53.496094v-72h-16v72h-71.335937zm367.097656 103.015624v-72h-16v72h-53.488281l36.070313-184h8.800781c45.792969.226563 83.84375 35.355469 87.714844 80.984376l8.238281 103.015624zm0 0" fill="#1e81ce"/></svg>