<svg height="480pt" viewBox="0 0 480.00736 480" width="480pt" xmlns="http://www.w3.org/2000/svg"><path d="m8.007812 232.003906v240h112v-240zm56 208c-8.835937 0-16-7.164062-16-16 0-8.835937 7.164063-16 16-16 8.835938 0 16 7.164063 16 16 0 8.835938-7.164062 16-16 16zm0 0" fill="#9bc9ff"/><path d="m464.007812 8.003906h-368c-4.417968 0-8 3.582032-8 8v85.457032l-72 34.542968 72 33.742188v102.257812c0 4.417969 3.582032 8 8 8h24v-24h56c35.347657 0 64-28.652344 64-64v-32c0-8.835937 7.164063-16 16-16h9.527344c13.28125-.003906 24.945313 8.820313 28.558594 21.601563 6.480469 23.011719 6.386719 47.382812-.277344 70.34375l-5.808594 20.054687h110.640626c12.921874-.265625 23.902343 9.390625 25.296874 22.238282.039063.609374-.066406 1.167968-.066406 1.761718h40.128906c4.417969 0 8-3.582031 8-8v-256c0-4.417968-3.582031-8-8-8zm0 0" fill="#9bc9ff"/><g fill="#1e81ce"><path d="m64.007812 448.003906c-13.253906 0-24-10.746094-24-24s10.746094-24 24-24c13.253907 0 24 10.746094 24 24s-10.746093 24-24 24zm0-32c-4.417968 0-8 3.582032-8 8 0 4.417969 3.582032 8 8 8 4.417969 0 8-3.582031 8-8 0-4.417968-3.582031-8-8-8zm0 0"/><path d="m431.917969 277.667969c-1.65625-17.050781-16.140625-29.964844-33.269531-29.664063h-100l2.847656-9.800781c7.078125-24.394531 7.183594-50.285156.296875-74.734375-4.617188-16.210938-19.402344-27.414062-36.257813-27.464844h-9.527344c-13.253906 0-24 10.746094-24 24v32c-.035156 30.914063-25.085937 55.964844-56 56h-48v-16c0-4.417968-3.582031-8-8-8h-112c-4.417968 0-7.9999995 3.582032-7.9999995 8v240c0 4.417969 3.5820315 8 7.9999995 8h112c4.417969 0 8-3.582031 8-8v-16h224c11.808594-.003906 22.652344-6.511718 28.214844-16.929687 5.5625-10.414063 4.933594-23.046875-1.632812-32.863281 9.339844-3.273438 16.640625-10.6875 19.769531-20.078126 3.128906-9.386718 1.738281-19.695312-3.769531-27.921874 9.339844-3.273438 16.640625-10.6875 19.769531-20.078126 3.128906-9.386718 1.738281-19.695312-3.769531-27.921874 13.625-4.808594 22.355468-18.132813 21.328125-32.542969zm-319.910157 186.335937h-96v-224h96zm299.304688-172.695312c-2.992188 3.011718-7.0625 4.703125-11.304688 4.695312h-48c-4.417968 0-8 3.582032-8 8 0 4.417969 3.582032 8 8 8h32c8.835938 0 16 7.164063 16 16 0 8.835938-7.164062 16-16 16h-32c-4.417968 0-8 3.582032-8 8 0 4.417969 3.582032 8 8 8h16c8.835938 0 16 7.164063 16 16 0 8.835938-7.164062 16-16 16h-16c-4.417968 0-8 3.582032-8 8 0 4.417969 3.582032 8 8 8 8.835938 0 16 7.164063 16 16 0 8.835938-7.164062 16-16 16h-224v-176h48c39.746094-.042968 71.957032-32.253906 72-72v-32c0-4.417968 3.582032-8 8-8h9.527344c9.703125.019532 18.21875 6.464844 20.871094 15.800782 6.082031 21.570312 5.996094 44.417968-.246094 65.941406l-5.816406 20c-.710938 2.417968-.242188 5.027344 1.265625 7.046875 1.507813 2.015625 3.878906 3.207031 6.398437 3.210937h110.640626c8.726562-.238281 16.222656 6.160156 17.359374 14.816406.316407 4.644532-1.394531 9.203126-4.695312 12.488282zm0 0"/><path d="m472.007812.00390625h-384c-4.417968 0-8 3.58203175-8 7.99999975v90.582032l-74.96875 29.984374c-3.042968 1.214844-5.039062 4.15625-5.039062 7.433594 0 3.273438 1.996094 6.21875 5.039062 7.433594l74.96875 29.980469v34.585937c0 4.417969 3.582032 8 8 8 4.417969 0 8-3.582031 8-8v-40c-.003906-3.242187-1.96875-6.164062-4.96875-7.390625l-61.496093-24.609375 61.433593-24.566406.0625-.042969c3-1.226562 4.964844-4.148437 4.96875-7.390625v-88h368v256h-13.121093c-4.417969 0-8 3.582032-8 8 0 4.417969 3.582031 8 8 8h21.121093c4.417969 0 8-3.582031 8-8v-272c0-4.417968-3.582031-7.99999975-8-7.99999975zm0 0"/></g></svg>