<svg height="480pt" viewBox="0 0 480 480.176" width="480pt" xmlns="http://www.w3.org/2000/svg"><g fill="#9bc9ff"><path d="m256.089844 402.640625 48.15625 69.519531 39.84375-.160156-68.960938-104h-19.039062zm0 0"/><path d="m205.046875 368-68.957031 104 39.839844.160156 48.160156-69.519531v-34.640625zm0 0"/><path d="m472.089844 8h-464v64h464zm0 0"/><path d="m432.089844 296c0 8.835938-7.164063 16-16 16h-352c-8.839844 0-16-7.164062-16-16v-224h-24v232c0 17.671875 14.324218 32 32 32h368c17.671875 0 32-14.328125 32-32v-232h-24zm0 0"/><path d="m144.089844 232c0 8.835938-7.164063 16-16 16-8.839844 0-16-7.164062-16-16s7.160156-16 16-16c8.835937 0 16 7.164062 16 16zm0 0"/><path d="m216.089844 176c0 8.835938-7.164063 16-16 16-8.839844 0-16-7.164062-16-16s7.160156-16 16-16c8.835937 0 16 7.164062 16 16zm0 0"/><path d="m288.089844 208c0 8.835938-7.164063 16-16 16-8.839844 0-16-7.164062-16-16s7.160156-16 16-16c8.835937 0 16 7.164062 16 16zm0 0"/><path d="m376.089844 144c0 8.835938-7.164063 16-16 16-8.839844 0-16-7.164062-16-16s7.160156-16 16-16c8.835937 0 16 7.164062 16 16zm0 0"/><path d="m184.089844 352c0 8.835938 7.160156 16 16 16h80c8.835937 0 16-7.164062 16-16v-16h-112zm0 0"/><path d="m224.089844 368v104h32v-104zm0 0"/></g><path d="m408.089844 272h-320v-176h-16v192h336zm0 0" fill="#1e81ce"/><path d="m128.089844 256c13.253906 0 24-10.746094 24-24-.03125-2.554688-.476563-5.089844-1.320313-7.503906l36.421875-28.320313c9.65625 6.265625 22.414063 4.699219 30.273438-3.710937l30.808594 13.726562c-.050782.609375-.183594 1.191406-.183594 1.808594 0 13.253906 10.742187 24 24 24 13.253906 0 24-10.746094 24-24-.03125-2.300781-.402344-4.582031-1.097656-6.777344l51.535156-37.453125c3.984375 2.757813 8.714844 4.234375 13.5625 4.230469 13.253906 0 24-10.746094 24-24s-10.746094-24-24-24c-13.257813 0-24 10.746094-24 24 .03125 2.300781.398437 4.582031 1.09375 6.777344l-51.496094 37.453125c-9.707031-6.714844-22.867188-5.308594-30.933594 3.304687l-30.808594-13.726562c.046876-.609375.183594-1.191406.183594-1.808594 0-13.253906-10.746094-24-24-24s-24 10.746094-24 24c.03125 2.554688.476563 5.089844 1.320313 7.503906l-36.425781 28.320313c-8.609376-5.546875-19.785157-5.019531-27.835938 1.3125-8.046875 6.332031-11.191406 17.070312-7.832031 26.742187 3.363281 9.671875 12.492187 16.148438 22.734375 16.121094zm232-120c4.417968 0 8 3.582031 8 8s-3.582032 8-8 8c-4.421875 0-8-3.582031-8-8s3.578125-8 8-8zm-88 64c4.417968 0 8 3.582031 8 8s-3.582032 8-8 8c-4.421875 0-8-3.582031-8-8s3.578125-8 8-8zm-72-32c4.417968 0 8 3.582031 8 8s-3.582032 8-8 8c-4.421875 0-8-3.582031-8-8s3.578125-8 8-8zm-72 56c4.417968 0 8 3.582031 8 8s-3.582032 8-8 8c-4.421875 0-8-3.582031-8-8s3.578125-8 8-8zm0 0" fill="#1e81ce"/><path d="m472.089844 0h-464c-4.421875 0-8.0000002 3.582031-8.0000002 8v64c0 4.417969 3.5781252 8 8.0000002 8h8v224c.023437 22.082031 17.917968 39.972656 40 40h120v8c.019531 9.839844 6.042968 18.671875 15.199218 22.28125l-70.066406 105.664062 58.890625.230469 35.976563-51.9375v51.761719h48v-51.761719l36 51.9375 58.886718-.230469-70.089843-105.664062c9.15625-3.609375 15.179687-12.441406 15.203125-22.28125v-8h120c22.078125-.027344 39.972656-17.917969 40-40v-224h8c4.417968 0 8-3.582031 8-8v-64c0-4.417969-3.582032-8-8-8zm-300.335938 464.144531-20.800781-.089843 58.390625-88.054688h6.746094v24.136719zm76.335938-.144531h-16v-88h16zm60.335937.144531-44.335937-64v-24.144531h6.742187l58.398438 88.054688zm-20.335937-112.144531c0 4.417969-3.582032 8-8 8h-80c-4.421875 0-8-3.582031-8-8v-8h96zm160-48c0 13.253906-10.746094 24-24 24h-368c-13.257813 0-24-10.746094-24-24v-224h8v216c0 13.253906 10.742187 24 24 24h352c13.253906 0 24-10.746094 24-24v-216h8zm-392-224h368v216c0 4.417969-3.582032 8-8 8h-352c-4.421875 0-8-3.582031-8-8zm408-16h-448v-48h448zm0 0" fill="#1e81ce"/></svg>