<svg height="477pt" viewBox="1 0 477 477.91013" width="477pt" xmlns="http://www.w3.org/2000/svg"><path d="m146.601562 133.847656c-25.453124.019532-49.855468 10.148438-67.839843 28.160156l65.976562 66.054688 59.292969-75.015625c-16.546875-12.46875-36.710938-19.210937-57.429688-19.199219zm0 0" fill="#9bc9ff"/><path d="m316.359375 399.605469c33.816406-33.675781 37.640625-87.125 8.960937-125.269531l-75.015624 59.292968zm0 0" fill="#9bc9ff"/><path d="m318.679688 40.167969c-29.699219 16.382812-55.835938 38.523437-76.886719 65.117187l-37.761719 47.769532-59.292969 75.015624-5.28125 6.679688c-5.03125 6.367188-4.5 15.492188 1.238281 21.230469l5.9375 5.9375 34.910157 34.914062 40.851562 40.847657c5.738281 5.738281 14.863281 6.269531 21.230469 1.238281l6.679688-5.28125 75.015624-59.292969 47.769532-37.761719c26.605468-21.066406 48.75-47.21875 65.144531-76.9375zm25.945312 138.832031c-12.496094 12.496094-32.757812 12.492188-45.253906-.003906s-12.496094-32.757813 0-45.253906c12.496094-12.496094 32.757812-12.496094 45.253906 0 12.496094 12.496093 12.496094 32.757812 0 45.257812zm0 0" fill="#9bc9ff"/><path d="m146.632812 261.910156 34.910157 34.910156zm0 0" fill="#9bc9ff"/><path d="m44.738281 365.742188c-18.746093 18.742187-36.28125 104.167968-36.28125 104.167968s85.421875-17.535156 104.167969-36.28125 18.746094-49.140625 0-67.886718c-18.746094-18.746094-49.140625-18.746094-67.886719 0zm0 0" fill="#9bc9ff"/><g fill="#1e81ce"><path d="m321.992188 196.367188c-19.082032 0-35.507813-13.480469-39.230469-32.199219-3.722657-18.714844 6.292969-37.457031 23.925781-44.757813 17.628906-7.300781 37.964844-1.132812 48.566406 14.734375 10.601563 15.871094 8.515625 37.015625-4.980468 50.507813-7.484376 7.527344-17.667969 11.742187-28.28125 11.714844zm0-64c-9.703126 0-18.453126 5.847656-22.167969 14.816406-3.714844 8.964844-1.660157 19.285156 5.199219 26.152344 9.496093 9.0625 24.441406 9.0625 33.9375 0 6.863281-6.867188 8.914062-17.1875 5.199218-26.152344-3.714844-8.96875-12.460937-14.816406-22.167968-14.816406zm0 0"/><path d="m263.089844 203.972656-22.632813 22.625c-2.078125 2.007813-2.914062 4.984375-2.183593 7.78125.734374 2.796875 2.917968 4.980469 5.714843 5.710938 2.796875.734375 5.773438-.101563 7.78125-2.179688l22.632813-22.625c3.03125-3.136718 2.988281-8.128906-.097656-11.214844-3.085938-3.085937-8.078126-3.128906-11.214844-.097656zm0 0"/><path d="m217.832031 249.222656-5.65625 5.65625c-2.128906 1.996094-3 4.992188-2.277343 7.820313.726562 2.828125 2.933593 5.035156 5.757812 5.761719 2.828125.726562 5.828125-.144532 7.824219-2.269532l5.65625-5.65625c3.03125-3.140625 2.988281-8.128906-.097657-11.214844-3.085937-3.085937-8.074218-3.128906-11.214843-.097656zm0 0"/><path d="m477.578125 15.621094-.496094-6.933594c-.300781-3.9375-3.429687-7.070312-7.371093-7.371094l-6.933594-.527344c-87.621094-6.800781-172.867188 30.527344-227.296875 99.527344l-33.113281 41.898438c-41.046876-26.304688-94.878907-20.421875-129.277344 14.128906-1.511719 1.5-2.363282 3.539062-2.363282 5.667969 0 2.128906.84375 4.171875 2.355469 5.675781l60.949219 61.023438-.863281 1.09375c-7.550781 9.554687-6.753907 23.246093 1.855469 31.855468l.28125.273438-16.960938 16.953125c-15.589844 15.636719-15.589844 40.9375 0 56.574219l24.570312 24.570312c15.640626 15.582031 40.933594 15.582031 56.574219 0l16.96875-16.976562.273438.269531c8.605469 8.617187 22.296875 9.421875 31.855469 1.875l1.09375-.875 61 60.960937c1.503906 1.5 3.535156 2.339844 5.65625 2.335938 2.125 0 4.164062-.84375 5.664062-2.351563 34.542969-34.40625 40.421875-88.238281 14.121094-129.289062l41.925781-33.09375c68.980469-54.433594 106.304687-139.65625 99.53125-227.265625zm-387.25 146.648437c28.886719-24.1875 70.011719-27.183593 102.097656-7.429687l-48.386719 61.207031zm97.847656 186.402344c-9.382812 9.355469-24.566406 9.355469-33.949219 0l-24.570312-24.5625c-9.351562-9.382813-9.351562-24.566406 0-33.953125l16.976562-16.957031 58.511719 58.503906zm148.34375-16.90625c.027344 20.578125-7.207031 40.503906-20.421875 56.273437l-53.769531-53.714843 61.199219-48.375c8.519531 13.761719 13.019531 29.632812 12.992187 45.816406zm31.609375-101.464844-129.449218 102.328125c-3.179688 2.511719-7.738282 2.25-10.605469-.613281l-81.714844-81.691406c-2.882813-2.871094-3.152344-7.449219-.621094-10.636719l102.328125-129.449219c19.132813-24.179687 42.609375-44.582031 69.222656-60.152343l111.070313 110.992187c-15.597656 26.621094-36.023437 50.09375-60.230469 69.222656zm68.152344-83.925781-104.328125-104.289062c34.332031-17.152344 72.179687-26.085938 110.558594-26.097657 6.3125 0 12.664062.242188 19.007812.730469l.105469.101562c3.425781 44.683594-5.335938 89.457032-25.34375 129.554688zm0 0"/><path d="m8.457031 477.910156c-2.402343 0-4.679687-1.078125-6.199219-2.941406-1.519531-1.859375-2.121093-4.304688-1.640624-6.660156 1.847656-8.984375 18.589843-88.34375 38.472656-108.214844 21.871094-21.871094 57.328125-21.871094 79.199218 0 21.871094 21.871094 21.871094 57.328125 0 79.199219-19.863281 19.875-99.199218 36.617187-108.207031 38.464843-.535156.101563-1.082031.152344-1.625.152344zm70.222657-118.222656c-10.613282-.03125-20.792969 4.1875-28.277344 11.710938-10.96875 10.96875-24 55.632812-31.480469 88.039062 32.414063-7.4375 77.078125-20.503906 88.039063-31.464844 11.441406-11.4375 14.867187-28.644531 8.675781-43.589844-6.191407-14.949218-20.777344-24.695312-36.957031-24.695312zm0 0"/><path d="m180.746094 441.628906c-3.238282 0-6.152344-1.949218-7.390625-4.9375-1.238281-2.988281-.554688-6.429687 1.734375-8.71875l33.933594-33.941406c3.140624-3.03125 8.128906-2.988281 11.214843.097656 3.085938 3.085938 3.128907 8.074219.097657 11.214844l-33.933594 33.941406c-1.5 1.5-3.535156 2.34375-5.65625 2.34375zm0 0"/><path d="m244.746094 449.628906c-3.238282 0-6.152344-1.949218-7.390625-4.9375-1.238281-2.988281-.554688-6.429687 1.734375-8.71875l33.933594-33.941406c3.140624-3.03125 8.128906-2.988281 11.214843.097656 3.085938 3.085938 3.128907 8.074219.097657 11.214844l-33.933594 33.941406c-1.5 1.5-3.535156 2.34375-5.65625 2.34375zm0 0"/><path d="m152.457031 469.910156c-3.234375 0-6.152343-1.949218-7.390625-4.9375-1.238281-2.992187-.554687-6.429687 1.734375-8.71875l5.65625-5.65625c2.007813-2.078125 4.984375-2.914062 7.78125-2.179687 2.796875.730469 4.980469 2.914062 5.710938 5.710937.734375 2.796875-.101563 5.773438-2.179688 7.78125l-5.65625 5.65625c-1.5 1.5-3.535156 2.34375-5.65625 2.34375zm0 0"/><path d="m36.746094 305.628906c-3.238282 0-6.152344-1.949218-7.390625-4.9375-1.238281-2.988281-.554688-6.429687 1.734375-8.71875l33.933594-33.941406c3.140624-3.03125 8.128906-2.988281 11.214843.097656 3.085938 3.085938 3.128907 8.074219.097657 11.214844l-33.933594 33.941406c-1.5 1.5-3.535156 2.34375-5.65625 2.34375zm0 0"/><path d="m36.746094 241.628906c-3.238282 0-6.152344-1.949218-7.390625-4.9375-1.238281-2.988281-.554688-6.429687 1.734375-8.71875l33.933594-33.941406c3.140624-3.03125 8.128906-2.988281 11.214843.097656 3.085938 3.085938 3.128907 8.074219.097657 11.214844l-33.933594 33.941406c-1.5 1.5-3.535156 2.34375-5.65625 2.34375zm0 0"/><path d="m8.457031 333.910156c-3.234375 0-6.152343-1.949218-7.390625-4.9375-1.238281-2.992187-.554687-6.429687 1.734375-8.71875l5.65625-5.65625c2.007813-2.078125 4.984375-2.914062 7.78125-2.179687 2.796875.730469 4.980469 2.914062 5.710938 5.710937.734375 2.796875-.101563 5.773438-2.179688 7.78125l-5.65625 5.65625c-1.5 1.5-3.535156 2.34375-5.65625 2.34375zm0 0"/></g></svg>