<svg height="479pt" viewBox="0 -2 479.99715 479" width="479pt" xmlns="http://www.w3.org/2000/svg"><g fill="#9bc9ff"><path d="m112 468.222656h256l-128-360zm0 0"/><path d="m360 180.222656-49.28125 126.800782-.015625.046874 57.296875 161.152344h104zm0 0"/><path d="m169.277344 307.023438-49.277344-126.800782-112 288h104l57.292969-161.152344zm0 0"/></g><path d="m479.453125 465.328125-112-288c-1.195313-3.078125-4.15625-5.101563-7.453125-5.101563-3.300781 0-6.261719 2.023438-7.457031 5.101563l-41.503907 106.796875-59.839843-168.183594 9.800781 7.113282c5.605469 4.070312 13.195312 4.066406 18.800781-.007813 5.605469-4.070313 7.953125-11.289063 5.8125-17.878906l-8-24.722657 21.035157-15.277343c5.605468-4.074219 7.953124-11.296875 5.808593-17.890625-2.140625-6.59375-8.285156-11.054688-15.21875-11.054688h-25.992187l-8-24.71875c-2.15625-6.566406-8.289063-11.003906-15.199219-11.003906s-13.042969 4.4375-15.199219 11.003906l-8 24.71875h-26.089844c-6.929687 0-13.074218 4.460938-15.21875 11.054688-2.144531 6.59375.203126 13.816406 5.8125 17.890625l21.03125 15.277343-8 24.722657c-2.222656 6.589843.136719 13.859375 5.808594 17.886719 5.582032 4.148437 13.222656 4.148437 18.808594 0l9.796875-7.113282-59.839844 168.183594-41.503906-106.796875c-1.195313-3.078125-4.15625-5.101563-7.453125-5.101563-3.300781 0-6.261719 2.023438-7.457031 5.101563l-112 288c-.957031 2.460937-.636719 5.234375.855469 7.414063 1.492187 2.175781 3.960937 3.480468 6.601562 3.480468h464c2.636719 0 5.109375-1.304687 6.597656-3.480468 1.492188-2.179688 1.8125-4.953126.855469-7.414063zm-269.855469-355.21875 8-24.71875c2.160156-6.589844-.1875-13.820313-5.808594-17.886719l-21.03125-15.28125h25.992188c6.945312.011719 13.101562-4.453125 15.25-11.054687l8-24.800781v.09375l8 24.722656c2.148438 6.597656 8.308594 11.054687 15.246094 11.039062h25.992187l-21.03125 15.28125c-5.621093 4.066406-7.96875 11.296875-5.808593 17.886719l8.039062 24.71875-21.03125-15.269531c-5.605469-4.09375-13.210938-4.09375-18.816406 0zm-89.597656 92.191406 40.796875 104.890625-54.445313 153.03125h-86.65625zm3.335938 257.921875 116.664062-328.121094 116.664062 328.121094zm250.3125 0-54.449219-153.03125 40.800781-104.890625 100.300781 257.921875zm0 0" fill="#1e81ce"/></svg>