<svg height="476pt" viewBox="0 0 476.28278 476" width="476pt" xmlns="http://www.w3.org/2000/svg"><g fill="#9bc9ff"><path d="m67.90625 305.632812-59.902344 59.910157 8.992188 47.570312 53.230468-53.234375 41.96875 3.289063 3.289063 41.96875-53.230469 53.230469 47.566406 8.992187 59.910157-59.902344-3.335938-41.914062 199.007813-199.015625 41.914062 3.34375 59.902344-59.910156-8.992188-47.570313-53.230468 53.234375-41.96875-3.289062-3.289063-41.96875 53.234375-53.230469-47.570312-8.992188-59.910156 59.902344 3.335937 41.914063-88.222656 88.222656.046875.046875-.046875-.046875-22.5625 22.5625.050781.046875-.050781-.046875-88.222657 88.222656zm0 0"/><path d="m91.535156 114.230469 22.558594-22.558594.007812.007813-22.5625 22.558593zm0 0"/><path d="m321.492188 265.0625-17 17.007812-22.558594 22.5625-17.007813 17 22.628907 22.632813 56.570312-56.570313zm0 0"/><path d="m451.605469 372.542969-96.167969-96.167969-11.3125 11.320312-56.570312 56.570313-11.320313 11.308594 96.167969 96.171875c21.871094 21.867187 57.332031 21.867187 79.203125 0 21.867187-21.871094 21.867187-57.332032 0-79.203125zm0 0"/></g><path d="m457.261719 366.886719-96.167969-96.160157c-3.125-3.121093-8.191406-3.121093-11.3125 0l-5.65625 5.65625-16.976562-16.976562c-3.125-3.121094-8.1875-3.121094-11.3125 0l-11.34375 11.347656-16-16 79.953124-79.960937 38.238282 3.046875c2.332031.167968 4.625-.679688 6.289062-2.320313l59.902344-59.910156c1.871094-1.871094 2.695312-4.539063 2.210938-7.136719l-8.992188-47.570312c-.554688-2.914063-2.671875-5.28125-5.503906-6.15625-2.835938-.875-5.921875-.109375-8.019532 1.988281l-50.621093 50.617187-31.480469-2.464843-2.457031-31.46875 50.617187-50.625c2.097656-2.097657 2.863282-5.183594 1.988282-8.019531-.875-2.835938-3.25-4.953126-6.164063-5.5l-47.570313-8.992188c-2.59375-.492188-5.265624.332031-7.136718 2.199219l-59.910156 59.910156c-1.65625 1.65625-2.503907 3.953125-2.320313 6.289063l3.046875 38.242187-80 79.949219-98.429688-98.472656v-30.695313c.003907-2.863281-1.519531-5.511719-4-6.941406l-79.199218-45.257813c-3.128906-1.777344-7.054688-1.25-9.601563 1.289063l-22.679687 22.625c-2.539063 2.546875-3.066406 6.472656-1.289063 9.597656l45.257813 79.199219c1.429687 2.480468 4.078125 4.007812 6.941406 4h30.699219l98.46875 98.53125-79.949219 80-38.242188-3.050782c-2.332031-.167968-4.621093.679688-6.285156 2.320313l-59.914062 59.871094c-1.867188 1.871093-2.691406 4.546875-2.199219 7.144531l8.992187 47.570312c.550782 2.914063 2.667969 5.285157 5.503907 6.15625 2.832031.875 5.917969.109376 8.015625-1.988281l50.625-50.617187 31.480468 2.464844 2.460938 31.480468-50.621094 50.613282c-2.101562 2.097656-2.867187 5.183593-1.992187 8.015624.875 2.835938 3.242187 4.953126 6.160156 5.503907l47.566406 8.992187c.492188.097656.988281.144532 1.488281.144532 2.121094 0 4.15625-.84375 5.65625-2.34375l59.910157-59.910157c1.65625-1.65625 2.503906-3.953125 2.320312-6.289062l-3.046875-38.238281 79.960938-79.953126 16 16-11.351563 11.34375c-3.125 3.125-3.125 8.1875 0 11.3125l16.964844 16.976563-5.65625 5.65625c-3.121094 3.121094-3.121094 8.1875 0 11.308594l96.179687 96.167969c16.132813 16.332031 39.78125 22.769531 61.96875 16.871093 22.183594-5.898437 39.511719-23.226562 45.410157-45.414062 5.894531-22.1875-.542969-45.832031-16.875-61.96875zm-369.082031-260.613281h-25.976563l-39.917969-69.855469 13.992188-13.992188 69.855468 39.917969v25.976562zm14.671874 8 11.25-11.25 95.199219 95.199218-11.257812 11.210938zm58.609376 290.175781-54.304688 54.304687-28.542969-5.402344 42.519531-42.558593c1.652344-1.65625 2.5-3.949219 2.320313-6.28125l-3.28125-41.960938c-.308594-3.925781-3.425781-7.042969-7.351563-7.351562l-41.96875-3.277344c-2.332031-.191406-4.628906.65625-6.28125 2.316406l-42.527343 42.515625-5.398438-28.546875 54.304688-54.304687 38.238281 3.042968c2.335938.183594 4.632812-.664062 6.289062-2.320312l199.007813-199.007812c1.65625-1.65625 2.503906-3.953126 2.320313-6.289063l-3.039063-38.238281 54.300781-54.304688 28.546875 5.398438-42.519531 42.527344c-1.65625 1.65625-2.503906 3.949218-2.320312 6.28125l3.277343 41.96875c.308594 3.925781 3.425781 7.042968 7.351563 7.351562l41.96875 3.28125c2.332031.179688 4.628906-.667969 6.28125-2.320312l42.527344-42.519532 5.390624 28.542969-54.300781 54.304687-38.234375-3.042968c-2.335937-.1875-4.636718.660156-6.289062 2.320312l-199.007813 199.007813c-1.65625 1.65625-2.503906 3.953125-2.316406 6.289062zm104.472656-127.128907 11.246094-11.25 16 16-11.246094 11.25zm21.597656 55.625-11.3125-11.3125 45.257812-45.257812 11.335938 11.320312zm158.402344 113.144532c-18.746094 18.742187-49.136719 18.742187-67.882813 0l-90.503906-90.515625 67.890625-67.878907 90.511719 90.503907c18.710937 18.761719 18.710937 49.128906 0 67.890625zm0 0" fill="#1e81ce"/><path d="m406.347656 437.113281c-2.121094.003907-4.160156-.839843-5.65625-2.34375l-71.199218-71.203125c-3.03125-3.140625-2.984376-8.128906.105468-11.210937 3.085938-3.085938 8.078125-3.125 11.214844-.089844l71.199219 71.199219c2.289062 2.289062 2.972656 5.726562 1.734375 8.714844-1.238282 2.992187-4.15625 4.941406-7.390625 4.941406zm0 0" fill="#1e81ce"/><path d="m428.972656 414.488281c-2.121094 0-4.15625-.84375-5.65625-2.34375l-71.199218-71.199219c-3.125-3.128906-3.125-8.195312.003906-11.316406 3.125-3.125 8.191406-3.121094 11.316406.003906l71.199219 71.199219c2.285156 2.289063 2.96875 5.726563 1.734375 8.71875-1.238282 2.988281-4.15625 4.9375-7.390625 4.9375zm0 0" fill="#1e81ce"/></svg>