<svg height="480pt" viewBox="-88 0 480 480.05721" width="480pt" xmlns="http://www.w3.org/2000/svg"><g fill="#9bc9ff"><path d="m71.082031 80.058594c-.023437-23.300782 16.691407-43.253906 39.632813-47.316406 22.945312-4.0625 45.492187 8.941406 53.46875 30.832031 7.976562 21.894531-.921875 46.351562-21.101563 58.003906v26.320313c33.0625-11.691407 52.894531-45.496094 46.964844-80.058594s-35.898437-59.824219-70.964844-59.824219c-35.066406 0-65.03125 25.261719-70.960937 59.824219-5.929688 34.5625 13.902344 68.367187 46.960937 80.058594v-26.320313c-14.851562-8.546875-24.007812-24.382813-24-41.519531zm0 0"/><path d="m167.082031 80.058594c.023438-23.300782-16.6875-43.253906-39.632812-47.316406-22.941407-4.0625-45.488281 8.941406-53.464844 30.832031-7.976563 21.894531.921875 46.351562 21.097656 58.003906v-40.160156c-.277343-12.925781 9.386719-23.910157 22.242188-25.28125 6.648437-.488281 13.203125 1.8125 18.089843 6.347656 4.886719 4.539063 7.664063 10.90625 7.667969 17.574219v41.519531c14.855469-8.546875 24.007813-24.382813 24-41.519531zm0 0"/><path d="m271.082031 408.058594h-216v64h240v-64zm0 0"/></g><path d="m295.082031 400.058594h-16v-8.890625c.007813-8.691407 2.03125-17.265625 5.914063-25.046875l2.488281-4.976563c4.984375-10.003906 7.585937-21.023437 7.597656-32.199219v-104.886718c-.003906-11.808594-6.511719-22.65625-16.925781-28.214844-10.417969-5.5625-23.050781-4.9375-32.863281 1.628906-3.277344-9.339844-10.691407-16.636718-20.078125-19.765625-9.390625-3.132812-19.699219-1.738281-27.921875 3.765625-3.152344-8.992187-10.148438-16.109375-19.082031-19.417968-8.933594-3.3125-18.878907-2.46875-27.128907 2.296874v-11.03125c34.722657-15.152343 54.054688-52.582031 46.3125-89.664062-7.738281-37.085938-40.429687-63.65625-78.3125-63.65625-37.882812 0-70.570312 26.570312-78.3125 63.65625-7.738281 37.082031 11.59375 74.511719 46.3125 89.664062v105.433594l-17.0625-29.601562c-5.292969-9.1875-14.023437-15.890625-24.265625-18.636719-10.246094-2.742187-21.15625-1.296875-30.335937 4.011719l-7.359375 4.234375c-7.359375 4.226562-10.136719 13.46875-6.328125 21.054687l63.394531 126.242188c3.917969 7.820312 5.957031 16.449218 5.957031 25.199218v8.800782h-16c-4.417969 0-8 3.582031-8 8v64c0 4.417968 3.582031 8 8 8h240c4.417969 0 8-3.582032 8-8v-64c0-4.417969-3.582031-8-8-8zm-153.382812-342.617188c-6.558594-6.582031-15.664063-9.972656-24.929688-9.289062-17.066406 1.625-30.007812 16.121094-29.6875 33.265625v22.550781c-12.375-16.5-10.171875-39.710938 5.085938-53.589844 15.257812-13.878906 38.570312-13.878906 53.832031 0 15.257812 13.878906 17.460938 37.089844 5.082031 53.589844v-23.910156c.019531-8.492188-3.359375-16.632813-9.382812-22.617188zm-86.617188 22.617188c-.078125-31.082032 22.183594-57.722656 52.78125-63.171875 30.597657-5.449219 60.6875 11.875 71.339844 41.070312 10.65625 29.195313-1.203125 61.824219-28.121094 77.363281v-9.488281c20.082031-13.980469 28.757813-39.378906 21.429688-62.726562-7.324219-23.34375-28.960938-39.230469-53.429688-39.230469s-46.101562 15.886719-53.429687 39.230469c-7.328125 23.347656 1.351562 48.746093 21.429687 62.726562v9.488281c-19.75-11.402343-31.941406-32.457031-32-55.261718zm24.335938 278.855468-63.390625-126.25 7.390625-4.246093c5.503906-3.1875 12.046875-4.054688 18.1875-2.410157 6.140625 1.640626 11.375 5.660157 14.550781 11.167969l32 55.441407c1.808594 3.136718 5.5 4.664062 8.996094 3.726562 3.5-.9375 5.929687-4.105469 5.929687-7.726562v-207.199219c-.230469-8.726563 6.1875-16.210938 14.847657-17.304688 4.636718-.378906 9.199218 1.320313 12.457031 4.640625 3.015625 2.988282 4.707031 7.058594 4.695312 11.304688v168c0 4.417968 3.582031 8 8 8s8-3.582032 8-8v-56c0-8.839844 7.164063-16 16-16 8.835938 0 16 7.160156 16 16v56c0 4.417968 3.582031 8 8 8s8-3.582032 8-8v-40c0-8.839844 7.164063-16 16-16 8.835938 0 16 7.160156 16 16v40c0 4.417968 3.582031 8 8 8s8-3.582032 8-8v-24c0-8.839844 7.164063-16 16-16 8.835938 0 16 7.160156 16 16v104.886718c-.007812 8.695313-2.03125 17.269532-5.910156 25.046876l-2.488281 4.976562c-4.984375 10.003906-7.585938 21.023438-7.601563 32.199219v8.890625h-176v-8.800782c-.007812-11.230468-2.628906-22.304687-7.664062-32.34375zm207.664062 105.144532h-224v-48h224zm0 0" fill="#1e81ce"/><path d="m263.082031 448.058594h-16c-4.417969 0-8-3.582032-8-8 0-4.417969 3.582031-8 8-8h16c4.417969 0 8 3.582031 8 8 0 4.417968-3.582031 8-8 8zm0 0" fill="#1e81ce"/></svg>