<svg height="481pt" viewBox="0 0 481 481.29855" width="481pt" xmlns="http://www.w3.org/2000/svg"><g fill="#9bc9ff"><path d="m414.875 88.996094 1.808594-1.800782zm0 0"/><path d="m392.25 66.371094-43.449219 43.449218zm0 0"/><path d="m416.683594 87.195312-1.808594 1.800782-43.449219 43.445312 56.570313 11.320313 14.886718-14.894531 30.367188-30.359376zm0 0"/><path d="m414.875 88.996094-43.449219 43.445312zm0 0"/><path d="m382.738281 7.996094-30.359375 30.367187-14.894531 14.886719 11.316406 56.570312 43.449219-43.449218 1.800781-1.808594zm0 0"/><path d="m343.945312 241.296875c.125 48.261719-32.890624 90.300781-79.804687 101.621094-46.914063 11.320312-95.46875-11.035157-117.367187-54.039063-21.902344-43.007812-11.425782-95.421875 25.320312-126.707031 36.75-31.285156 90.164062-33.261719 129.125-4.777344l45.671875-45.695312c-69.175781-57.105469-171.003906-49.816407-231.347656 16.554687-60.339844 66.371094-57.921875 168.433594 5.496093 231.871094 63.417969 63.441406 165.476563 65.894531 231.871094 5.578125 66.394532-60.316406 73.714844-162.144531 16.636719-231.339844l-45.664063 45.664063c13.046876 17.761718 20.078126 39.230468 20.0625 61.269531zm0 0"/><path d="m231.945312 249.296875c-6.246093-6.246094-6.246093-16.375 0-22.621094l22.546876-22.554687c-17.753907-7.023438-38-.617188-48.480469 15.34375-10.480469 15.957031-8.3125 37.082031 5.1875 50.582031s34.625 15.664063 50.582031 5.1875c15.957031-10.480469 22.363281-30.726563 15.339844-48.480469l-22.550782 22.542969c-6.246093 6.246094-16.375 6.246094-22.625 0zm0 0"/></g><path d="m480.90625 96.1875c-.855469-2.824219-3.195312-4.949219-6.085938-5.527344l-41.914062-8.386718.746094-.734376c9.242187-9.394531 9.183594-24.484374-.136719-33.804687-9.316406-9.316406-24.40625-9.382813-33.800781-.140625l-.746094.746094-8.382812-41.914063c-.578126-2.890625-2.703126-5.226562-5.523438-6.082031s-5.886719-.089844-7.972656 1.996094l-45.261719 45.253906c-1.882813 1.886719-2.703125 4.585938-2.1875 7.199219l10.472656 52.378906-113.824219 113.839844c-6.144531 6.042969-8.574218 14.921875-6.367187 23.253906 2.207031 8.335937 8.714844 14.84375 17.046875 17.054687 8.332031 2.207032 17.210938-.222656 23.257812-6.367187l113.824219-113.824219 52.375 10.472656c2.613281.527344 5.320313-.292968 7.199219-2.183593l45.257812-45.253907c2.09375-2.082031 2.871094-5.148437 2.023438-7.976562zm-103.078125-72 7.542969 37.71875-31.65625 31.65625-7.542969-37.710938zm-128.921875 219.453125c-3.164062 3.023437-8.140625 3.023437-11.304688 0-1.5-1.5-2.34375-3.535156-2.34375-5.65625 0-2.125.84375-4.160156 2.34375-5.660156l173.425782-173.425781c3.125-3.125 8.191406-3.125 11.320312 0 3.125 3.125 3.125 8.195312 0 11.320312zm176.457031-108.566406-37.710937-7.542969 31.664062-31.65625 37.710938 7.542969zm0 0" fill="#1e81ce"/><path d="m239.945312 481.296875c-95.800781-.078125-182.378906-57.125-220.25-145.125-37.867187-88-19.7773432-190.089844 46.023438-259.71875 65.804688-69.628906 166.710938-93.453125 256.707031-60.609375 4.160157 1.519531 6.296875 6.121094 4.777344 10.277344-1.519531 4.160156-6.121094 6.296875-10.28125 4.777344-98.601563-35.957032-208.949219 1.464843-265.335937 89.984374-56.386719 88.523438-43.65625 204.34375 30.609374 278.503907 74.269532 74.160156 190.105469 86.722656 278.546876 30.210937 88.441406-56.515625 125.703124-166.914062 89.605468-265.46875-1.035156-2.691406-.535156-5.734375 1.300782-7.957031 1.835937-2.222656 4.726562-3.285156 7.566406-2.78125 2.84375.503906 5.191406 2.5 6.148437 5.21875 26.929688 73.632813 16.230469 155.777344-28.671875 220.050781-44.898437 64.273438-118.339844 102.589844-196.746094 102.636719zm0 0" fill="#1e81ce"/><path d="m239.945312 417.296875c-73.4375.03125-139.175781-45.539063-164.910156-114.320313-25.738281-68.78125-6.0625-146.3125 49.359375-194.496093 55.421875-48.1875 134.9375-56.894531 199.472657-21.847657 2.546874 1.347657 4.171874 3.960938 4.253906 6.84375.085937 2.878907-1.390625 5.582032-3.855469 7.074219-2.464844 1.492188-5.542969 1.542969-8.054687.132813-69.910157-37.933594-157.066407-18.785156-204.636719 44.960937-47.570313 63.742188-41.125 152.746094 15.132812 208.96875 56.261719 56.226563 145.265625 62.617188 208.980469 15.003907 63.714844-47.609376 82.8125-134.777344 44.835938-204.664063-2.046876-3.871094-.601563-8.667969 3.242187-10.765625 3.84375-2.09375 8.660156-.707031 10.804687 3.109375 29.652344 54.527344 28.382813 120.644531-3.34375 173.992187-31.726562 53.34375-89.210937 86.03125-151.28125 86.007813zm0 0" fill="#1e81ce"/><path d="m239.945312 353.296875c-61.855468 0-112-50.140625-112-112 0-61.855469 50.144532-112 112-112 14.800782-.023437 29.453126 2.914063 43.097657 8.640625 4.074219 1.710938 5.992187 6.402344 4.285156 10.476562-1.710937 4.078126-6.402344 5.996094-10.476563 4.285157-11.683593-4.910157-24.234374-7.425781-36.90625-7.402344-53.019531 0-96 42.980469-96 96s42.980469 96 96 96c53.019532 0 96-42.980469 96-96 .019532-12.339844-2.363281-24.566406-7.015624-36-1.664063-4.09375.304687-8.761719 4.398437-10.425781 4.09375-1.667969 8.761719.300781 10.425781 4.394531 13.980469 34.523437 9.878906 73.738281-10.9375 104.625s-55.625 49.40625-92.871094 49.40625zm0 0" fill="#1e81ce"/><path d="m239.945312 289.296875c-24.460937.023437-45.023437-18.355469-47.742187-42.664063-2.71875-24.3125 13.28125-46.777343 37.144531-52.160156 4.308594-.972656 8.59375 1.730469 9.566406 6.042969.976563 4.308594-1.730468 8.59375-6.039062 9.566406-15.59375 3.539063-26.183594 18.046875-24.796875 33.976563 1.382813 15.929687 14.3125 28.394531 30.285156 29.191406 15.96875.796875 30.078125-10.316406 33.039063-26.03125.835937-4.320312 5-7.15625 9.324218-6.347656 4.324219.808594 7.183594 4.953125 6.402344 9.285156-4.261718 22.699219-24.085937 39.144531-47.183594 39.140625zm0 0" fill="#1e81ce"/></svg>