<svg height="479pt" viewBox="0 0 479.88321 479" width="479pt" xmlns="http://www.w3.org/2000/svg"><path d="m87.949219 472.320312h304c37.847656-.046874 70.484375-26.605468 78.21875-63.652343s-11.550781-74.445313-46.21875-89.628907c-.699219-43.683593-36.3125-78.726562-80-78.71875-6.554688-.023437-13.085938.785157-19.441407 2.398438-6.910156-12.847656-16.679687-23.933594-28.558593-32.398438v134h-112v-134c-11.878907 8.464844-21.648438 19.550782-28.558594 32.398438-6.355469-1.613281-12.886719-2.421875-19.441406-2.398438-43.6875-.007812-79.300781 35.035157-80 78.71875-34.667969 15.183594-53.953125 52.582032-46.21875 89.628907s40.371093 63.605469 78.21875 63.652343zm0 0" fill="#9bc9ff"/><path d="m431.726562 313.855469c-1.855468-24.835938-14.132812-47.726563-33.800781-63.003907-19.664062-15.28125-44.878906-21.523437-69.402343-17.179687-6.5-10.457031-14.816407-19.667969-24.558594-27.199219v-54.152344h56c3.148437 0 6.003906-1.84375 7.296875-4.710937s.785156-6.226563-1.296875-8.585937l-120-136c-1.558594-1.648438-3.730469-2.582032-6-2.582032-2.269532 0-4.4375.933594-6 2.582032l-120 136c-2.082032 2.355468-2.589844 5.710937-1.296875 8.578124 1.289062 2.867188 4.136719 4.710938 7.28125 4.71875h56v54.132813c-9.742188 7.535156-18.058594 16.746094-24.558594 27.203125-24.523437-4.34375-49.738281 1.898438-69.402344 17.179688-19.667969 15.277343-31.945312 38.167968-33.800781 63.003906-36.300781 18.414062-55.238281 59.328125-45.78125 98.921875s44.835938 67.535156 85.542969 67.558593h304c40.699219-.03125 76.066406-27.964843 85.523437-67.550781 9.460938-39.582031-9.460937-80.488281-45.746094-98.914062zm-294.050781-177.535157 102.273438-115.914062 102.273437 115.914062h-46.273437c-4.417969 0-8 3.582032-8 8v192h-96v-192c0-4.417968-3.582031-8-8-8zm254.273438 328h-304c-34.0625-.042968-63.433594-23.945312-70.394531-57.289062-6.960938-33.339844 10.394531-67 41.59375-80.664062 2.871093-1.253907 4.75-4.066407 4.800781-7.199219.816406-39.234375 32.757812-70.667969 72-70.847657 5.886719-.019531 11.75.703126 17.457031 2.152344 3.558594.910156 7.277344-.722656 9.023438-3.953125 3.683593-6.730469 8.230468-12.953125 13.519531-18.511719v116.3125c0 4.417969 3.582031 8 8 8h112c4.417969 0 8-3.582031 8-8v-116.3125c5.289062 5.558594 9.835937 11.78125 13.519531 18.511719 1.746094 3.230469 5.464844 4.863281 9.023438 3.953125 5.707031-1.449218 11.570312-2.171875 17.457031-2.152344 39.242187.179688 71.183593 31.613282 72 70.847657.050781 3.132812 1.929687 5.945312 4.800781 7.199219 31.199219 13.664062 48.554688 47.324218 41.59375 80.664062-6.960938 33.34375-36.332031 57.246094-70.394531 57.289062zm0 0" fill="#1e81ce"/></svg>