<svg height="480pt" viewBox="0 0 480 480" width="480pt" xmlns="http://www.w3.org/2000/svg"><path d="m296 408h176v64h-176zm0 0" fill="#9bc9ff"/><path d="m296 120h-144v192h56l32 64 32-64h56v-192zm-56 32c13.253906 0 24 10.746094 24 24s-10.746094 24-24 24-24-10.746094-24-24 10.746094-24 24-24zm56 128h-112v-24c0-22.089844 17.910156-40 40-40h32c22.089844 0 40 17.910156 40 40zm0 0" fill="#9bc9ff"/><path d="m357.199219 105.664062c.871093-.25 1.695312-.617187 2.59375-.800781-.898438.183594-1.722657.550781-2.59375.800781zm0 0" fill="#9bc9ff"/><path d="m296 8v112h32v24c.007812-15.960938 9.503906-30.390625 24.160156-36.710938-.089844.039063-.183594.046876-.273437.085938.089843-.039062.183593-.046875.273437-.085938 1.640625-.648437 3.324219-1.179687 5.039063-1.601562.871093-.246094 1.695312-.617188 2.59375-.800781 2.699219-.574219 5.449219-.875 8.207031-.886719h32c22.089844 0 40 17.910156 40 40v24h-112v32h24l32 64 32-64h56v-192zm88 80c-13.253906 0-24-10.746094-24-24s10.746094-24 24-24 24 10.746094 24 24-10.746094 24-24 24zm0 0" fill="#9bc9ff"/><path d="m8 200h56l32 64 32-64h24v-32h-112v-24c0-22.089844 17.910156-40 40-40h32c2.707031-.007812 5.410156.261719 8.0625.800781 2.574219.519531 5.089844 1.300781 7.503906 2.328125-2.414062-1.027344-4.929687-1.808594-7.503906-2.328125 18.601562 3.828125 31.949219 20.207031 31.9375 39.199219v-24h32v-112h-176zm88-160c13.253906 0 24 10.746094 24 24s-10.746094 24-24 24-24-10.746094-24-24 10.746094-24 24-24zm0 0" fill="#9bc9ff"/><path d="m352.160156 107.289062c1.640625-.648437 3.324219-1.179687 5.039063-1.601562-1.714844.421875-3.398438.953125-5.039063 1.601562zm0 0" fill="#9bc9ff"/><path d="m359.792969 104.855469c2.699219-.566407 5.449219-.851563 8.207031-.855469-2.757812.003906-5.507812.289062-8.207031.855469zm0 0" fill="#9bc9ff"/><g fill="#1e81ce"><path d="m472 400h-464c-4.417969 0-8 3.582031-8 8v64c0 4.417969 3.582031 8 8 8h464c4.417969 0 8-3.582031 8-8v-64c0-4.417969-3.582031-8-8-8zm-456 16h272v48h-272zm448 48h-160v-48h160zm0 0"/><path d="m424 448h16c4.417969 0 8-3.582031 8-8s-3.582031-8-8-8h-16c-4.417969 0-8 3.582031-8 8s3.582031 8 8 8zm0 0"/><path d="m376 448h16c4.417969 0 8-3.582031 8-8s-3.582031-8-8-8h-16c-4.417969 0-8 3.582031-8 8s3.582031 8 8 8zm0 0"/><path d="m328 448h16c4.417969 0 8-3.582031 8-8s-3.582031-8-8-8h-16c-4.417969 0-8 3.582031-8 8s3.582031 8 8 8zm0 0"/><path d="m256 208h-32c-26.5.027344-47.972656 21.5-48 48v24c0 4.417969 3.582031 8 8 8h112c4.417969 0 8-3.582031 8-8v-24c-.027344-26.5-21.5-47.972656-48-48zm32 64h-96v-16c0-17.671875 14.328125-32 32-32h32c17.671875 0 32 14.328125 32 32zm0 0"/><path d="m272 176c0-17.671875-14.328125-32-32-32s-32 14.328125-32 32 14.328125 32 32 32 32-14.328125 32-32zm-32 16c-8.835938 0-16-7.164062-16-16s7.164062-16 16-16 16 7.164062 16 16-7.164062 16-16 16zm0 0"/><path d="m128 160h-80v-16c0-17.671875 14.328125-32 32-32h32c4.277344-.007812 8.515625.847656 12.457031 2.511719 4.058594 1.683593 8.71875-.222657 10.433594-4.273438 1.710937-4.050781-.164063-8.722656-4.203125-10.460937-5.910156-2.503906-12.269531-3.789063-18.6875-3.777344h-32c-26.5.027344-47.972656 21.5-48 48v24c0 4.417969 3.582031 8 8 8h88c4.417969 0 8-3.582031 8-8s-3.582031-8-8-8zm0 0"/><path d="m128 64c0-17.671875-14.328125-32-32-32s-32 14.328125-32 32 14.328125 32 32 32 32-14.328125 32-32zm-32 16c-8.835938 0-16-7.164062-16-16s7.164062-16 16-16 16 7.164062 16 16-7.164062 16-16 16zm0 0"/><path d="m355.121094 114.695312c4.058594-1.785156 8.445312-2.703124 12.878906-2.695312h32c17.671875 0 32 14.328125 32 32v16h-80c-4.417969 0-8 3.582031-8 8s3.582031 8 8 8h88c4.417969 0 8-3.582031 8-8v-24c-.027344-26.5-21.5-47.972656-48-48h-32c-6.65625-.011719-13.242188 1.371094-19.335938 4.054688-4.042968 1.785156-5.875 6.507812-4.09375 10.550781 1.785157 4.042969 6.507813 5.875 10.550782 4.089843zm0 0"/><path d="m416 64c0-17.671875-14.328125-32-32-32s-32 14.328125-32 32 14.328125 32 32 32 32-14.328125 32-32zm-32 16c-8.835938 0-16-7.164062-16-16s7.164062-16 16-16 16 7.164062 16 16-7.164062 16-16 16zm0 0"/><path d="m472 0h-176c-4.417969 0-8 3.582031-8 8v104h-96v-104c0-4.417969-3.582031-8-8-8h-176c-4.417969 0-8 3.582031-8 8v192c0 4.417969 3.582031 8 8 8h51.054688l29.785156 59.574219c1.351562 2.71875 4.125 4.433593 7.160156 4.433593s5.808594-1.714843 7.160156-4.433593l29.785156-59.574219h11.054688v104c0 4.417969 3.582031 8 8 8h51.054688l29.785156 59.574219c1.351562 2.71875 4.125 4.433593 7.160156 4.433593s5.808594-1.714843 7.160156-4.433593l29.785156-59.574219h51.054688c4.417969 0 8-3.582031 8-8v-104h11.054688l29.785156 59.574219c1.351562 2.71875 4.125 4.433593 7.160156 4.433593s5.808594-1.714843 7.160156-4.433593l29.785156-59.574219h51.054688c4.417969 0 8-3.582031 8-8v-192c0-4.417969-3.582031-8-8-8zm-344 192c-3.03125 0-5.804688 1.710938-7.160156 4.425781l-24.839844 49.6875-24.800781-49.6875c-1.359375-2.726562-4.152344-4.441406-7.199219-4.425781h-48v-176h160v96h-24c-4.417969 0-8 3.582031-8 8v72zm192 112h-48c-3.046875-.015625-5.839844 1.699219-7.199219 4.425781l-24.800781 49.6875-24.800781-49.6875c-1.359375-2.726562-4.152344-4.441406-7.199219-4.425781h-48v-176h160zm144-112h-48c-3.046875-.015625-5.839844 1.699219-7.199219 4.425781l-24.800781 49.6875-24.800781-49.6875c-1.359375-2.726562-4.152344-4.441406-7.199219-4.425781h-16v-72c0-4.417969-3.582031-8-8-8h-24v-96h160zm0 0"/></g></svg>