<svg height="480pt" viewBox="0 0 480 480" width="480pt" xmlns="http://www.w3.org/2000/svg"><path d="m472 8h-464v96h464zm-160 64h-32v-32h32zm64 0h-32v-32h32zm64 0h-32v-32h32zm0 0" fill="#9bc9ff"/><path d="m168 152-112 64 112 64v-32h256v-64h-256zm0 0" fill="#9bc9ff"/><path d="m312 328h-256v64h256v32l112-64-112-64zm0 0" fill="#9bc9ff"/><g fill="#1e81ce"><path d="m472 0h-464c-4.417969 0-8 3.582031-8 8v464c0 4.417969 3.582031 8 8 8h464c4.417969 0 8-3.582031 8-8v-464c0-4.417969-3.582031-8-8-8zm-456 16h448v80h-448zm448 448h-448v-352h448zm0 0"/><path d="m440 80h-32c-4.417969 0-8-3.582031-8-8v-32c0-4.417969 3.582031-8 8-8h32c4.417969 0 8 3.582031 8 8v32c0 4.417969-3.582031 8-8 8zm-24-16h16v-16h-16zm0 0"/><path d="m376 80h-32c-4.417969 0-8-3.582031-8-8v-32c0-4.417969 3.582031-8 8-8h32c4.417969 0 8 3.582031 8 8v32c0 4.417969-3.582031 8-8 8zm-24-16h16v-16h-16zm0 0"/><path d="m312 80h-32c-4.417969 0-8-3.582031-8-8v-32c0-4.417969 3.582031-8 8-8h32c4.417969 0 8 3.582031 8 8v32c0 4.417969-3.582031 8-8 8zm-24-16h16v-16h-16zm0 0"/><path d="m168 288c-1.402344.003906-2.78125-.359375-4-1.054688l-112-64c-2.492188-1.425781-4.027344-4.074218-4.027344-6.945312s1.535156-5.519531 4.027344-6.945312l112-64c2.476562-1.429688 5.53125-1.425782 8.007812.003906 2.476563 1.433594 3.996094 4.082031 3.992188 6.941406v24h248c4.417969 0 8 3.582031 8 8v64c0 4.417969-3.582031 8-8 8h-248v24c0 4.417969-3.582031 8-8 8zm-95.871094-72 87.871094 50.214844v-18.214844c0-4.417969 3.582031-8 8-8h248v-48h-248c-4.417969 0-8-3.582031-8-8v-18.214844zm0 0"/><path d="m312 432c-4.417969 0-8-3.582031-8-8v-24h-248c-4.417969 0-8-3.582031-8-8v-64c0-4.417969 3.582031-8 8-8h248v-24c-.003906-2.859375 1.515625-5.507812 3.992188-6.941406 2.476562-1.429688 5.53125-1.433594 8.007812-.003906l112 64c2.492188 1.425781 4.027344 4.074218 4.027344 6.945312s-1.535156 5.519531-4.027344 6.945312l-112 64c-1.21875.695313-2.597656 1.058594-4 1.054688zm-248-48h248c4.417969 0 8 3.582031 8 8v18.214844l87.871094-50.214844-87.871094-50.214844v18.214844c0 4.417969-3.582031 8-8 8h-248zm0 0"/></g></svg>