<svg height="480pt" viewBox="0 0 480 480" width="480pt" xmlns="http://www.w3.org/2000/svg"><g fill="#9bc9ff"><path d="m72 40v-32h-64v64h64zm0 0"/><path d="m40 408h-32v64h64v-64zm0 0"/><path d="m408 40v32h64v-64h-64zm0 0"/><path d="m408 440v32h64v-64h-64zm0 0"/><path d="m120 104v144l120-72zm0 0"/><path d="m120 248h240l-120-72zm0 0"/><path d="m240 176 120-72h-240zm0 0"/><path d="m360 248v-144l-120 72zm0 0"/></g><path d="m472 80c4.417969 0 8-3.582031 8-8v-64c0-4.417969-3.582031-8-8-8h-64c-4.417969 0-8 3.582031-8 8v24h-320v-24c0-4.417969-3.582031-8-8-8h-64c-4.417969 0-8 3.582031-8 8v64c0 4.417969 3.582031 8 8 8h24v320h-24c-4.417969 0-8 3.582031-8 8v64c0 4.417969 3.582031 8 8 8h64c4.417969 0 8-3.582031 8-8v-24h320v24c0 4.417969 3.582031 8 8 8h64c4.417969 0 8-3.582031 8-8v-64c0-4.417969-3.582031-8-8-8h-24v-320zm-56-64h48v48h-48zm-400 0h48v48h-48zm48 448h-48v-48h48zm400 0h-48v-48h48zm-32-64h-24c-4.417969 0-8 3.582031-8 8v24h-320v-24c0-4.417969-3.582031-8-8-8h-24v-320h24c4.417969 0 8-3.582031 8-8v-24h320v24c0 4.417969 3.582031 8 8 8h24zm0 0" fill="#1e81ce"/><path d="m360 96h-240c-4.417969 0-8 3.582031-8 8v144c0 4.417969 3.582031 8 8 8h240c4.417969 0 8-3.582031 8-8v-144c0-4.417969-3.582031-8-8-8zm-135.542969 80-96.457031 57.871094v-115.742188zm-75.578125-64h182.242188l-91.121094 54.671875zm91.121094 73.328125 91.121094 54.671875h-182.242188zm15.542969-9.328125 96.457031-57.871094v115.742188zm0 0" fill="#1e81ce"/><path d="m360 272h-176c-4.417969 0-8 3.582031-8 8s3.582031 8 8 8h176c4.417969 0 8-3.582031 8-8s-3.582031-8-8-8zm0 0" fill="#1e81ce"/><path d="m360 304h-240c-4.417969 0-8 3.582031-8 8s3.582031 8 8 8h240c4.417969 0 8-3.582031 8-8s-3.582031-8-8-8zm0 0" fill="#1e81ce"/><path d="m360 336h-240c-4.417969 0-8 3.582031-8 8s3.582031 8 8 8h240c4.417969 0 8-3.582031 8-8s-3.582031-8-8-8zm0 0" fill="#1e81ce"/><path d="m360 368h-240c-4.417969 0-8 3.582031-8 8s3.582031 8 8 8h240c4.417969 0 8-3.582031 8-8s-3.582031-8-8-8zm0 0" fill="#1e81ce"/><path d="m120 288h32c4.417969 0 8-3.582031 8-8s-3.582031-8-8-8h-32c-4.417969 0-8 3.582031-8 8s3.582031 8 8 8zm0 0" fill="#1e81ce"/></svg>