<svg height="480pt" viewBox="0 0 480 480" width="480pt" xmlns="http://www.w3.org/2000/svg"><path d="m8 104h464v-96h-464zm400-64h32v32h-32zm-64 0h32v32h-32zm-64 0h32v32h-32zm0 0" fill="#9bc9ff"/><path d="m93.039062 272.960938v.078124l-25.917968 25.839844 34 34 25.839844-25.917968h.078124l.960938-1.039063v38.078125h48v-38.078125l.960938 1.039063h.078124l25.839844 25.917968 34-34-25.917968-25.839844v-.078124l-1.039063-.960938h38.078125v-48h-38.078125l1.039063-.960938v-.078124l25.917968-25.839844-34-34-25.839844 25.917968h-.078124l-.960938 1.039063v-38.078125h-48v38.078125l-.960938-1.039063h-.078124l-25.839844-25.917968-34 34 25.917968 25.839844v.078124l1.039063.960938h-38.078125v48h38.078125zm58.960938-56.960938c17.671875 0 32 14.328125 32 32s-14.328125 32-32 32-32-14.328125-32-32 14.328125-32 32-32zm0 0" fill="#9bc9ff"/><path d="m296 152h128v48h-128zm0 0" fill="#9bc9ff"/><path d="m296 232h128v48h-128zm0 0" fill="#9bc9ff"/><path d="m296 312h128v48h-128zm0 0" fill="#9bc9ff"/><path d="m56 392h368v48h-368zm0 0" fill="#9bc9ff"/><g fill="#1e81ce"><path d="m472 0h-464c-4.417969 0-8 3.582031-8 8v464c0 4.417969 3.582031 8 8 8h464c4.417969 0 8-3.582031 8-8v-464c0-4.417969-3.582031-8-8-8zm-456 16h448v80h-448zm448 448h-448v-352h448zm0 0"/><path d="m440 32h-32c-4.417969 0-8 3.582031-8 8v32c0 4.417969 3.582031 8 8 8h32c4.417969 0 8-3.582031 8-8v-32c0-4.417969-3.582031-8-8-8zm-8 32h-16v-16h16zm0 0"/><path d="m376 32h-32c-4.417969 0-8 3.582031-8 8v32c0 4.417969 3.582031 8 8 8h32c4.417969 0 8-3.582031 8-8v-32c0-4.417969-3.582031-8-8-8zm-8 32h-16v-16h16zm0 0"/><path d="m312 32h-32c-4.417969 0-8 3.582031-8 8v32c0 4.417969 3.582031 8 8 8h32c4.417969 0 8-3.582031 8-8v-32c0-4.417969-3.582031-8-8-8zm-8 32h-16v-16h16zm0 0"/><path d="m56 280h18.726562l-13.253906 13.214844c-1.503906 1.5-2.347656 3.539062-2.347656 5.660156 0 2.125.84375 4.160156 2.347656 5.660156l34 34c1.5 1.5 3.535156 2.34375 5.65625 2.34375s4.15625-.847656 5.65625-2.351562l13.214844-13.253906v18.726562c0 4.417969 3.582031 8 8 8h48c4.417969 0 8-3.582031 8-8v-18.726562l13.214844 13.253906c1.5 1.503906 3.535156 2.351562 5.65625 2.351562s4.15625-.84375 5.65625-2.34375l34-34c1.503906-1.5 2.347656-3.535156 2.347656-5.660156 0-2.121094-.84375-4.160156-2.347656-5.660156l-13.253906-13.214844h18.726562c4.417969 0 8-3.582031 8-8v-48c0-4.417969-3.582031-8-8-8h-18.726562l13.253906-13.214844c1.503906-1.5 2.347656-3.539062 2.347656-5.660156 0-2.125-.84375-4.160156-2.347656-5.660156l-34-34c-1.5-1.5-3.535156-2.34375-5.65625-2.34375s-4.15625.847656-5.65625 2.351562l-13.214844 13.253906v-18.726562c0-4.417969-3.582031-8-8-8h-48c-4.417969 0-8 3.582031-8 8v18.726562l-13.214844-13.253906c-1.5-1.503906-3.535156-2.351562-5.65625-2.351562s-4.15625.84375-5.65625 2.34375l-34 34c-1.503906 1.5-2.347656 3.535156-2.347656 5.660156 0 2.121094.84375 4.160156 2.347656 5.660156l13.253906 13.214844h-18.726562c-4.417969 0-8 3.582031-8 8v48c0 4.417969 3.582031 8 8 8zm8-48h30.078125c3.292969 0 6.25-2.019531 7.449219-5.082031 1.199218-3.066407.402344-6.554688-2.015625-8.789063l-.375-.351562c-.144531-.160156-.296875-.328125-.449219-.480469l-20.246094-20.183594 22.671875-22.671875 20.183594 20.246094c.152344.152344.3125.296875.472656.441406l.359375.382813c2.234375 2.417969 5.722656 3.214843 8.789063 2.015625 3.0625-1.199219 5.082031-4.15625 5.082031-7.449219v-30.078125h32v30.078125c0 3.292969 2.019531 6.25 5.082031 7.449219 3.066407 1.199218 6.554688.402344 8.789063-2.015625l.351562-.375c.160156-.144531.328125-.296875.480469-.449219l20.183594-20.246094 22.714843 22.671875-20.25 20.183594c-.152343.152344-.296874.3125-.441406.472656l-.382812.359375c-2.410156 2.230469-3.210938 5.707032-2.023438 8.769532 1.191406 3.0625 4.132813 5.085937 7.417969 5.101562h30.078125v32h-30.078125c-3.292969 0-6.25 2.019531-7.449219 5.082031-1.199218 3.066407-.402344 6.554688 2.015625 8.789063l.375.351562c.144531.160156.296875.328125.449219.480469l20.289062 20.183594-22.714843 22.714843-20.183594-20.25c-.152344-.152343-.3125-.296874-.472656-.441406l-.359375-.382812c-2.230469-2.410156-5.707032-3.210938-8.769532-2.023438-3.0625 1.191406-5.085937 4.132813-5.101562 7.417969v30.078125h-32v-30.078125c0-3.292969-2.019531-6.25-5.082031-7.449219-3.066407-1.199218-6.554688-.402344-8.789063 2.015625l-.351562.375c-.160156.144531-.328125.296875-.480469.449219l-20.183594 20.289062-22.671875-22.671874 20.246094-20.1875c.152344-.148438.296875-.308594.441406-.46875l.382813-.363282c2.445312-2.230468 3.265625-5.734375 2.0625-8.820312-1.203125-3.082032-4.183594-5.109375-7.496094-5.089844h-30.078125zm0 0"/><path d="m152 288c22.089844 0 40-17.910156 40-40s-17.910156-40-40-40-40 17.910156-40 40c.027344 22.082031 17.917969 39.972656 40 40zm0-64c13.253906 0 24 10.746094 24 24s-10.746094 24-24 24-24-10.746094-24-24 10.746094-24 24-24zm0 0"/><path d="m296 208h128c4.417969 0 8-3.582031 8-8v-48c0-4.417969-3.582031-8-8-8h-128c-4.417969 0-8 3.582031-8 8v48c0 4.417969 3.582031 8 8 8zm8-48h112v32h-112zm0 0"/><path d="m296 288h128c4.417969 0 8-3.582031 8-8v-48c0-4.417969-3.582031-8-8-8h-128c-4.417969 0-8 3.582031-8 8v48c0 4.417969 3.582031 8 8 8zm8-48h112v32h-112zm0 0"/><path d="m296 368h128c4.417969 0 8-3.582031 8-8v-48c0-4.417969-3.582031-8-8-8h-128c-4.417969 0-8 3.582031-8 8v48c0 4.417969 3.582031 8 8 8zm8-48h112v32h-112zm0 0"/><path d="m56 448h368c4.417969 0 8-3.582031 8-8v-48c0-4.417969-3.582031-8-8-8h-368c-4.417969 0-8 3.582031-8 8v48c0 4.417969 3.582031 8 8 8zm8-48h352v32h-352zm0 0"/></g></svg>