<svg height="479pt" viewBox="-1 0 479 479.6695" width="479pt" xmlns="http://www.w3.org/2000/svg"><g fill="#9bc9ff"><path d="m7 255.835938c.011719 5.804687.820312 11.582031 2.398438 17.167968-1.585938-10.984375-2.386719-22.070312-2.398438-33.167968zm0 0"/><path d="m471 255.835938v-16c-.011719 11.097656-.816406 22.183593-2.402344 33.167968 1.582032-5.585937 2.386719-11.363281 2.402344-17.167968zm0 0"/><path d="m7 223.835938v16c.011719-11.101563.8125-22.183594 2.398438-33.167969-1.578126 5.585937-2.386719 11.363281-2.398438 17.167969zm0 0"/><path d="m471 239.835938v-16c-.015625-5.804688-.820312-11.582032-2.402344-17.167969 1.585938 10.984375 2.390625 22.066406 2.402344 33.167969zm0 0"/><path d="m140.597656 91.660156c-9.839844 21.816406-17.140625 44.691406-21.757812 68.175782h120.160156v-56c-33.183594.097656-66.246094-3.996094-98.402344-12.175782zm0 0"/><path d="m239 103.835938v56h120.160156c-4.617187-23.484376-11.921875-46.359376-21.761718-68.175782-32.15625 8.179688-65.21875 12.273438-98.398438 12.175782zm0 0"/><path d="m118.839844 319.835938h-47.839844c-28.714844-.027344-53.898438-19.171876-61.601562-46.832032 7.550781 52.523438 32.921874 100.855469 71.863281 136.902344 18.933593-9.417969 38.828125-16.757812 59.335937-21.894531-9.839844-21.816407-17.140625-44.691407-21.757812-68.175781zm0 0"/><path d="m140.597656 388.011719c23.472656 51.160156 58.800782 83.824219 98.402344 83.824219v-96c-33.183594-.097657-66.246094 3.992187-98.402344 12.175781zm0 0"/><path d="m337.398438 388.011719c9.839843-21.816407 17.144531-44.691407 21.761718-68.175781h-120.160156v56c33.179688-.097657 66.242188 3.992187 98.398438 12.175781zm0 0"/><path d="m239 375.835938v-56h-120.160156c4.617187 23.484374 11.917968 46.359374 21.757812 68.175781 32.15625-8.183594 65.21875-12.273438 98.402344-12.175781zm0 0"/><path d="m337.398438 388.011719c-32.15625-8.183594-65.21875-12.273438-98.398438-12.175781v96c39.597656 0 74.925781-32.664063 98.398438-83.824219zm0 0"/><path d="m239 471.835938c58.519531.0625 114.886719-22.066407 157.734375-61.929688-18.929687-9.417969-38.824219-16.757812-59.335937-21.894531-23.472657 51.160156-58.800782 83.824219-98.398438 83.824219zm0 0"/><path d="m359.160156 159.835938h47.839844c28.714844.023437 53.894531 19.167968 61.597656 46.832031-7.550781-52.523438-32.921875-100.859375-71.863281-136.90625-18.929687 9.417969-38.824219 16.757812-59.335937 21.898437 9.839843 21.816406 17.144531 44.691406 21.761718 68.175782zm0 0"/><path d="m407 319.835938h-47.839844c-4.617187 23.484374-11.921875 46.359374-21.761718 68.175781 20.511718 5.136719 40.410156 12.476562 59.34375 21.894531 38.9375-36.046875 64.308593-84.378906 71.855468-136.902344-7.703125 27.660156-32.882812 46.804688-61.597656 46.832032zm0 0"/><path d="m140.597656 91.660156c32.15625 8.179688 65.21875 12.273438 98.402344 12.175782v-96c-39.601562 0-74.929688 32.664062-98.402344 83.824218zm0 0"/><path d="m337.398438 91.660156c-23.472657-51.160156-58.800782-83.824218-98.398438-83.824218v96c33.179688.097656 66.242188-3.996094 98.398438-12.175782zm0 0"/><path d="m337.398438 91.660156c20.511718-5.136718 40.410156-12.480468 59.34375-21.898437-42.847657-39.863281-99.21875-61.992188-157.742188-61.925781 39.597656 0 74.925781 32.664062 98.398438 83.824218zm0 0"/><path d="m239 7.835938c-58.523438-.066407-114.890625 22.066406-157.738281 61.925781 18.933593 9.417969 38.828125 16.757812 59.335937 21.898437 23.472656-51.160156 58.800782-83.824218 98.402344-83.824218zm0 0"/><path d="m140.597656 388.011719c-20.511718 5.136719-40.410156 12.476562-59.34375 21.894531 42.847656 39.863281 99.222656 61.996094 157.746094 61.929688-39.601562 0-74.929688-32.664063-98.402344-83.824219zm0 0"/><path d="m71 159.835938h47.839844c4.617187-23.484376 11.917968-46.359376 21.757812-68.175782-20.511718-5.136718-40.410156-12.480468-59.34375-21.898437-38.9375 36.046875-64.304687 84.382812-71.855468 136.90625 7.703124-27.664063 32.886718-46.808594 61.601562-46.832031zm0 0"/></g><path d="m135 287.835938c-3.273438 0-6.214844-1.988282-7.433594-5.023438l-24.566406-61.441406-24.570312 61.441406c-1.261719 3.160156-4.386719 5.175781-7.789063 5.023438-3.402344-.152344-6.332031-2.441407-7.304687-5.707032l-24-80c-1.269532-4.230468 1.132812-8.691406 5.367187-9.957031 4.230469-1.269531 8.691406 1.132813 9.960937 5.367187l17.414063 58.054688 23.488281-58.734375c1.210938-3.042969 4.15625-5.039063 7.433594-5.039063 3.273438 0 6.21875 1.996094 7.429688 5.039063l23.488281 58.734375 17.417969-58.054688c1.265624-4.234374 5.726562-6.636718 9.957031-5.367187 4.234375 1.265625 6.636719 5.726563 5.371093 9.957031l-24 80c-.976562 3.261719-3.914062 5.546875-7.3125 5.699219zm0 0" fill="#1e81ce"/><path d="m271 287.835938c-3.273438 0-6.214844-1.988282-7.433594-5.023438l-24.566406-61.441406-24.570312 61.441406c-1.261719 3.160156-4.386719 5.175781-7.789063 5.023438-3.402344-.152344-6.332031-2.441407-7.304687-5.707032l-24-80c-1.269532-4.230468 1.132812-8.691406 5.367187-9.957031 4.230469-1.269531 8.691406 1.132813 9.960937 5.367187l17.414063 58.054688 23.488281-58.734375c1.210938-3.042969 4.15625-5.039063 7.433594-5.039063 3.273438 0 6.21875 1.996094 7.429688 5.039063l23.488281 58.734375 17.417969-58.054688c1.265624-4.234374 5.726562-6.636718 9.957031-5.367187 4.234375 1.265625 6.636719 5.726563 5.371093 9.957031l-24 80c-.976562 3.261719-3.90625 5.546875-7.304687 5.699219zm0 0" fill="#1e81ce"/><path d="m415 287.835938c-3.273438 0-6.214844-1.988282-7.433594-5.023438l-24.566406-61.441406-24.570312 61.441406c-1.261719 3.160156-4.386719 5.175781-7.789063 5.023438-3.402344-.152344-6.332031-2.441407-7.304687-5.707032l-24-80c-1.269532-4.230468 1.132812-8.691406 5.367187-9.957031 4.230469-1.269531 8.691406 1.132813 9.960937 5.367187l17.414063 58.054688 23.488281-58.734375c1.210938-3.042969 4.15625-5.039063 7.433594-5.039063 3.273438 0 6.21875 1.996094 7.429688 5.039063l23.488281 58.734375 17.417969-58.054688c1.265624-4.234374 5.726562-6.636718 9.957031-5.367187 4.234375 1.265625 6.636719 5.726563 5.371093 9.957031l-24 80c-.976562 3.261719-3.90625 5.546875-7.304687 5.699219zm0 0" fill="#1e81ce"/><path d="m476.460938 205.203125c-17.265626-117.847656-118.355469-205.203125-237.460938-205.203125-119.109375 0-220.195312 87.355469-237.464844 205.203125-1.6015622 23.058594-1.6015622 46.203125 0 69.261719 17.269532 117.851562 118.355469 205.203125 237.464844 205.203125 119.105469 0 220.195312-87.351563 237.460938-205.203125 1.601562-23.058594 1.601562-46.203125 0-69.261719zm-15.789063 66.496094c-7.046875 23.773437-28.875 40.097656-53.671875 40.136719h-336c-24.800781-.039063-46.628906-16.359376-53.671875-40.136719-1.503906-21.214844-1.503906-42.511719 0-63.726563 7.042969-23.777344 28.871094-40.101562 53.671875-40.136718h336c24.796875.039062 46.625 16.359374 53.671875 40.136718 1.503906 21.214844 1.503906 42.511719 0 63.726563zm-213.671875 56.136719h102.144531c-3.925781 17.382812-9.363281 34.394531-16.25 50.832031-28.167969-6.605469-56.964843-10.167969-85.894531-10.625zm-16-176h-102.144531c3.921875-17.386719 9.359375-34.394532 16.246093-50.832032 28.171876 6.582032 56.96875 10.136719 85.898438 10.597656zm219.605469 14.847656c-12.5-9.625-27.832031-14.84375-43.605469-14.847656h-41.457031c-4.042969-18.761719-9.761719-37.121094-17.089844-54.855469 15.964844-4.558594 31.519531-10.445313 46.496094-17.601563 25.097656 24.371094 44.152343 54.265625 55.65625 87.304688zm-68.597657-98.898438c-13.046874 5.839844-26.511718 10.699219-40.28125 14.539063-10.40625-22.214844-25.179687-42.109375-43.441406-58.488281 30.722656 8.515624 59.265625 23.5 83.722656 43.949218zm-135.007812-51.375c30.335938 3.871094 58.460938 29.511719 78.964844 69.832032-25.933594 5.800781-52.394532 8.941406-78.964844 9.367187zm85.894531 84.59375c6.886719 16.4375 12.324219 33.445313 16.25 50.832032h-102.144531v-40.234376c28.925781-.460937 57.722656-4.015624 85.894531-10.597656zm-101.894531-84.59375v79.199219c-26.574219-.429687-53.035156-3.570313-78.96875-9.375 20.503906-40.3125 48.632812-65.953125 78.96875-69.824219zm-51.28125 7.425782c-18.261719 16.371093-33.035156 36.257812-43.441406 58.472656-13.769532-3.847656-27.234375-8.707032-40.285156-14.546875 24.457031-20.445313 53.003906-35.421875 83.726562-43.925781zm-96.671875 55.574218c14.980469 7.160156 30.539063 13.046875 46.503906 17.601563-7.328125 17.726562-13.050781 36.074219-17.105469 54.824219h-41.445312c-15.777344.003906-31.109375 5.222656-43.609375 14.847656 11.507813-33.027344 30.566406-62.910156 55.65625-87.273438zm-55.65625 233.601563c12.503906 9.613281 27.835937 14.824219 43.609375 14.824219h41.445312c4.050782 18.757812 9.777344 37.117187 17.105469 54.855468-15.964843 4.554688-31.523437 10.441406-46.503906 17.597656-25.09375-24.371093-44.152344-54.265624-55.65625-87.300781zm68.601563 98.894531c13.050781-5.835938 26.515624-10.699219 40.285156-14.542969 10.40625 22.210938 25.179687 42.097657 43.441406 58.472657-30.722656-8.515626-59.273438-23.5-83.726562-43.953126zm135.007812 51.34375c-30.335938-3.863281-58.464844-29.503906-78.96875-69.824219 25.933594-5.808593 52.394531-8.953125 78.96875-9.382812zm-85.898438-84.582031c-6.886718-16.4375-12.324218-33.449219-16.246093-50.832031h102.144531v40.207031c-28.929688.457031-57.726562 4.019531-85.898438 10.625zm101.898438 84.582031v-79.199219c26.574219.429688 53.03125 3.574219 78.964844 9.382813-20.503906 40.3125-48.621094 65.953125-78.964844 69.816406zm51.285156-7.414062c18.257813-16.375 33.03125-36.257813 43.441406-58.464844 13.769532 3.839844 27.234376 8.695312 40.28125 14.535156-24.457031 20.441406-53.003906 35.417969-83.722656 43.929688zm96.664063-55.554688c-14.976563-7.15625-30.53125-13.042969-46.496094-17.597656 7.328125-17.734375 13.046875-36.089844 17.089844-54.847656h41.457031c15.773438-.007813 31.105469-5.226563 43.605469-14.847657-11.507813 33.023438-30.5625 62.90625-55.65625 87.269531zm0 0" fill="#1e81ce"/></svg>