<svg height="480pt" viewBox="-80 0 480 480" width="480pt" xmlns="http://www.w3.org/2000/svg"><path d="m88 40c-8.835938 0-16 7.164062-16 16s-7.164062 16-16 16h-32c-8.835938 0-16 7.164062-16 16v16h304v-16c0-8.835938-7.164062-16-16-16h-40c-8.835938 0-16-7.164062-16-16s-7.164062-16-16-16zm0 0" fill="#9bc9ff"/><path d="m24 168 32 272h208l32-272zm0 0" fill="#9bc9ff"/><g fill="#1e81ce"><path d="m296 64h-40c-4.417969 0-8-3.582031-8-8 0-13.253906-10.746094-24-24-24h-16v-8c0-13.253906-10.746094-24-24-24h-48c-13.253906 0-24 10.746094-24 24v8h-24c-13.253906 0-24 10.746094-24 24 0 4.417969-3.582031 8-8 8h-32c-13.253906 0-24 10.746094-24 24v16c0 4.417969 3.582031 8 8 8h304c4.417969 0 8-3.582031 8-8v-16c0-13.253906-10.746094-24-24-24zm-168-40c0-4.417969 3.582031-8 8-8h48c4.417969 0 8 3.582031 8 8v8h-64zm176 72h-288v-8c0-4.417969 3.582031-8 8-8h32c13.253906 0 24-10.746094 24-24 0-4.417969 3.582031-8 8-8h136c4.417969 0 8 3.582031 8 8 0 13.253906 10.746094 24 24 24h40c4.417969 0 8 3.582031 8 8zm0 0"/><path d="m312 128h-304c-4.417969 0-8 3.582031-8 8v32c0 4.417969 3.582031 8 8 8h8.886719l30.113281 256h-7c-4.417969 0-8 3.582031-8 8v32c0 4.417969 3.582031 8 8 8h240c4.417969 0 8-3.582031 8-8v-32c0-4.417969-3.582031-8-8-8h-7l30.113281-256h8.886719c4.417969 0 8-3.582031 8-8v-32c0-4.417969-3.582031-8-8-8zm-40 336h-224v-16h224zm-15.113281-32h-193.773438l-30.113281-256h254zm47.113281-272h-288v-16h288zm0 0"/><path d="m136 400c4.417969 0 8-3.582031 8-8v-176c0-4.417969-3.582031-8-8-8s-8 3.582031-8 8v176c0 4.417969 3.582031 8 8 8zm0 0"/><path d="m184 400c4.417969 0 8-3.582031 8-8v-176c0-4.417969-3.582031-8-8-8s-8 3.582031-8 8v176c0 4.417969 3.582031 8 8 8zm0 0"/><path d="m223.28125 400h.726562c4.152344.015625 7.625-3.144531 8-7.28125l16-176c.398438-4.417969-2.863281-8.324219-7.285156-8.722656-4.417968-.398438-8.324218 2.863281-8.722656 7.285156l-16 176c-.199219 2.121094.457031 4.238281 1.824219 5.875 1.367187 1.636719 3.332031 2.660156 5.457031 2.84375zm0 0"/><path d="m96 400h.726562c2.125-.183594 4.085938-1.210938 5.453126-2.847656 1.363281-1.636719 2.019531-3.75 1.820312-5.871094l-16-176c-.398438-4.417969-4.300781-7.679688-8.71875-7.28125s-7.679688 4.300781-7.28125 8.71875l16 176c.375 4.136719 3.847656 7.296875 8 7.28125zm0 0"/></g></svg>